M48
;DRILL file {Pcbnew (2013-07-07 BZR 4022)-stable} date 11/15/2014 10:46:56 AM
;FORMAT={-:-/ absolute / inch / decimal}
FMAT,2
INCH,TZ
T1C0.013
T2C0.039
%
G90
G05
M72
T1
X1.189Y-0.9882
X1.2628Y-1.1171
X1.31Y-1.0364
X1.345Y-0.885
X1.43Y-1.14
X1.4449Y-1.0955
X1.5108Y-1.3533
X1.5551Y-1.1555
X1.56Y-1.015
X1.5728Y-1.5699
X1.5827Y-0.9065
X1.6152Y-1.3583
X1.6171Y-1.2539
X1.6545Y-1.4528
T2
X1.205Y-1.7516
X1.3044Y-1.7506
X1.4048Y-1.7506
X1.5052Y-1.7506
X1.6056Y-1.7506
X1.706Y-1.7506
X1.8074Y-1.75
X1.9078Y-1.75
X2.0081Y-1.75
X2.1085Y-1.75
T0
M30
