G04 (created by PCBNEW (2013-07-07 BZR 4022)-stable) date 11/16/2014 5:36:46 PM*
%MOIN*%
G04 Gerber Fmt 3.4, Leading zero omitted, Abs format*
%FSLAX34Y34*%
G01*
G70*
G90*
G04 APERTURE LIST*
%ADD10C,0.00590551*%
%ADD11C,0.005*%
%ADD12C,0.0039*%
%ADD13C,0.0059*%
%ADD14C,0.0043*%
%ADD15C,0.0025*%
%ADD16C,0.0047*%
%ADD17R,0.05X0.025*%
%ADD18R,0.035X0.055*%
%ADD19R,0.055X0.035*%
%ADD20R,0.0393701X0.0393701*%
%ADD21R,0.0866X0.063*%
%ADD22C,0.0700787*%
G04 APERTURE END LIST*
G54D10*
G54D11*
X14820Y-14500D02*
X16380Y-14500D01*
X16380Y-14500D02*
X16380Y-11100D01*
X16380Y-11100D02*
X14820Y-11100D01*
X14820Y-11100D02*
X14820Y-14500D01*
X14820Y-13800D02*
X14390Y-13800D01*
X14820Y-13300D02*
X14390Y-13300D01*
X14820Y-12800D02*
X14390Y-12800D01*
X14820Y-14300D02*
X14390Y-14300D01*
X14390Y-12300D02*
X14820Y-12300D01*
X14390Y-11800D02*
X14820Y-11800D01*
X14390Y-11300D02*
X14820Y-11300D01*
X16380Y-11300D02*
X16810Y-11300D01*
X16380Y-11800D02*
X16810Y-11800D01*
X16380Y-14300D02*
X16810Y-14300D01*
X16810Y-13800D02*
X16380Y-13800D01*
X16810Y-12300D02*
X16380Y-12300D01*
X16810Y-12800D02*
X16380Y-12800D01*
X16810Y-13300D02*
X16380Y-13300D01*
X16276Y-14210D02*
G75*
G03X16276Y-14210I-186J0D01*
G74*
G01*
G54D12*
X17160Y-8150D02*
G75*
G03X17160Y-8150I-50J0D01*
G74*
G01*
X17560Y-8150D02*
X17160Y-8150D01*
X17160Y-8150D02*
X17160Y-7550D01*
X17160Y-7550D02*
X17560Y-7550D01*
X17960Y-7550D02*
X18360Y-7550D01*
X18360Y-7550D02*
X18360Y-8150D01*
X18360Y-8150D02*
X17960Y-8150D01*
X14050Y-12300D02*
G75*
G03X14050Y-12300I-50J0D01*
G74*
G01*
X13550Y-12300D02*
X13950Y-12300D01*
X13950Y-12300D02*
X13950Y-12900D01*
X13950Y-12900D02*
X13550Y-12900D01*
X13150Y-12900D02*
X12750Y-12900D01*
X12750Y-12900D02*
X12750Y-12300D01*
X12750Y-12300D02*
X13150Y-12300D01*
X19750Y-13300D02*
G75*
G03X19750Y-13300I-50J0D01*
G74*
G01*
X19700Y-13750D02*
X19700Y-13350D01*
X19700Y-13350D02*
X20300Y-13350D01*
X20300Y-13350D02*
X20300Y-13750D01*
X20300Y-14150D02*
X20300Y-14550D01*
X20300Y-14550D02*
X19700Y-14550D01*
X19700Y-14550D02*
X19700Y-14150D01*
X18850Y-13275D02*
G75*
G03X18850Y-13275I-50J0D01*
G74*
G01*
X18800Y-13725D02*
X18800Y-13325D01*
X18800Y-13325D02*
X19400Y-13325D01*
X19400Y-13325D02*
X19400Y-13725D01*
X19400Y-14125D02*
X19400Y-14525D01*
X19400Y-14525D02*
X18800Y-14525D01*
X18800Y-14525D02*
X18800Y-14125D01*
X14920Y-16240D02*
G75*
G03X14920Y-16240I-50J0D01*
G74*
G01*
X15320Y-16240D02*
X14920Y-16240D01*
X14920Y-16240D02*
X14920Y-15640D01*
X14920Y-15640D02*
X15320Y-15640D01*
X15720Y-15640D02*
X16120Y-15640D01*
X16120Y-15640D02*
X16120Y-16240D01*
X16120Y-16240D02*
X15720Y-16240D01*
X14955Y-15415D02*
G75*
G03X14955Y-15415I-50J0D01*
G74*
G01*
X15355Y-15415D02*
X14955Y-15415D01*
X14955Y-15415D02*
X14955Y-14815D01*
X14955Y-14815D02*
X15355Y-14815D01*
X15755Y-14815D02*
X16155Y-14815D01*
X16155Y-14815D02*
X16155Y-15415D01*
X16155Y-15415D02*
X15755Y-15415D01*
X15070Y-8140D02*
G75*
G03X15070Y-8140I-50J0D01*
G74*
G01*
X14570Y-8140D02*
X14970Y-8140D01*
X14970Y-8140D02*
X14970Y-8740D01*
X14970Y-8740D02*
X14570Y-8740D01*
X14170Y-8740D02*
X13770Y-8740D01*
X13770Y-8740D02*
X13770Y-8140D01*
X13770Y-8140D02*
X14170Y-8140D01*
X19200Y-12350D02*
G75*
G03X19200Y-12350I-50J0D01*
G74*
G01*
X18700Y-12350D02*
X19100Y-12350D01*
X19100Y-12350D02*
X19100Y-12950D01*
X19100Y-12950D02*
X18700Y-12950D01*
X18300Y-12950D02*
X17900Y-12950D01*
X17900Y-12950D02*
X17900Y-12350D01*
X17900Y-12350D02*
X18300Y-12350D01*
X21100Y-12450D02*
G75*
G03X21100Y-12450I-50J0D01*
G74*
G01*
X20600Y-12450D02*
X21000Y-12450D01*
X21000Y-12450D02*
X21000Y-13050D01*
X21000Y-13050D02*
X20600Y-13050D01*
X20200Y-13050D02*
X19800Y-13050D01*
X19800Y-13050D02*
X19800Y-12450D01*
X19800Y-12450D02*
X20200Y-12450D01*
X15070Y-9020D02*
G75*
G03X15070Y-9020I-50J0D01*
G74*
G01*
X14570Y-9020D02*
X14970Y-9020D01*
X14970Y-9020D02*
X14970Y-9620D01*
X14970Y-9620D02*
X14570Y-9620D01*
X14170Y-9620D02*
X13770Y-9620D01*
X13770Y-9620D02*
X13770Y-9020D01*
X13770Y-9020D02*
X14170Y-9020D01*
X12140Y-9400D02*
G75*
G03X12140Y-9400I-50J0D01*
G74*
G01*
X12090Y-9850D02*
X12090Y-9450D01*
X12090Y-9450D02*
X12690Y-9450D01*
X12690Y-9450D02*
X12690Y-9850D01*
X12690Y-10250D02*
X12690Y-10650D01*
X12690Y-10650D02*
X12090Y-10650D01*
X12090Y-10650D02*
X12090Y-10250D01*
X17250Y-11550D02*
G75*
G03X17250Y-11550I-50J0D01*
G74*
G01*
X17650Y-11550D02*
X17250Y-11550D01*
X17250Y-11550D02*
X17250Y-10950D01*
X17250Y-10950D02*
X17650Y-10950D01*
X18050Y-10950D02*
X18450Y-10950D01*
X18450Y-10950D02*
X18450Y-11550D01*
X18450Y-11550D02*
X18050Y-11550D01*
X18850Y-11800D02*
G75*
G03X18850Y-11800I-50J0D01*
G74*
G01*
X19250Y-11800D02*
X18850Y-11800D01*
X18850Y-11800D02*
X18850Y-11200D01*
X18850Y-11200D02*
X19250Y-11200D01*
X19650Y-11200D02*
X20050Y-11200D01*
X20050Y-11200D02*
X20050Y-11800D01*
X20050Y-11800D02*
X19650Y-11800D01*
X16530Y-10010D02*
G75*
G03X16530Y-10010I-50J0D01*
G74*
G01*
X16030Y-10010D02*
X16430Y-10010D01*
X16430Y-10010D02*
X16430Y-10610D01*
X16430Y-10610D02*
X16030Y-10610D01*
X15630Y-10610D02*
X15230Y-10610D01*
X15230Y-10610D02*
X15230Y-10010D01*
X15230Y-10010D02*
X15630Y-10010D01*
X16530Y-8110D02*
G75*
G03X16530Y-8110I-50J0D01*
G74*
G01*
X16030Y-8110D02*
X16430Y-8110D01*
X16430Y-8110D02*
X16430Y-8710D01*
X16430Y-8710D02*
X16030Y-8710D01*
X15630Y-8710D02*
X15230Y-8710D01*
X15230Y-8710D02*
X15230Y-8110D01*
X15230Y-8110D02*
X15630Y-8110D01*
X16530Y-9010D02*
G75*
G03X16530Y-9010I-50J0D01*
G74*
G01*
X16030Y-9010D02*
X16430Y-9010D01*
X16430Y-9010D02*
X16430Y-9610D01*
X16430Y-9610D02*
X16030Y-9610D01*
X15630Y-9610D02*
X15230Y-9610D01*
X15230Y-9610D02*
X15230Y-9010D01*
X15230Y-9010D02*
X15630Y-9010D01*
X19000Y-15450D02*
G75*
G03X19000Y-15450I-50J0D01*
G74*
G01*
X19400Y-15450D02*
X19000Y-15450D01*
X19000Y-15450D02*
X19000Y-14850D01*
X19000Y-14850D02*
X19400Y-14850D01*
X19800Y-14850D02*
X20200Y-14850D01*
X20200Y-14850D02*
X20200Y-15450D01*
X20200Y-15450D02*
X19800Y-15450D01*
X17900Y-13275D02*
G75*
G03X17900Y-13275I-50J0D01*
G74*
G01*
X17850Y-13725D02*
X17850Y-13325D01*
X17850Y-13325D02*
X18450Y-13325D01*
X18450Y-13325D02*
X18450Y-13725D01*
X18450Y-14125D02*
X18450Y-14525D01*
X18450Y-14525D02*
X17850Y-14525D01*
X17850Y-14525D02*
X17850Y-14125D01*
G54D11*
X13140Y-15490D02*
X13140Y-15410D01*
X13890Y-14890D02*
X13890Y-16690D01*
X13890Y-16690D02*
X13640Y-16690D01*
X12390Y-16050D02*
X13890Y-16050D01*
X12390Y-16180D02*
X13890Y-16180D01*
X12640Y-14890D02*
X12390Y-14890D01*
X12390Y-14890D02*
X12390Y-16690D01*
X12390Y-16690D02*
X12640Y-16690D01*
X13640Y-14890D02*
X13890Y-14890D01*
X13140Y-15740D02*
X13327Y-15490D01*
X13327Y-15490D02*
X13140Y-15490D01*
X13140Y-15490D02*
X12953Y-15490D01*
X12953Y-15490D02*
X13140Y-15740D01*
X13140Y-15740D02*
X13265Y-15740D01*
X13265Y-15740D02*
X13327Y-15678D01*
X13140Y-15740D02*
X13015Y-15740D01*
X13015Y-15740D02*
X12953Y-15802D01*
X13140Y-15740D02*
X13140Y-16177D01*
X17750Y-9900D02*
X17750Y-9980D01*
X17000Y-10500D02*
X17000Y-8700D01*
X17000Y-8700D02*
X17250Y-8700D01*
X18500Y-9340D02*
X17000Y-9340D01*
X18500Y-9210D02*
X17000Y-9210D01*
X18250Y-10500D02*
X18500Y-10500D01*
X18500Y-10500D02*
X18500Y-8700D01*
X18500Y-8700D02*
X18250Y-8700D01*
X17250Y-10500D02*
X17000Y-10500D01*
X17750Y-9650D02*
X17563Y-9900D01*
X17563Y-9900D02*
X17750Y-9900D01*
X17750Y-9900D02*
X17937Y-9900D01*
X17937Y-9900D02*
X17750Y-9650D01*
X17750Y-9650D02*
X17625Y-9650D01*
X17625Y-9650D02*
X17563Y-9712D01*
X17750Y-9650D02*
X17875Y-9650D01*
X17875Y-9650D02*
X17937Y-9588D01*
X17750Y-9650D02*
X17750Y-9213D01*
X19550Y-9300D02*
X19550Y-9220D01*
X20300Y-8700D02*
X20300Y-10500D01*
X20300Y-10500D02*
X20050Y-10500D01*
X18800Y-9860D02*
X20300Y-9860D01*
X18800Y-9990D02*
X20300Y-9990D01*
X19050Y-8700D02*
X18800Y-8700D01*
X18800Y-8700D02*
X18800Y-10500D01*
X18800Y-10500D02*
X19050Y-10500D01*
X20050Y-8700D02*
X20300Y-8700D01*
X19550Y-9550D02*
X19737Y-9300D01*
X19737Y-9300D02*
X19550Y-9300D01*
X19550Y-9300D02*
X19363Y-9300D01*
X19363Y-9300D02*
X19550Y-9550D01*
X19550Y-9550D02*
X19675Y-9550D01*
X19675Y-9550D02*
X19737Y-9488D01*
X19550Y-9550D02*
X19425Y-9550D01*
X19425Y-9550D02*
X19363Y-9612D01*
X19550Y-9550D02*
X19550Y-9987D01*
G54D10*
X13269Y-16849D02*
X18387Y-16849D01*
X18387Y-16849D02*
X18387Y-18030D01*
X18387Y-18030D02*
X13269Y-18030D01*
X13269Y-16849D02*
X13269Y-18030D01*
X13306Y-6153D02*
X16259Y-6153D01*
X16259Y-6153D02*
X16259Y-7334D01*
X16259Y-7334D02*
X13306Y-7334D01*
X13109Y-7137D02*
X13109Y-6153D01*
X13109Y-6153D02*
X13306Y-6153D01*
X13109Y-7137D02*
X13109Y-7334D01*
X13109Y-7334D02*
X13306Y-7334D01*
G54D13*
X15024Y-13024D02*
X15263Y-13024D01*
X15291Y-13010D01*
X15305Y-12996D01*
X15319Y-12968D01*
X15319Y-12912D01*
X15305Y-12884D01*
X15291Y-12870D01*
X15263Y-12856D01*
X15024Y-12856D01*
X15319Y-12561D02*
X15319Y-12729D01*
X15319Y-12645D02*
X15024Y-12645D01*
X15066Y-12673D01*
X15094Y-12701D01*
X15108Y-12729D01*
X16119Y-13755D02*
X15824Y-13755D01*
X16035Y-13656D01*
X15824Y-13558D01*
X16119Y-13558D01*
X16091Y-13249D02*
X16105Y-13263D01*
X16119Y-13305D01*
X16119Y-13333D01*
X16105Y-13375D01*
X16077Y-13404D01*
X16049Y-13418D01*
X15992Y-13432D01*
X15950Y-13432D01*
X15894Y-13418D01*
X15866Y-13404D01*
X15838Y-13375D01*
X15824Y-13333D01*
X15824Y-13305D01*
X15838Y-13263D01*
X15852Y-13249D01*
X16119Y-13123D02*
X15824Y-13123D01*
X15824Y-13010D01*
X15838Y-12982D01*
X15852Y-12968D01*
X15880Y-12954D01*
X15922Y-12954D01*
X15950Y-12968D01*
X15964Y-12982D01*
X15978Y-13010D01*
X15978Y-13123D01*
X15824Y-12701D02*
X15824Y-12757D01*
X15838Y-12785D01*
X15852Y-12799D01*
X15894Y-12828D01*
X15950Y-12842D01*
X16063Y-12842D01*
X16091Y-12828D01*
X16105Y-12814D01*
X16119Y-12785D01*
X16119Y-12729D01*
X16105Y-12701D01*
X16091Y-12687D01*
X16063Y-12673D01*
X15992Y-12673D01*
X15964Y-12687D01*
X15950Y-12701D01*
X15936Y-12729D01*
X15936Y-12785D01*
X15950Y-12814D01*
X15964Y-12828D01*
X15992Y-12842D01*
X15852Y-12561D02*
X15838Y-12547D01*
X15824Y-12519D01*
X15824Y-12448D01*
X15838Y-12420D01*
X15852Y-12406D01*
X15880Y-12392D01*
X15908Y-12392D01*
X15950Y-12406D01*
X16119Y-12575D01*
X16119Y-12392D01*
X15922Y-12139D02*
X16119Y-12139D01*
X15810Y-12209D02*
X16021Y-12280D01*
X16021Y-12097D01*
X15922Y-11858D02*
X16119Y-11858D01*
X15810Y-11929D02*
X16021Y-11999D01*
X16021Y-11816D01*
G54D14*
X17633Y-7804D02*
X17567Y-7710D01*
X17520Y-7804D02*
X17520Y-7607D01*
X17595Y-7607D01*
X17614Y-7617D01*
X17623Y-7626D01*
X17633Y-7645D01*
X17633Y-7673D01*
X17623Y-7692D01*
X17614Y-7701D01*
X17595Y-7710D01*
X17520Y-7710D01*
X17820Y-7804D02*
X17708Y-7804D01*
X17764Y-7804D02*
X17764Y-7607D01*
X17745Y-7635D01*
X17727Y-7654D01*
X17708Y-7664D01*
X17886Y-7607D02*
X18008Y-7607D01*
X17942Y-7682D01*
X17971Y-7682D01*
X17989Y-7692D01*
X17999Y-7701D01*
X18008Y-7720D01*
X18008Y-7767D01*
X17999Y-7785D01*
X17989Y-7795D01*
X17971Y-7804D01*
X17914Y-7804D01*
X17896Y-7795D01*
X17886Y-7785D01*
X17530Y-8079D02*
X17417Y-8079D01*
X17473Y-8079D02*
X17473Y-7882D01*
X17455Y-7910D01*
X17436Y-7929D01*
X17417Y-7939D01*
X17652Y-7882D02*
X17670Y-7882D01*
X17689Y-7892D01*
X17699Y-7901D01*
X17708Y-7920D01*
X17717Y-7957D01*
X17717Y-8004D01*
X17708Y-8042D01*
X17699Y-8060D01*
X17689Y-8070D01*
X17670Y-8079D01*
X17652Y-8079D01*
X17633Y-8070D01*
X17623Y-8060D01*
X17614Y-8042D01*
X17605Y-8004D01*
X17605Y-7957D01*
X17614Y-7920D01*
X17623Y-7901D01*
X17633Y-7892D01*
X17652Y-7882D01*
X17839Y-7882D02*
X17858Y-7882D01*
X17877Y-7892D01*
X17886Y-7901D01*
X17896Y-7920D01*
X17905Y-7957D01*
X17905Y-8004D01*
X17896Y-8042D01*
X17886Y-8060D01*
X17877Y-8070D01*
X17858Y-8079D01*
X17839Y-8079D01*
X17820Y-8070D01*
X17811Y-8060D01*
X17802Y-8042D01*
X17792Y-8004D01*
X17792Y-7957D01*
X17802Y-7920D01*
X17811Y-7901D01*
X17820Y-7892D01*
X17839Y-7882D01*
X17989Y-8079D02*
X17989Y-7882D01*
X18102Y-8079D02*
X18017Y-7967D01*
X18102Y-7882D02*
X17989Y-7995D01*
X13223Y-12804D02*
X13157Y-12710D01*
X13110Y-12804D02*
X13110Y-12607D01*
X13185Y-12607D01*
X13204Y-12617D01*
X13213Y-12626D01*
X13223Y-12645D01*
X13223Y-12673D01*
X13213Y-12692D01*
X13204Y-12701D01*
X13185Y-12710D01*
X13110Y-12710D01*
X13410Y-12804D02*
X13298Y-12804D01*
X13354Y-12804D02*
X13354Y-12607D01*
X13335Y-12635D01*
X13317Y-12654D01*
X13298Y-12664D01*
X13598Y-12804D02*
X13486Y-12804D01*
X13542Y-12804D02*
X13542Y-12607D01*
X13523Y-12635D01*
X13504Y-12654D01*
X13486Y-12664D01*
X13242Y-12332D02*
X13260Y-12332D01*
X13279Y-12342D01*
X13289Y-12351D01*
X13298Y-12370D01*
X13307Y-12407D01*
X13307Y-12454D01*
X13298Y-12492D01*
X13289Y-12510D01*
X13279Y-12520D01*
X13260Y-12529D01*
X13242Y-12529D01*
X13223Y-12520D01*
X13213Y-12510D01*
X13204Y-12492D01*
X13195Y-12454D01*
X13195Y-12407D01*
X13204Y-12370D01*
X13213Y-12351D01*
X13223Y-12342D01*
X13242Y-12332D01*
X13392Y-12529D02*
X13392Y-12332D01*
X13504Y-12529D02*
X13420Y-12417D01*
X13504Y-12332D02*
X13392Y-12445D01*
X20185Y-14076D02*
X20195Y-14086D01*
X20204Y-14114D01*
X20204Y-14132D01*
X20195Y-14161D01*
X20176Y-14179D01*
X20157Y-14189D01*
X20120Y-14198D01*
X20092Y-14198D01*
X20054Y-14189D01*
X20035Y-14179D01*
X20017Y-14161D01*
X20007Y-14132D01*
X20007Y-14114D01*
X20017Y-14086D01*
X20026Y-14076D01*
X20204Y-13889D02*
X20204Y-14001D01*
X20204Y-13945D02*
X20007Y-13945D01*
X20035Y-13964D01*
X20054Y-13982D01*
X20064Y-14001D01*
X20007Y-13823D02*
X20007Y-13701D01*
X20082Y-13767D01*
X20082Y-13738D01*
X20092Y-13720D01*
X20101Y-13710D01*
X20120Y-13701D01*
X20167Y-13701D01*
X20185Y-13710D01*
X20195Y-13720D01*
X20204Y-13738D01*
X20204Y-13795D01*
X20195Y-13813D01*
X20185Y-13823D01*
X19910Y-14132D02*
X19920Y-14123D01*
X19929Y-14132D01*
X19920Y-14142D01*
X19910Y-14132D01*
X19929Y-14132D01*
X19929Y-13935D02*
X19929Y-14048D01*
X19929Y-13992D02*
X19732Y-13992D01*
X19760Y-14010D01*
X19779Y-14029D01*
X19789Y-14048D01*
X19798Y-13767D02*
X19929Y-13767D01*
X19798Y-13851D02*
X19901Y-13851D01*
X19920Y-13842D01*
X19929Y-13823D01*
X19929Y-13795D01*
X19920Y-13776D01*
X19910Y-13767D01*
X19285Y-14051D02*
X19295Y-14061D01*
X19304Y-14089D01*
X19304Y-14107D01*
X19295Y-14136D01*
X19276Y-14154D01*
X19257Y-14164D01*
X19220Y-14173D01*
X19192Y-14173D01*
X19154Y-14164D01*
X19135Y-14154D01*
X19117Y-14136D01*
X19107Y-14107D01*
X19107Y-14089D01*
X19117Y-14061D01*
X19126Y-14051D01*
X19304Y-13864D02*
X19304Y-13976D01*
X19304Y-13920D02*
X19107Y-13920D01*
X19135Y-13939D01*
X19154Y-13957D01*
X19164Y-13976D01*
X19126Y-13788D02*
X19117Y-13779D01*
X19107Y-13760D01*
X19107Y-13713D01*
X19117Y-13695D01*
X19126Y-13685D01*
X19145Y-13676D01*
X19164Y-13676D01*
X19192Y-13685D01*
X19304Y-13798D01*
X19304Y-13676D01*
X19010Y-14107D02*
X19020Y-14098D01*
X19029Y-14107D01*
X19020Y-14117D01*
X19010Y-14107D01*
X19029Y-14107D01*
X19029Y-13910D02*
X19029Y-14023D01*
X19029Y-13967D02*
X18832Y-13967D01*
X18860Y-13985D01*
X18879Y-14004D01*
X18889Y-14023D01*
X18898Y-13742D02*
X19029Y-13742D01*
X18898Y-13826D02*
X19001Y-13826D01*
X19020Y-13817D01*
X19029Y-13798D01*
X19029Y-13770D01*
X19020Y-13751D01*
X19010Y-13742D01*
X15487Y-15875D02*
X15477Y-15885D01*
X15449Y-15894D01*
X15430Y-15894D01*
X15402Y-15885D01*
X15383Y-15866D01*
X15374Y-15847D01*
X15365Y-15810D01*
X15365Y-15782D01*
X15374Y-15744D01*
X15383Y-15725D01*
X15402Y-15707D01*
X15430Y-15697D01*
X15449Y-15697D01*
X15477Y-15707D01*
X15487Y-15716D01*
X15552Y-15697D02*
X15674Y-15697D01*
X15609Y-15772D01*
X15637Y-15772D01*
X15656Y-15782D01*
X15665Y-15791D01*
X15674Y-15810D01*
X15674Y-15857D01*
X15665Y-15875D01*
X15656Y-15885D01*
X15637Y-15894D01*
X15580Y-15894D01*
X15562Y-15885D01*
X15552Y-15875D01*
X15487Y-16169D02*
X15374Y-16169D01*
X15430Y-16169D02*
X15430Y-15972D01*
X15412Y-16000D01*
X15393Y-16019D01*
X15374Y-16029D01*
X15656Y-16038D02*
X15656Y-16169D01*
X15571Y-16038D02*
X15571Y-16141D01*
X15580Y-16160D01*
X15599Y-16169D01*
X15627Y-16169D01*
X15646Y-16160D01*
X15656Y-16150D01*
X15428Y-15069D02*
X15362Y-14975D01*
X15315Y-15069D02*
X15315Y-14872D01*
X15390Y-14872D01*
X15409Y-14882D01*
X15418Y-14891D01*
X15428Y-14910D01*
X15428Y-14938D01*
X15418Y-14957D01*
X15409Y-14966D01*
X15390Y-14975D01*
X15315Y-14975D01*
X15615Y-15069D02*
X15503Y-15069D01*
X15559Y-15069D02*
X15559Y-14872D01*
X15540Y-14900D01*
X15522Y-14919D01*
X15503Y-14929D01*
X15737Y-14872D02*
X15756Y-14872D01*
X15775Y-14882D01*
X15784Y-14891D01*
X15794Y-14910D01*
X15803Y-14947D01*
X15803Y-14994D01*
X15794Y-15032D01*
X15784Y-15050D01*
X15775Y-15060D01*
X15756Y-15069D01*
X15737Y-15069D01*
X15719Y-15060D01*
X15709Y-15050D01*
X15700Y-15032D01*
X15691Y-14994D01*
X15691Y-14947D01*
X15700Y-14910D01*
X15709Y-14891D01*
X15719Y-14882D01*
X15737Y-14872D01*
X15418Y-15344D02*
X15306Y-15344D01*
X15362Y-15344D02*
X15362Y-15147D01*
X15343Y-15175D01*
X15325Y-15194D01*
X15306Y-15204D01*
X15540Y-15147D02*
X15559Y-15147D01*
X15578Y-15157D01*
X15587Y-15166D01*
X15597Y-15185D01*
X15606Y-15222D01*
X15606Y-15269D01*
X15597Y-15307D01*
X15587Y-15325D01*
X15578Y-15335D01*
X15559Y-15344D01*
X15540Y-15344D01*
X15522Y-15335D01*
X15512Y-15325D01*
X15503Y-15307D01*
X15494Y-15269D01*
X15494Y-15222D01*
X15503Y-15185D01*
X15512Y-15166D01*
X15522Y-15157D01*
X15540Y-15147D01*
X15691Y-15344D02*
X15691Y-15147D01*
X15803Y-15344D02*
X15719Y-15232D01*
X15803Y-15147D02*
X15691Y-15260D01*
X14243Y-8644D02*
X14177Y-8550D01*
X14130Y-8644D02*
X14130Y-8447D01*
X14205Y-8447D01*
X14224Y-8457D01*
X14233Y-8466D01*
X14243Y-8485D01*
X14243Y-8513D01*
X14233Y-8532D01*
X14224Y-8541D01*
X14205Y-8550D01*
X14130Y-8550D01*
X14430Y-8644D02*
X14318Y-8644D01*
X14374Y-8644D02*
X14374Y-8447D01*
X14355Y-8475D01*
X14337Y-8494D01*
X14318Y-8504D01*
X14506Y-8466D02*
X14515Y-8457D01*
X14534Y-8447D01*
X14581Y-8447D01*
X14599Y-8457D01*
X14609Y-8466D01*
X14618Y-8485D01*
X14618Y-8504D01*
X14609Y-8532D01*
X14496Y-8644D01*
X14618Y-8644D01*
X14262Y-8172D02*
X14280Y-8172D01*
X14299Y-8182D01*
X14309Y-8191D01*
X14318Y-8210D01*
X14327Y-8247D01*
X14327Y-8294D01*
X14318Y-8332D01*
X14309Y-8350D01*
X14299Y-8360D01*
X14280Y-8369D01*
X14262Y-8369D01*
X14243Y-8360D01*
X14233Y-8350D01*
X14224Y-8332D01*
X14215Y-8294D01*
X14215Y-8247D01*
X14224Y-8210D01*
X14233Y-8191D01*
X14243Y-8182D01*
X14262Y-8172D01*
X14412Y-8369D02*
X14412Y-8172D01*
X14524Y-8369D02*
X14440Y-8257D01*
X14524Y-8172D02*
X14412Y-8285D01*
X18373Y-12854D02*
X18307Y-12760D01*
X18260Y-12854D02*
X18260Y-12657D01*
X18335Y-12657D01*
X18354Y-12667D01*
X18363Y-12676D01*
X18373Y-12695D01*
X18373Y-12723D01*
X18363Y-12742D01*
X18354Y-12751D01*
X18335Y-12760D01*
X18260Y-12760D01*
X18560Y-12854D02*
X18448Y-12854D01*
X18504Y-12854D02*
X18504Y-12657D01*
X18485Y-12685D01*
X18467Y-12704D01*
X18448Y-12714D01*
X18729Y-12723D02*
X18729Y-12854D01*
X18682Y-12648D02*
X18636Y-12789D01*
X18757Y-12789D01*
X18457Y-12579D02*
X18345Y-12579D01*
X18401Y-12579D02*
X18401Y-12382D01*
X18382Y-12410D01*
X18363Y-12429D01*
X18345Y-12439D01*
X18542Y-12579D02*
X18542Y-12382D01*
X18654Y-12579D02*
X18570Y-12467D01*
X18654Y-12382D02*
X18542Y-12495D01*
X20367Y-12935D02*
X20357Y-12945D01*
X20329Y-12954D01*
X20310Y-12954D01*
X20282Y-12945D01*
X20263Y-12926D01*
X20254Y-12907D01*
X20245Y-12870D01*
X20245Y-12842D01*
X20254Y-12804D01*
X20263Y-12785D01*
X20282Y-12767D01*
X20310Y-12757D01*
X20329Y-12757D01*
X20357Y-12767D01*
X20367Y-12776D01*
X20460Y-12954D02*
X20498Y-12954D01*
X20517Y-12945D01*
X20526Y-12935D01*
X20545Y-12907D01*
X20554Y-12870D01*
X20554Y-12795D01*
X20545Y-12776D01*
X20536Y-12767D01*
X20517Y-12757D01*
X20479Y-12757D01*
X20460Y-12767D01*
X20451Y-12776D01*
X20442Y-12795D01*
X20442Y-12842D01*
X20451Y-12860D01*
X20460Y-12870D01*
X20479Y-12879D01*
X20517Y-12879D01*
X20536Y-12870D01*
X20545Y-12860D01*
X20554Y-12842D01*
X20179Y-12679D02*
X20066Y-12679D01*
X20123Y-12679D02*
X20123Y-12482D01*
X20104Y-12510D01*
X20085Y-12529D01*
X20066Y-12539D01*
X20301Y-12482D02*
X20320Y-12482D01*
X20339Y-12492D01*
X20348Y-12501D01*
X20357Y-12520D01*
X20367Y-12557D01*
X20367Y-12604D01*
X20357Y-12642D01*
X20348Y-12660D01*
X20339Y-12670D01*
X20320Y-12679D01*
X20301Y-12679D01*
X20282Y-12670D01*
X20273Y-12660D01*
X20263Y-12642D01*
X20254Y-12604D01*
X20254Y-12557D01*
X20263Y-12520D01*
X20273Y-12501D01*
X20282Y-12492D01*
X20301Y-12482D01*
X20489Y-12482D02*
X20507Y-12482D01*
X20526Y-12492D01*
X20536Y-12501D01*
X20545Y-12520D01*
X20554Y-12557D01*
X20554Y-12604D01*
X20545Y-12642D01*
X20536Y-12660D01*
X20526Y-12670D01*
X20507Y-12679D01*
X20489Y-12679D01*
X20470Y-12670D01*
X20460Y-12660D01*
X20451Y-12642D01*
X20442Y-12604D01*
X20442Y-12557D01*
X20451Y-12520D01*
X20460Y-12501D01*
X20470Y-12492D01*
X20489Y-12482D01*
X20639Y-12548D02*
X20639Y-12679D01*
X20639Y-12567D02*
X20648Y-12557D01*
X20667Y-12548D01*
X20695Y-12548D01*
X20714Y-12557D01*
X20723Y-12576D01*
X20723Y-12679D01*
X14337Y-9524D02*
X14271Y-9430D01*
X14224Y-9524D02*
X14224Y-9327D01*
X14299Y-9327D01*
X14318Y-9337D01*
X14327Y-9346D01*
X14337Y-9365D01*
X14337Y-9393D01*
X14327Y-9412D01*
X14318Y-9421D01*
X14299Y-9430D01*
X14224Y-9430D01*
X14449Y-9412D02*
X14430Y-9402D01*
X14421Y-9393D01*
X14412Y-9374D01*
X14412Y-9365D01*
X14421Y-9346D01*
X14430Y-9337D01*
X14449Y-9327D01*
X14487Y-9327D01*
X14506Y-9337D01*
X14515Y-9346D01*
X14524Y-9365D01*
X14524Y-9374D01*
X14515Y-9393D01*
X14506Y-9402D01*
X14487Y-9412D01*
X14449Y-9412D01*
X14430Y-9421D01*
X14421Y-9430D01*
X14412Y-9449D01*
X14412Y-9487D01*
X14421Y-9505D01*
X14430Y-9515D01*
X14449Y-9524D01*
X14487Y-9524D01*
X14506Y-9515D01*
X14515Y-9505D01*
X14524Y-9487D01*
X14524Y-9449D01*
X14515Y-9430D01*
X14506Y-9421D01*
X14487Y-9412D01*
X14262Y-9052D02*
X14280Y-9052D01*
X14299Y-9062D01*
X14309Y-9071D01*
X14318Y-9090D01*
X14327Y-9127D01*
X14327Y-9174D01*
X14318Y-9212D01*
X14309Y-9230D01*
X14299Y-9240D01*
X14280Y-9249D01*
X14262Y-9249D01*
X14243Y-9240D01*
X14233Y-9230D01*
X14224Y-9212D01*
X14215Y-9174D01*
X14215Y-9127D01*
X14224Y-9090D01*
X14233Y-9071D01*
X14243Y-9062D01*
X14262Y-9052D01*
X14412Y-9249D02*
X14412Y-9052D01*
X14524Y-9249D02*
X14440Y-9137D01*
X14524Y-9052D02*
X14412Y-9165D01*
X12594Y-10082D02*
X12500Y-10148D01*
X12594Y-10195D02*
X12397Y-10195D01*
X12397Y-10120D01*
X12407Y-10101D01*
X12416Y-10092D01*
X12435Y-10082D01*
X12463Y-10082D01*
X12482Y-10092D01*
X12491Y-10101D01*
X12500Y-10120D01*
X12500Y-10195D01*
X12397Y-10017D02*
X12397Y-9885D01*
X12594Y-9970D01*
X12122Y-10157D02*
X12122Y-10139D01*
X12132Y-10120D01*
X12141Y-10110D01*
X12160Y-10101D01*
X12197Y-10092D01*
X12244Y-10092D01*
X12282Y-10101D01*
X12300Y-10110D01*
X12310Y-10120D01*
X12319Y-10139D01*
X12319Y-10157D01*
X12310Y-10176D01*
X12300Y-10186D01*
X12282Y-10195D01*
X12244Y-10204D01*
X12197Y-10204D01*
X12160Y-10195D01*
X12141Y-10186D01*
X12132Y-10176D01*
X12122Y-10157D01*
X12319Y-10007D02*
X12122Y-10007D01*
X12319Y-9895D02*
X12207Y-9979D01*
X12122Y-9895D02*
X12235Y-10007D01*
X17723Y-11204D02*
X17657Y-11110D01*
X17610Y-11204D02*
X17610Y-11007D01*
X17685Y-11007D01*
X17704Y-11017D01*
X17713Y-11026D01*
X17723Y-11045D01*
X17723Y-11073D01*
X17713Y-11092D01*
X17704Y-11101D01*
X17685Y-11110D01*
X17610Y-11110D01*
X17910Y-11204D02*
X17798Y-11204D01*
X17854Y-11204D02*
X17854Y-11007D01*
X17835Y-11035D01*
X17817Y-11054D01*
X17798Y-11064D01*
X18089Y-11007D02*
X17995Y-11007D01*
X17986Y-11101D01*
X17995Y-11092D01*
X18014Y-11082D01*
X18061Y-11082D01*
X18079Y-11092D01*
X18089Y-11101D01*
X18098Y-11120D01*
X18098Y-11167D01*
X18089Y-11185D01*
X18079Y-11195D01*
X18061Y-11204D01*
X18014Y-11204D01*
X17995Y-11195D01*
X17986Y-11185D01*
X17601Y-11301D02*
X17610Y-11292D01*
X17629Y-11282D01*
X17676Y-11282D01*
X17695Y-11292D01*
X17704Y-11301D01*
X17713Y-11320D01*
X17713Y-11339D01*
X17704Y-11367D01*
X17592Y-11479D01*
X17713Y-11479D01*
X17789Y-11301D02*
X17798Y-11292D01*
X17817Y-11282D01*
X17864Y-11282D01*
X17882Y-11292D01*
X17892Y-11301D01*
X17901Y-11320D01*
X17901Y-11339D01*
X17892Y-11367D01*
X17779Y-11479D01*
X17901Y-11479D01*
X17986Y-11479D02*
X17986Y-11282D01*
X18098Y-11479D02*
X18014Y-11367D01*
X18098Y-11282D02*
X17986Y-11395D01*
X19323Y-11435D02*
X19313Y-11445D01*
X19285Y-11454D01*
X19267Y-11454D01*
X19238Y-11445D01*
X19220Y-11426D01*
X19210Y-11407D01*
X19201Y-11370D01*
X19201Y-11342D01*
X19210Y-11304D01*
X19220Y-11285D01*
X19238Y-11267D01*
X19267Y-11257D01*
X19285Y-11257D01*
X19313Y-11267D01*
X19323Y-11276D01*
X19510Y-11454D02*
X19398Y-11454D01*
X19454Y-11454D02*
X19454Y-11257D01*
X19435Y-11285D01*
X19417Y-11304D01*
X19398Y-11314D01*
X19632Y-11257D02*
X19651Y-11257D01*
X19670Y-11267D01*
X19679Y-11276D01*
X19689Y-11295D01*
X19698Y-11332D01*
X19698Y-11379D01*
X19689Y-11417D01*
X19679Y-11435D01*
X19670Y-11445D01*
X19651Y-11454D01*
X19632Y-11454D01*
X19614Y-11445D01*
X19604Y-11435D01*
X19595Y-11417D01*
X19586Y-11379D01*
X19586Y-11332D01*
X19595Y-11295D01*
X19604Y-11276D01*
X19614Y-11267D01*
X19632Y-11257D01*
X19229Y-11729D02*
X19116Y-11729D01*
X19173Y-11729D02*
X19173Y-11532D01*
X19154Y-11560D01*
X19135Y-11579D01*
X19116Y-11589D01*
X19351Y-11532D02*
X19370Y-11532D01*
X19389Y-11542D01*
X19398Y-11551D01*
X19407Y-11570D01*
X19417Y-11607D01*
X19417Y-11654D01*
X19407Y-11692D01*
X19398Y-11710D01*
X19389Y-11720D01*
X19370Y-11729D01*
X19351Y-11729D01*
X19332Y-11720D01*
X19323Y-11710D01*
X19313Y-11692D01*
X19304Y-11654D01*
X19304Y-11607D01*
X19313Y-11570D01*
X19323Y-11551D01*
X19332Y-11542D01*
X19351Y-11532D01*
X19539Y-11532D02*
X19557Y-11532D01*
X19576Y-11542D01*
X19586Y-11551D01*
X19595Y-11570D01*
X19604Y-11607D01*
X19604Y-11654D01*
X19595Y-11692D01*
X19586Y-11710D01*
X19576Y-11720D01*
X19557Y-11729D01*
X19539Y-11729D01*
X19520Y-11720D01*
X19510Y-11710D01*
X19501Y-11692D01*
X19492Y-11654D01*
X19492Y-11607D01*
X19501Y-11570D01*
X19510Y-11551D01*
X19520Y-11542D01*
X19539Y-11532D01*
X19689Y-11598D02*
X19689Y-11729D01*
X19689Y-11617D02*
X19698Y-11607D01*
X19717Y-11598D01*
X19745Y-11598D01*
X19764Y-11607D01*
X19773Y-11626D01*
X19773Y-11729D01*
X15703Y-10495D02*
X15693Y-10505D01*
X15665Y-10514D01*
X15647Y-10514D01*
X15618Y-10505D01*
X15600Y-10486D01*
X15590Y-10467D01*
X15581Y-10430D01*
X15581Y-10402D01*
X15590Y-10364D01*
X15600Y-10345D01*
X15618Y-10327D01*
X15647Y-10317D01*
X15665Y-10317D01*
X15693Y-10327D01*
X15703Y-10336D01*
X15890Y-10514D02*
X15778Y-10514D01*
X15834Y-10514D02*
X15834Y-10317D01*
X15815Y-10345D01*
X15797Y-10364D01*
X15778Y-10374D01*
X16078Y-10514D02*
X15966Y-10514D01*
X16022Y-10514D02*
X16022Y-10317D01*
X16003Y-10345D01*
X15984Y-10364D01*
X15966Y-10374D01*
X15609Y-10239D02*
X15496Y-10239D01*
X15553Y-10239D02*
X15553Y-10042D01*
X15534Y-10070D01*
X15515Y-10089D01*
X15496Y-10099D01*
X15731Y-10042D02*
X15750Y-10042D01*
X15769Y-10052D01*
X15778Y-10061D01*
X15787Y-10080D01*
X15797Y-10117D01*
X15797Y-10164D01*
X15787Y-10202D01*
X15778Y-10220D01*
X15769Y-10230D01*
X15750Y-10239D01*
X15731Y-10239D01*
X15712Y-10230D01*
X15703Y-10220D01*
X15693Y-10202D01*
X15684Y-10164D01*
X15684Y-10117D01*
X15693Y-10080D01*
X15703Y-10061D01*
X15712Y-10052D01*
X15731Y-10042D01*
X15919Y-10042D02*
X15937Y-10042D01*
X15956Y-10052D01*
X15966Y-10061D01*
X15975Y-10080D01*
X15984Y-10117D01*
X15984Y-10164D01*
X15975Y-10202D01*
X15966Y-10220D01*
X15956Y-10230D01*
X15937Y-10239D01*
X15919Y-10239D01*
X15900Y-10230D01*
X15890Y-10220D01*
X15881Y-10202D01*
X15872Y-10164D01*
X15872Y-10117D01*
X15881Y-10080D01*
X15890Y-10061D01*
X15900Y-10052D01*
X15919Y-10042D01*
X16069Y-10108D02*
X16069Y-10239D01*
X16069Y-10127D02*
X16078Y-10117D01*
X16097Y-10108D01*
X16125Y-10108D01*
X16144Y-10117D01*
X16153Y-10136D01*
X16153Y-10239D01*
X15703Y-8614D02*
X15637Y-8520D01*
X15590Y-8614D02*
X15590Y-8417D01*
X15665Y-8417D01*
X15684Y-8427D01*
X15693Y-8436D01*
X15703Y-8455D01*
X15703Y-8483D01*
X15693Y-8502D01*
X15684Y-8511D01*
X15665Y-8520D01*
X15590Y-8520D01*
X15890Y-8614D02*
X15778Y-8614D01*
X15834Y-8614D02*
X15834Y-8417D01*
X15815Y-8445D01*
X15797Y-8464D01*
X15778Y-8474D01*
X16059Y-8417D02*
X16022Y-8417D01*
X16003Y-8427D01*
X15994Y-8436D01*
X15975Y-8464D01*
X15966Y-8502D01*
X15966Y-8577D01*
X15975Y-8595D01*
X15984Y-8605D01*
X16003Y-8614D01*
X16041Y-8614D01*
X16059Y-8605D01*
X16069Y-8595D01*
X16078Y-8577D01*
X16078Y-8530D01*
X16069Y-8511D01*
X16059Y-8502D01*
X16041Y-8492D01*
X16003Y-8492D01*
X15984Y-8502D01*
X15975Y-8511D01*
X15966Y-8530D01*
X15693Y-8339D02*
X15581Y-8339D01*
X15637Y-8339D02*
X15637Y-8142D01*
X15618Y-8170D01*
X15600Y-8189D01*
X15581Y-8199D01*
X15815Y-8142D02*
X15834Y-8142D01*
X15853Y-8152D01*
X15862Y-8161D01*
X15872Y-8180D01*
X15881Y-8217D01*
X15881Y-8264D01*
X15872Y-8302D01*
X15862Y-8320D01*
X15853Y-8330D01*
X15834Y-8339D01*
X15815Y-8339D01*
X15797Y-8330D01*
X15787Y-8320D01*
X15778Y-8302D01*
X15769Y-8264D01*
X15769Y-8217D01*
X15778Y-8180D01*
X15787Y-8161D01*
X15797Y-8152D01*
X15815Y-8142D01*
X15966Y-8339D02*
X15966Y-8142D01*
X16078Y-8339D02*
X15994Y-8227D01*
X16078Y-8142D02*
X15966Y-8255D01*
X15703Y-9514D02*
X15637Y-9420D01*
X15590Y-9514D02*
X15590Y-9317D01*
X15665Y-9317D01*
X15684Y-9327D01*
X15693Y-9336D01*
X15703Y-9355D01*
X15703Y-9383D01*
X15693Y-9402D01*
X15684Y-9411D01*
X15665Y-9420D01*
X15590Y-9420D01*
X15890Y-9514D02*
X15778Y-9514D01*
X15834Y-9514D02*
X15834Y-9317D01*
X15815Y-9345D01*
X15797Y-9364D01*
X15778Y-9374D01*
X15984Y-9514D02*
X16022Y-9514D01*
X16041Y-9505D01*
X16050Y-9495D01*
X16069Y-9467D01*
X16078Y-9430D01*
X16078Y-9355D01*
X16069Y-9336D01*
X16059Y-9327D01*
X16041Y-9317D01*
X16003Y-9317D01*
X15984Y-9327D01*
X15975Y-9336D01*
X15966Y-9355D01*
X15966Y-9402D01*
X15975Y-9420D01*
X15984Y-9430D01*
X16003Y-9439D01*
X16041Y-9439D01*
X16059Y-9430D01*
X16069Y-9420D01*
X16078Y-9402D01*
X15787Y-9239D02*
X15675Y-9239D01*
X15731Y-9239D02*
X15731Y-9042D01*
X15712Y-9070D01*
X15693Y-9089D01*
X15675Y-9099D01*
X15872Y-9239D02*
X15872Y-9042D01*
X15984Y-9239D02*
X15900Y-9127D01*
X15984Y-9042D02*
X15872Y-9155D01*
X19473Y-15104D02*
X19407Y-15010D01*
X19360Y-15104D02*
X19360Y-14907D01*
X19435Y-14907D01*
X19454Y-14917D01*
X19463Y-14926D01*
X19473Y-14945D01*
X19473Y-14973D01*
X19463Y-14992D01*
X19454Y-15001D01*
X19435Y-15010D01*
X19360Y-15010D01*
X19660Y-15104D02*
X19548Y-15104D01*
X19604Y-15104D02*
X19604Y-14907D01*
X19585Y-14935D01*
X19567Y-14954D01*
X19548Y-14964D01*
X19773Y-14992D02*
X19754Y-14982D01*
X19745Y-14973D01*
X19736Y-14954D01*
X19736Y-14945D01*
X19745Y-14926D01*
X19754Y-14917D01*
X19773Y-14907D01*
X19811Y-14907D01*
X19829Y-14917D01*
X19839Y-14926D01*
X19848Y-14945D01*
X19848Y-14954D01*
X19839Y-14973D01*
X19829Y-14982D01*
X19811Y-14992D01*
X19773Y-14992D01*
X19754Y-15001D01*
X19745Y-15010D01*
X19736Y-15029D01*
X19736Y-15067D01*
X19745Y-15085D01*
X19754Y-15095D01*
X19773Y-15104D01*
X19811Y-15104D01*
X19829Y-15095D01*
X19839Y-15085D01*
X19848Y-15067D01*
X19848Y-15029D01*
X19839Y-15010D01*
X19829Y-15001D01*
X19811Y-14992D01*
X19557Y-15379D02*
X19445Y-15379D01*
X19501Y-15379D02*
X19501Y-15182D01*
X19482Y-15210D01*
X19463Y-15229D01*
X19445Y-15239D01*
X19642Y-15379D02*
X19642Y-15182D01*
X19754Y-15379D02*
X19670Y-15267D01*
X19754Y-15182D02*
X19642Y-15295D01*
X18354Y-14051D02*
X18260Y-14117D01*
X18354Y-14164D02*
X18157Y-14164D01*
X18157Y-14089D01*
X18167Y-14070D01*
X18176Y-14061D01*
X18195Y-14051D01*
X18223Y-14051D01*
X18242Y-14061D01*
X18251Y-14070D01*
X18260Y-14089D01*
X18260Y-14164D01*
X18354Y-13864D02*
X18354Y-13976D01*
X18354Y-13920D02*
X18157Y-13920D01*
X18185Y-13939D01*
X18204Y-13957D01*
X18214Y-13976D01*
X18157Y-13798D02*
X18157Y-13667D01*
X18354Y-13751D01*
X18079Y-13967D02*
X18079Y-14079D01*
X18079Y-14023D02*
X17882Y-14023D01*
X17910Y-14042D01*
X17929Y-14061D01*
X17939Y-14079D01*
X18079Y-13882D02*
X17882Y-13882D01*
X18079Y-13770D02*
X17967Y-13854D01*
X17882Y-13770D02*
X17995Y-13882D01*
G54D11*
X20552Y-11878D02*
X20666Y-11878D01*
X20609Y-12078D02*
X20609Y-11878D01*
X20733Y-12078D02*
X20733Y-11878D01*
X20809Y-11878D01*
X20828Y-11888D01*
X20838Y-11898D01*
X20847Y-11917D01*
X20847Y-11945D01*
X20838Y-11964D01*
X20828Y-11974D01*
X20809Y-11983D01*
X20733Y-11983D01*
X20923Y-11898D02*
X20933Y-11888D01*
X20952Y-11878D01*
X21000Y-11878D01*
X21019Y-11888D01*
X21028Y-11898D01*
X21038Y-11917D01*
X21038Y-11936D01*
X21028Y-11964D01*
X20914Y-12078D01*
X21038Y-12078D01*
X21161Y-11878D02*
X21180Y-11878D01*
X21200Y-11888D01*
X21209Y-11898D01*
X21219Y-11917D01*
X21228Y-11955D01*
X21228Y-12002D01*
X21219Y-12040D01*
X21209Y-12059D01*
X21200Y-12069D01*
X21180Y-12078D01*
X21161Y-12078D01*
X21142Y-12069D01*
X21133Y-12059D01*
X21123Y-12040D01*
X21114Y-12002D01*
X21114Y-11955D01*
X21123Y-11917D01*
X21133Y-11898D01*
X21142Y-11888D01*
X21161Y-11878D01*
G54D15*
X20688Y-11241D02*
X20683Y-11246D01*
X20669Y-11251D01*
X20659Y-11251D01*
X20645Y-11246D01*
X20635Y-11236D01*
X20630Y-11227D01*
X20626Y-11208D01*
X20626Y-11193D01*
X20630Y-11174D01*
X20635Y-11165D01*
X20645Y-11155D01*
X20659Y-11151D01*
X20669Y-11151D01*
X20683Y-11155D01*
X20688Y-11160D01*
X20750Y-11151D02*
X20769Y-11151D01*
X20778Y-11155D01*
X20788Y-11165D01*
X20792Y-11184D01*
X20792Y-11217D01*
X20788Y-11236D01*
X20778Y-11246D01*
X20769Y-11251D01*
X20750Y-11251D01*
X20740Y-11246D01*
X20730Y-11236D01*
X20726Y-11217D01*
X20726Y-11184D01*
X20730Y-11165D01*
X20740Y-11155D01*
X20750Y-11151D01*
X20835Y-11251D02*
X20835Y-11151D01*
X20892Y-11251D01*
X20892Y-11151D01*
X20940Y-11251D02*
X20940Y-11151D01*
X20997Y-11251D01*
X20997Y-11151D01*
X21021Y-11260D02*
X21097Y-11260D01*
X21173Y-11251D02*
X21116Y-11251D01*
X21145Y-11251D02*
X21145Y-11151D01*
X21135Y-11165D01*
X21126Y-11174D01*
X21116Y-11179D01*
G54D11*
X15253Y-17022D02*
X15253Y-16908D01*
X15453Y-16965D02*
X15253Y-16965D01*
X15453Y-16841D02*
X15253Y-16841D01*
X15253Y-16765D01*
X15263Y-16746D01*
X15273Y-16736D01*
X15292Y-16727D01*
X15320Y-16727D01*
X15339Y-16736D01*
X15349Y-16746D01*
X15358Y-16765D01*
X15358Y-16841D01*
X15453Y-16536D02*
X15453Y-16651D01*
X15453Y-16594D02*
X15253Y-16594D01*
X15282Y-16613D01*
X15301Y-16632D01*
X15311Y-16651D01*
X15253Y-16355D02*
X15253Y-16451D01*
X15349Y-16460D01*
X15339Y-16451D01*
X15330Y-16432D01*
X15330Y-16384D01*
X15339Y-16365D01*
X15349Y-16355D01*
X15368Y-16346D01*
X15415Y-16346D01*
X15434Y-16355D01*
X15444Y-16365D01*
X15453Y-16384D01*
X15453Y-16432D01*
X15444Y-16451D01*
X15434Y-16460D01*
G54D15*
X14616Y-16886D02*
X14621Y-16891D01*
X14626Y-16905D01*
X14626Y-16915D01*
X14621Y-16929D01*
X14611Y-16939D01*
X14602Y-16944D01*
X14583Y-16948D01*
X14568Y-16948D01*
X14549Y-16944D01*
X14540Y-16939D01*
X14530Y-16929D01*
X14526Y-16915D01*
X14526Y-16905D01*
X14530Y-16891D01*
X14535Y-16886D01*
X14526Y-16825D02*
X14526Y-16805D01*
X14530Y-16796D01*
X14540Y-16786D01*
X14559Y-16782D01*
X14592Y-16782D01*
X14611Y-16786D01*
X14621Y-16796D01*
X14626Y-16805D01*
X14626Y-16825D01*
X14621Y-16834D01*
X14611Y-16844D01*
X14592Y-16848D01*
X14559Y-16848D01*
X14540Y-16844D01*
X14530Y-16834D01*
X14526Y-16825D01*
X14626Y-16739D02*
X14526Y-16739D01*
X14626Y-16682D01*
X14526Y-16682D01*
X14626Y-16634D02*
X14526Y-16634D01*
X14626Y-16577D01*
X14526Y-16577D01*
X14635Y-16553D02*
X14635Y-16477D01*
X14626Y-16401D02*
X14626Y-16458D01*
X14626Y-16429D02*
X14526Y-16429D01*
X14540Y-16439D01*
X14549Y-16448D01*
X14554Y-16458D01*
G54D11*
X13002Y-9068D02*
X13116Y-9068D01*
X13059Y-9268D02*
X13059Y-9068D01*
X13183Y-9268D02*
X13183Y-9068D01*
X13259Y-9068D01*
X13278Y-9078D01*
X13288Y-9088D01*
X13297Y-9107D01*
X13297Y-9135D01*
X13288Y-9154D01*
X13278Y-9164D01*
X13259Y-9173D01*
X13183Y-9173D01*
X13488Y-9268D02*
X13373Y-9268D01*
X13430Y-9268D02*
X13430Y-9068D01*
X13411Y-9097D01*
X13392Y-9116D01*
X13373Y-9126D01*
X13564Y-9088D02*
X13573Y-9078D01*
X13592Y-9068D01*
X13640Y-9068D01*
X13659Y-9078D01*
X13669Y-9088D01*
X13678Y-9107D01*
X13678Y-9126D01*
X13669Y-9154D01*
X13554Y-9268D01*
X13678Y-9268D01*
G54D15*
X13138Y-8431D02*
X13133Y-8436D01*
X13119Y-8441D01*
X13109Y-8441D01*
X13095Y-8436D01*
X13085Y-8426D01*
X13080Y-8417D01*
X13076Y-8398D01*
X13076Y-8383D01*
X13080Y-8364D01*
X13085Y-8355D01*
X13095Y-8345D01*
X13109Y-8341D01*
X13119Y-8341D01*
X13133Y-8345D01*
X13138Y-8350D01*
X13200Y-8341D02*
X13219Y-8341D01*
X13228Y-8345D01*
X13238Y-8355D01*
X13242Y-8374D01*
X13242Y-8407D01*
X13238Y-8426D01*
X13228Y-8436D01*
X13219Y-8441D01*
X13200Y-8441D01*
X13190Y-8436D01*
X13180Y-8426D01*
X13176Y-8407D01*
X13176Y-8374D01*
X13180Y-8355D01*
X13190Y-8345D01*
X13200Y-8341D01*
X13285Y-8441D02*
X13285Y-8341D01*
X13342Y-8441D01*
X13342Y-8341D01*
X13390Y-8441D02*
X13390Y-8341D01*
X13447Y-8441D01*
X13447Y-8341D01*
X13471Y-8450D02*
X13547Y-8450D01*
X13623Y-8441D02*
X13566Y-8441D01*
X13595Y-8441D02*
X13595Y-8341D01*
X13585Y-8355D01*
X13576Y-8364D01*
X13566Y-8369D01*
G54D11*
X12907Y-14778D02*
X13021Y-14778D01*
X12964Y-14978D02*
X12964Y-14778D01*
X13088Y-14978D02*
X13088Y-14778D01*
X13164Y-14778D01*
X13183Y-14788D01*
X13193Y-14798D01*
X13202Y-14817D01*
X13202Y-14845D01*
X13193Y-14864D01*
X13183Y-14874D01*
X13164Y-14883D01*
X13088Y-14883D01*
X13269Y-14778D02*
X13402Y-14778D01*
X13317Y-14978D01*
G54D15*
X12948Y-14141D02*
X12943Y-14146D01*
X12929Y-14151D01*
X12919Y-14151D01*
X12905Y-14146D01*
X12895Y-14136D01*
X12890Y-14127D01*
X12886Y-14108D01*
X12886Y-14093D01*
X12890Y-14074D01*
X12895Y-14065D01*
X12905Y-14055D01*
X12919Y-14051D01*
X12929Y-14051D01*
X12943Y-14055D01*
X12948Y-14060D01*
X13010Y-14051D02*
X13029Y-14051D01*
X13038Y-14055D01*
X13048Y-14065D01*
X13052Y-14084D01*
X13052Y-14117D01*
X13048Y-14136D01*
X13038Y-14146D01*
X13029Y-14151D01*
X13010Y-14151D01*
X13000Y-14146D01*
X12990Y-14136D01*
X12986Y-14117D01*
X12986Y-14084D01*
X12990Y-14065D01*
X13000Y-14055D01*
X13010Y-14051D01*
X13095Y-14151D02*
X13095Y-14051D01*
X13152Y-14151D01*
X13152Y-14051D01*
X13200Y-14151D02*
X13200Y-14051D01*
X13257Y-14151D01*
X13257Y-14051D01*
X13281Y-14160D02*
X13357Y-14160D01*
X13433Y-14151D02*
X13376Y-14151D01*
X13405Y-14151D02*
X13405Y-14051D01*
X13395Y-14065D01*
X13386Y-14074D01*
X13376Y-14079D01*
G54D16*
X14323Y-16080D02*
X13929Y-16080D01*
X13929Y-15987D01*
X13948Y-15930D01*
X13985Y-15893D01*
X14023Y-15874D01*
X14098Y-15855D01*
X14154Y-15855D01*
X14229Y-15874D01*
X14267Y-15893D01*
X14304Y-15930D01*
X14323Y-15987D01*
X14323Y-16080D01*
X13929Y-15724D02*
X13929Y-15480D01*
X14079Y-15611D01*
X14079Y-15555D01*
X14098Y-15517D01*
X14117Y-15499D01*
X14154Y-15480D01*
X14248Y-15480D01*
X14285Y-15499D01*
X14304Y-15517D01*
X14323Y-15555D01*
X14323Y-15668D01*
X14304Y-15705D01*
X14285Y-15724D01*
X12197Y-16568D02*
X11803Y-16568D01*
X11803Y-16474D01*
X11822Y-16418D01*
X11859Y-16380D01*
X11897Y-16362D01*
X11972Y-16343D01*
X12028Y-16343D01*
X12103Y-16362D01*
X12141Y-16380D01*
X12178Y-16418D01*
X12197Y-16474D01*
X12197Y-16568D01*
X12197Y-16174D02*
X11803Y-16174D01*
X11803Y-15911D02*
X11803Y-15836D01*
X11822Y-15799D01*
X11859Y-15761D01*
X11934Y-15743D01*
X12066Y-15743D01*
X12141Y-15761D01*
X12178Y-15799D01*
X12197Y-15836D01*
X12197Y-15911D01*
X12178Y-15949D01*
X12141Y-15987D01*
X12066Y-16005D01*
X11934Y-16005D01*
X11859Y-15987D01*
X11822Y-15949D01*
X11803Y-15911D01*
X12197Y-15574D02*
X11803Y-15574D01*
X11803Y-15480D01*
X11822Y-15424D01*
X11859Y-15386D01*
X11897Y-15367D01*
X11972Y-15349D01*
X12028Y-15349D01*
X12103Y-15367D01*
X12141Y-15386D01*
X12178Y-15424D01*
X12197Y-15480D01*
X12197Y-15574D01*
X11991Y-15180D02*
X11991Y-15048D01*
X12197Y-14992D02*
X12197Y-15180D01*
X11803Y-15180D01*
X11803Y-14992D01*
X16885Y-9890D02*
X16491Y-9890D01*
X16491Y-9797D01*
X16510Y-9740D01*
X16547Y-9703D01*
X16585Y-9684D01*
X16660Y-9665D01*
X16716Y-9665D01*
X16791Y-9684D01*
X16829Y-9703D01*
X16866Y-9740D01*
X16885Y-9797D01*
X16885Y-9890D01*
X16491Y-9309D02*
X16491Y-9496D01*
X16679Y-9515D01*
X16660Y-9496D01*
X16641Y-9459D01*
X16641Y-9365D01*
X16660Y-9327D01*
X16679Y-9309D01*
X16716Y-9290D01*
X16810Y-9290D01*
X16847Y-9309D01*
X16866Y-9327D01*
X16885Y-9365D01*
X16885Y-9459D01*
X16866Y-9496D01*
X16847Y-9515D01*
X19011Y-10378D02*
X18617Y-10378D01*
X18617Y-10284D01*
X18636Y-10228D01*
X18673Y-10190D01*
X18711Y-10172D01*
X18786Y-10153D01*
X18842Y-10153D01*
X18917Y-10172D01*
X18955Y-10190D01*
X18992Y-10228D01*
X19011Y-10284D01*
X19011Y-10378D01*
X19011Y-9984D02*
X18617Y-9984D01*
X18617Y-9721D02*
X18617Y-9646D01*
X18636Y-9609D01*
X18673Y-9571D01*
X18748Y-9553D01*
X18880Y-9553D01*
X18955Y-9571D01*
X18992Y-9609D01*
X19011Y-9646D01*
X19011Y-9721D01*
X18992Y-9759D01*
X18955Y-9797D01*
X18880Y-9815D01*
X18748Y-9815D01*
X18673Y-9797D01*
X18636Y-9759D01*
X18617Y-9721D01*
X19011Y-9384D02*
X18617Y-9384D01*
X18617Y-9290D01*
X18636Y-9234D01*
X18673Y-9196D01*
X18711Y-9177D01*
X18786Y-9159D01*
X18842Y-9159D01*
X18917Y-9177D01*
X18955Y-9196D01*
X18992Y-9234D01*
X19011Y-9290D01*
X19011Y-9384D01*
X18805Y-8990D02*
X18805Y-8858D01*
X19011Y-8802D02*
X19011Y-8990D01*
X18617Y-8990D01*
X18617Y-8802D01*
X20733Y-9890D02*
X20339Y-9890D01*
X20339Y-9797D01*
X20358Y-9740D01*
X20395Y-9703D01*
X20433Y-9684D01*
X20508Y-9665D01*
X20564Y-9665D01*
X20639Y-9684D01*
X20677Y-9703D01*
X20714Y-9740D01*
X20733Y-9797D01*
X20733Y-9890D01*
X20470Y-9327D02*
X20733Y-9327D01*
X20320Y-9421D02*
X20602Y-9515D01*
X20602Y-9271D01*
X18607Y-10378D02*
X18213Y-10378D01*
X18213Y-10284D01*
X18232Y-10228D01*
X18269Y-10190D01*
X18307Y-10172D01*
X18382Y-10153D01*
X18438Y-10153D01*
X18513Y-10172D01*
X18551Y-10190D01*
X18588Y-10228D01*
X18607Y-10284D01*
X18607Y-10378D01*
X18607Y-9984D02*
X18213Y-9984D01*
X18213Y-9721D02*
X18213Y-9646D01*
X18232Y-9609D01*
X18269Y-9571D01*
X18344Y-9553D01*
X18476Y-9553D01*
X18551Y-9571D01*
X18588Y-9609D01*
X18607Y-9646D01*
X18607Y-9721D01*
X18588Y-9759D01*
X18551Y-9797D01*
X18476Y-9815D01*
X18344Y-9815D01*
X18269Y-9797D01*
X18232Y-9759D01*
X18213Y-9721D01*
X18607Y-9384D02*
X18213Y-9384D01*
X18213Y-9290D01*
X18232Y-9234D01*
X18269Y-9196D01*
X18307Y-9177D01*
X18382Y-9159D01*
X18438Y-9159D01*
X18513Y-9177D01*
X18551Y-9196D01*
X18588Y-9234D01*
X18607Y-9290D01*
X18607Y-9384D01*
X18401Y-8990D02*
X18401Y-8858D01*
X18607Y-8802D02*
X18607Y-8990D01*
X18213Y-8990D01*
X18213Y-8802D01*
G54D10*
X14061Y-16713D02*
X14061Y-16319D01*
X14211Y-16319D01*
X14249Y-16338D01*
X14267Y-16357D01*
X14286Y-16394D01*
X14286Y-16451D01*
X14267Y-16488D01*
X14249Y-16507D01*
X14211Y-16526D01*
X14061Y-16526D01*
X14661Y-16713D02*
X14436Y-16713D01*
X14548Y-16713D02*
X14548Y-16319D01*
X14511Y-16376D01*
X14473Y-16413D01*
X14436Y-16432D01*
X15683Y-16676D02*
X15664Y-16694D01*
X15608Y-16713D01*
X15570Y-16713D01*
X15514Y-16694D01*
X15476Y-16657D01*
X15458Y-16619D01*
X15439Y-16544D01*
X15439Y-16488D01*
X15458Y-16413D01*
X15476Y-16376D01*
X15514Y-16338D01*
X15570Y-16319D01*
X15608Y-16319D01*
X15664Y-16338D01*
X15683Y-16357D01*
X15926Y-16319D02*
X16001Y-16319D01*
X16039Y-16338D01*
X16076Y-16376D01*
X16095Y-16451D01*
X16095Y-16582D01*
X16076Y-16657D01*
X16039Y-16694D01*
X16001Y-16713D01*
X15926Y-16713D01*
X15889Y-16694D01*
X15851Y-16657D01*
X15833Y-16582D01*
X15833Y-16451D01*
X15851Y-16376D01*
X15889Y-16338D01*
X15926Y-16319D01*
X16264Y-16713D02*
X16264Y-16319D01*
X16489Y-16713D01*
X16489Y-16319D01*
X16676Y-16713D02*
X16676Y-16319D01*
X16901Y-16713D01*
X16901Y-16319D01*
X16995Y-16751D02*
X17295Y-16751D01*
X17576Y-16319D02*
X17389Y-16319D01*
X17370Y-16507D01*
X17389Y-16488D01*
X17426Y-16469D01*
X17520Y-16469D01*
X17557Y-16488D01*
X17576Y-16507D01*
X17595Y-16544D01*
X17595Y-16638D01*
X17576Y-16676D01*
X17557Y-16694D01*
X17520Y-16713D01*
X17426Y-16713D01*
X17389Y-16694D01*
X17370Y-16676D01*
X13212Y-6017D02*
X13212Y-5624D01*
X13437Y-6017D02*
X13268Y-5792D01*
X13437Y-5624D02*
X13212Y-5849D01*
X13812Y-6017D02*
X13587Y-6017D01*
X13700Y-6017D02*
X13700Y-5624D01*
X13662Y-5680D01*
X13625Y-5717D01*
X13587Y-5736D01*
X14342Y-5980D02*
X14323Y-5999D01*
X14267Y-6017D01*
X14229Y-6017D01*
X14173Y-5999D01*
X14135Y-5961D01*
X14117Y-5924D01*
X14098Y-5849D01*
X14098Y-5792D01*
X14117Y-5717D01*
X14135Y-5680D01*
X14173Y-5642D01*
X14229Y-5624D01*
X14267Y-5624D01*
X14323Y-5642D01*
X14342Y-5661D01*
X14585Y-5624D02*
X14660Y-5624D01*
X14698Y-5642D01*
X14735Y-5680D01*
X14754Y-5755D01*
X14754Y-5886D01*
X14735Y-5961D01*
X14698Y-5999D01*
X14660Y-6017D01*
X14585Y-6017D01*
X14548Y-5999D01*
X14510Y-5961D01*
X14492Y-5886D01*
X14492Y-5755D01*
X14510Y-5680D01*
X14548Y-5642D01*
X14585Y-5624D01*
X14923Y-6017D02*
X14923Y-5624D01*
X15148Y-6017D01*
X15148Y-5624D01*
X15335Y-6017D02*
X15335Y-5624D01*
X15560Y-6017D01*
X15560Y-5624D01*
X15654Y-6055D02*
X15954Y-6055D01*
X16010Y-5624D02*
X16254Y-5624D01*
X16123Y-5774D01*
X16179Y-5774D01*
X16216Y-5792D01*
X16235Y-5811D01*
X16254Y-5849D01*
X16254Y-5942D01*
X16235Y-5980D01*
X16216Y-5999D01*
X16179Y-6017D01*
X16066Y-6017D01*
X16029Y-5999D01*
X16010Y-5980D01*
%LPC*%
G54D17*
X16700Y-14300D03*
X16700Y-13800D03*
X16700Y-13300D03*
X16700Y-12800D03*
X16700Y-12300D03*
X16700Y-11800D03*
X16700Y-11300D03*
X14500Y-11300D03*
X14500Y-11800D03*
X14500Y-12300D03*
X14500Y-12800D03*
X14500Y-13300D03*
X14500Y-13800D03*
X14500Y-14300D03*
G54D18*
X17385Y-7850D03*
X18135Y-7850D03*
X13725Y-12600D03*
X12975Y-12600D03*
G54D19*
X20000Y-13575D03*
X20000Y-14325D03*
X19100Y-13550D03*
X19100Y-14300D03*
G54D18*
X15145Y-15940D03*
X15895Y-15940D03*
X15180Y-15115D03*
X15930Y-15115D03*
X14745Y-8440D03*
X13995Y-8440D03*
X18875Y-12650D03*
X18125Y-12650D03*
X20775Y-12750D03*
X20025Y-12750D03*
X14745Y-9320D03*
X13995Y-9320D03*
G54D19*
X12390Y-9675D03*
X12390Y-10425D03*
G54D18*
X17475Y-11250D03*
X18225Y-11250D03*
X19075Y-11500D03*
X19825Y-11500D03*
X16205Y-10310D03*
X15455Y-10310D03*
X16205Y-8410D03*
X15455Y-8410D03*
X16205Y-9310D03*
X15455Y-9310D03*
X19225Y-15150D03*
X19975Y-15150D03*
G54D19*
X18150Y-13550D03*
X18150Y-14300D03*
G54D20*
X20900Y-11250D03*
X14625Y-16675D03*
X13350Y-8440D03*
X13160Y-14150D03*
G54D21*
X13140Y-15042D03*
X13140Y-16538D03*
X17750Y-10348D03*
X17750Y-8852D03*
X19550Y-8852D03*
X19550Y-10348D03*
G54D22*
X13860Y-17455D03*
X14853Y-17445D03*
X15857Y-17445D03*
X16861Y-17445D03*
X17865Y-17445D03*
X13700Y-6760D03*
X14693Y-6750D03*
X15697Y-6750D03*
M02*
