G04 (created by PCBNEW (2013-07-07 BZR 4022)-stable) date 12/10/2014 4:22:38 AM*
%MOIN*%
G04 Gerber Fmt 3.4, Leading zero omitted, Abs format*
%FSLAX34Y34*%
G01*
G70*
G90*
G04 APERTURE LIST*
%ADD10C,0.00590551*%
%ADD11C,0.005*%
%ADD12C,0.0039*%
%ADD13C,0.004*%
%ADD14C,0.0059*%
%ADD15C,0.0043*%
%ADD16C,0.0047*%
%ADD17C,0.0024*%
%ADD18C,0.0025*%
%ADD19R,0.05X0.025*%
%ADD20R,0.035X0.055*%
%ADD21R,0.055X0.035*%
%ADD22R,0.0866X0.063*%
%ADD23C,0.0700787*%
%ADD24R,0.0315X0.0197*%
G04 APERTURE END LIST*
G54D10*
G54D11*
X14820Y-14500D02*
X16380Y-14500D01*
X16380Y-14500D02*
X16380Y-11100D01*
X16380Y-11100D02*
X14820Y-11100D01*
X14820Y-11100D02*
X14820Y-14500D01*
X14820Y-13800D02*
X14390Y-13800D01*
X14820Y-13300D02*
X14390Y-13300D01*
X14820Y-12800D02*
X14390Y-12800D01*
X14820Y-14300D02*
X14390Y-14300D01*
X14390Y-12300D02*
X14820Y-12300D01*
X14390Y-11800D02*
X14820Y-11800D01*
X14390Y-11300D02*
X14820Y-11300D01*
X16380Y-11300D02*
X16810Y-11300D01*
X16380Y-11800D02*
X16810Y-11800D01*
X16380Y-14300D02*
X16810Y-14300D01*
X16810Y-13800D02*
X16380Y-13800D01*
X16810Y-12300D02*
X16380Y-12300D01*
X16810Y-12800D02*
X16380Y-12800D01*
X16810Y-13300D02*
X16380Y-13300D01*
X16276Y-14210D02*
G75*
G03X16276Y-14210I-186J0D01*
G74*
G01*
G54D12*
X15378Y-6929D02*
G75*
G03X15378Y-6929I-50J0D01*
G74*
G01*
X15778Y-6929D02*
X15378Y-6929D01*
X15378Y-6929D02*
X15378Y-6329D01*
X15378Y-6329D02*
X15778Y-6329D01*
X16178Y-6329D02*
X16578Y-6329D01*
X16578Y-6329D02*
X16578Y-6929D01*
X16578Y-6929D02*
X16178Y-6929D01*
X20100Y-12960D02*
G75*
G03X20100Y-12960I-50J0D01*
G74*
G01*
X20050Y-13410D02*
X20050Y-13010D01*
X20050Y-13010D02*
X20650Y-13010D01*
X20650Y-13010D02*
X20650Y-13410D01*
X20650Y-13810D02*
X20650Y-14210D01*
X20650Y-14210D02*
X20050Y-14210D01*
X20050Y-14210D02*
X20050Y-13810D01*
X18940Y-12960D02*
G75*
G03X18940Y-12960I-50J0D01*
G74*
G01*
X18890Y-13410D02*
X18890Y-13010D01*
X18890Y-13010D02*
X19490Y-13010D01*
X19490Y-13010D02*
X19490Y-13410D01*
X19490Y-13810D02*
X19490Y-14210D01*
X19490Y-14210D02*
X18890Y-14210D01*
X18890Y-14210D02*
X18890Y-13810D01*
X15890Y-15520D02*
G75*
G03X15890Y-15520I-50J0D01*
G74*
G01*
X16290Y-15520D02*
X15890Y-15520D01*
X15890Y-15520D02*
X15890Y-14920D01*
X15890Y-14920D02*
X16290Y-14920D01*
X16690Y-14920D02*
X17090Y-14920D01*
X17090Y-14920D02*
X17090Y-15520D01*
X17090Y-15520D02*
X16690Y-15520D01*
X15930Y-16550D02*
G75*
G03X15930Y-16550I-50J0D01*
G74*
G01*
X16330Y-16550D02*
X15930Y-16550D01*
X15930Y-16550D02*
X15930Y-15950D01*
X15930Y-15950D02*
X16330Y-15950D01*
X16730Y-15950D02*
X17130Y-15950D01*
X17130Y-15950D02*
X17130Y-16550D01*
X17130Y-16550D02*
X16730Y-16550D01*
X19006Y-12047D02*
G75*
G03X19006Y-12047I-50J0D01*
G74*
G01*
X18506Y-12047D02*
X18906Y-12047D01*
X18906Y-12047D02*
X18906Y-12647D01*
X18906Y-12647D02*
X18506Y-12647D01*
X18106Y-12647D02*
X17706Y-12647D01*
X17706Y-12647D02*
X17706Y-12047D01*
X17706Y-12047D02*
X18106Y-12047D01*
X20684Y-12021D02*
G75*
G03X20684Y-12021I-50J0D01*
G74*
G01*
X20184Y-12021D02*
X20584Y-12021D01*
X20584Y-12021D02*
X20584Y-12621D01*
X20584Y-12621D02*
X20184Y-12621D01*
X19784Y-12621D02*
X19384Y-12621D01*
X19384Y-12621D02*
X19384Y-12021D01*
X19384Y-12021D02*
X19784Y-12021D01*
X17369Y-6908D02*
G75*
G03X17369Y-6908I-50J0D01*
G74*
G01*
X17769Y-6908D02*
X17369Y-6908D01*
X17369Y-6908D02*
X17369Y-6308D01*
X17369Y-6308D02*
X17769Y-6308D01*
X18169Y-6308D02*
X18569Y-6308D01*
X18569Y-6308D02*
X18569Y-6908D01*
X18569Y-6908D02*
X18169Y-6908D01*
X16520Y-9190D02*
G75*
G03X16520Y-9190I-50J0D01*
G74*
G01*
X16020Y-9190D02*
X16420Y-9190D01*
X16420Y-9190D02*
X16420Y-9790D01*
X16420Y-9790D02*
X16020Y-9790D01*
X15620Y-9790D02*
X15220Y-9790D01*
X15220Y-9790D02*
X15220Y-9190D01*
X15220Y-9190D02*
X15620Y-9190D01*
X16544Y-7284D02*
G75*
G03X16544Y-7284I-50J0D01*
G74*
G01*
X16044Y-7284D02*
X16444Y-7284D01*
X16444Y-7284D02*
X16444Y-7884D01*
X16444Y-7884D02*
X16044Y-7884D01*
X15644Y-7884D02*
X15244Y-7884D01*
X15244Y-7884D02*
X15244Y-7284D01*
X15244Y-7284D02*
X15644Y-7284D01*
X16544Y-8184D02*
G75*
G03X16544Y-8184I-50J0D01*
G74*
G01*
X16044Y-8184D02*
X16444Y-8184D01*
X16444Y-8184D02*
X16444Y-8784D01*
X16444Y-8784D02*
X16044Y-8784D01*
X15644Y-8784D02*
X15244Y-8784D01*
X15244Y-8784D02*
X15244Y-8184D01*
X15244Y-8184D02*
X15644Y-8184D01*
X18620Y-15390D02*
G75*
G03X18620Y-15390I-50J0D01*
G74*
G01*
X19020Y-15390D02*
X18620Y-15390D01*
X18620Y-15390D02*
X18620Y-14790D01*
X18620Y-14790D02*
X19020Y-14790D01*
X19420Y-14790D02*
X19820Y-14790D01*
X19820Y-14790D02*
X19820Y-15390D01*
X19820Y-15390D02*
X19420Y-15390D01*
X17760Y-12960D02*
G75*
G03X17760Y-12960I-50J0D01*
G74*
G01*
X17710Y-13410D02*
X17710Y-13010D01*
X17710Y-13010D02*
X18310Y-13010D01*
X18310Y-13010D02*
X18310Y-13410D01*
X18310Y-13810D02*
X18310Y-14210D01*
X18310Y-14210D02*
X17710Y-14210D01*
X17710Y-14210D02*
X17710Y-13810D01*
G54D11*
X11370Y-12880D02*
X11370Y-12800D01*
X12120Y-12280D02*
X12120Y-14080D01*
X12120Y-14080D02*
X11870Y-14080D01*
X10620Y-13440D02*
X12120Y-13440D01*
X10620Y-13570D02*
X12120Y-13570D01*
X10870Y-12280D02*
X10620Y-12280D01*
X10620Y-12280D02*
X10620Y-14080D01*
X10620Y-14080D02*
X10870Y-14080D01*
X11870Y-12280D02*
X12120Y-12280D01*
X11370Y-13130D02*
X11557Y-12880D01*
X11557Y-12880D02*
X11370Y-12880D01*
X11370Y-12880D02*
X11183Y-12880D01*
X11183Y-12880D02*
X11370Y-13130D01*
X11370Y-13130D02*
X11495Y-13130D01*
X11495Y-13130D02*
X11557Y-13068D01*
X11370Y-13130D02*
X11245Y-13130D01*
X11245Y-13130D02*
X11183Y-13192D01*
X11370Y-13130D02*
X11370Y-13567D01*
X17954Y-9095D02*
X17954Y-9175D01*
X17204Y-9695D02*
X17204Y-7895D01*
X17204Y-7895D02*
X17454Y-7895D01*
X18704Y-8535D02*
X17204Y-8535D01*
X18704Y-8405D02*
X17204Y-8405D01*
X18454Y-9695D02*
X18704Y-9695D01*
X18704Y-9695D02*
X18704Y-7895D01*
X18704Y-7895D02*
X18454Y-7895D01*
X17454Y-9695D02*
X17204Y-9695D01*
X17954Y-8845D02*
X17767Y-9095D01*
X17767Y-9095D02*
X17954Y-9095D01*
X17954Y-9095D02*
X18141Y-9095D01*
X18141Y-9095D02*
X17954Y-8845D01*
X17954Y-8845D02*
X17829Y-8845D01*
X17829Y-8845D02*
X17767Y-8907D01*
X17954Y-8845D02*
X18079Y-8845D01*
X18079Y-8845D02*
X18141Y-8783D01*
X17954Y-8845D02*
X17954Y-8408D01*
X20118Y-7344D02*
X20118Y-7264D01*
X20868Y-6744D02*
X20868Y-8544D01*
X20868Y-8544D02*
X20618Y-8544D01*
X19368Y-7904D02*
X20868Y-7904D01*
X19368Y-8034D02*
X20868Y-8034D01*
X19618Y-6744D02*
X19368Y-6744D01*
X19368Y-6744D02*
X19368Y-8544D01*
X19368Y-8544D02*
X19618Y-8544D01*
X20618Y-6744D02*
X20868Y-6744D01*
X20118Y-7594D02*
X20305Y-7344D01*
X20305Y-7344D02*
X20118Y-7344D01*
X20118Y-7344D02*
X19931Y-7344D01*
X19931Y-7344D02*
X20118Y-7594D01*
X20118Y-7594D02*
X20243Y-7594D01*
X20243Y-7594D02*
X20305Y-7532D01*
X20118Y-7594D02*
X19993Y-7594D01*
X19993Y-7594D02*
X19931Y-7656D01*
X20118Y-7594D02*
X20118Y-8031D01*
G54D10*
X13679Y-16799D02*
X18797Y-16799D01*
X18797Y-16799D02*
X18797Y-17980D01*
X18797Y-17980D02*
X13679Y-17980D01*
X13679Y-16799D02*
X13679Y-17980D01*
G54D12*
X20439Y-10260D02*
G75*
G03X20439Y-10260I-50J0D01*
G74*
G01*
X20389Y-9810D02*
X20389Y-10210D01*
X20389Y-10210D02*
X19789Y-10210D01*
X19789Y-10210D02*
X19789Y-9810D01*
X19789Y-9410D02*
X19789Y-9010D01*
X19789Y-9010D02*
X20389Y-9010D01*
X20389Y-9010D02*
X20389Y-9410D01*
X14759Y-7581D02*
G75*
G03X14759Y-7581I-50J0D01*
G74*
G01*
X14259Y-7581D02*
X14659Y-7581D01*
X14659Y-7581D02*
X14659Y-8181D01*
X14659Y-8181D02*
X14259Y-8181D01*
X13859Y-8181D02*
X13459Y-8181D01*
X13459Y-8181D02*
X13459Y-7581D01*
X13459Y-7581D02*
X13859Y-7581D01*
X13759Y-13231D02*
G75*
G03X13759Y-13231I-50J0D01*
G74*
G01*
X13709Y-12781D02*
X13709Y-13181D01*
X13709Y-13181D02*
X13109Y-13181D01*
X13109Y-13181D02*
X13109Y-12781D01*
X13109Y-12381D02*
X13109Y-11981D01*
X13109Y-11981D02*
X13709Y-11981D01*
X13709Y-11981D02*
X13709Y-12381D01*
X11850Y-15750D02*
G75*
G03X11850Y-15750I-50J0D01*
G74*
G01*
X11350Y-15750D02*
X11750Y-15750D01*
X11750Y-15750D02*
X11750Y-16350D01*
X11750Y-16350D02*
X11350Y-16350D01*
X10950Y-16350D02*
X10550Y-16350D01*
X10550Y-16350D02*
X10550Y-15750D01*
X10550Y-15750D02*
X10950Y-15750D01*
X12580Y-17426D02*
G75*
G03X12580Y-17426I-50J0D01*
G74*
G01*
X12080Y-17426D02*
X12480Y-17426D01*
X12480Y-17426D02*
X12480Y-18026D01*
X12480Y-18026D02*
X12080Y-18026D01*
X11680Y-18026D02*
X11280Y-18026D01*
X11280Y-18026D02*
X11280Y-17426D01*
X11280Y-17426D02*
X11680Y-17426D01*
G54D13*
X12961Y-15941D02*
X12961Y-15736D01*
X12961Y-15736D02*
X12960Y-15726D01*
X12960Y-15726D02*
X12863Y-15728D01*
X12966Y-16785D02*
X12966Y-16855D01*
X12966Y-16855D02*
X12860Y-16858D01*
X12860Y-16858D02*
X12860Y-16861D01*
X12344Y-15725D02*
X12348Y-15727D01*
X12853Y-16596D02*
X12593Y-16856D01*
X12853Y-16656D02*
X12658Y-16856D01*
X12343Y-16856D02*
X12344Y-15725D01*
X12351Y-15727D02*
X12861Y-15727D01*
X12963Y-15921D02*
X12963Y-16791D01*
X12853Y-16856D02*
X12343Y-16856D01*
G54D11*
X11330Y-10960D02*
X11330Y-11040D01*
X10580Y-11560D02*
X10580Y-9760D01*
X10580Y-9760D02*
X10830Y-9760D01*
X12080Y-10400D02*
X10580Y-10400D01*
X12080Y-10270D02*
X10580Y-10270D01*
X11830Y-11560D02*
X12080Y-11560D01*
X12080Y-11560D02*
X12080Y-9760D01*
X12080Y-9760D02*
X11830Y-9760D01*
X10830Y-11560D02*
X10580Y-11560D01*
X11330Y-10710D02*
X11143Y-10960D01*
X11143Y-10960D02*
X11330Y-10960D01*
X11330Y-10960D02*
X11517Y-10960D01*
X11517Y-10960D02*
X11330Y-10710D01*
X11330Y-10710D02*
X11205Y-10710D01*
X11205Y-10710D02*
X11143Y-10772D01*
X11330Y-10710D02*
X11455Y-10710D01*
X11455Y-10710D02*
X11517Y-10648D01*
X11330Y-10710D02*
X11330Y-10273D01*
G54D14*
X15024Y-13024D02*
X15263Y-13024D01*
X15291Y-13010D01*
X15305Y-12996D01*
X15319Y-12968D01*
X15319Y-12912D01*
X15305Y-12884D01*
X15291Y-12870D01*
X15263Y-12856D01*
X15024Y-12856D01*
X15319Y-12561D02*
X15319Y-12729D01*
X15319Y-12645D02*
X15024Y-12645D01*
X15066Y-12673D01*
X15094Y-12701D01*
X15108Y-12729D01*
X16119Y-13755D02*
X15824Y-13755D01*
X16035Y-13656D01*
X15824Y-13558D01*
X16119Y-13558D01*
X16091Y-13249D02*
X16105Y-13263D01*
X16119Y-13305D01*
X16119Y-13333D01*
X16105Y-13375D01*
X16077Y-13404D01*
X16049Y-13418D01*
X15992Y-13432D01*
X15950Y-13432D01*
X15894Y-13418D01*
X15866Y-13404D01*
X15838Y-13375D01*
X15824Y-13333D01*
X15824Y-13305D01*
X15838Y-13263D01*
X15852Y-13249D01*
X16119Y-13123D02*
X15824Y-13123D01*
X15824Y-13010D01*
X15838Y-12982D01*
X15852Y-12968D01*
X15880Y-12954D01*
X15922Y-12954D01*
X15950Y-12968D01*
X15964Y-12982D01*
X15978Y-13010D01*
X15978Y-13123D01*
X15824Y-12701D02*
X15824Y-12757D01*
X15838Y-12785D01*
X15852Y-12799D01*
X15894Y-12828D01*
X15950Y-12842D01*
X16063Y-12842D01*
X16091Y-12828D01*
X16105Y-12814D01*
X16119Y-12785D01*
X16119Y-12729D01*
X16105Y-12701D01*
X16091Y-12687D01*
X16063Y-12673D01*
X15992Y-12673D01*
X15964Y-12687D01*
X15950Y-12701D01*
X15936Y-12729D01*
X15936Y-12785D01*
X15950Y-12814D01*
X15964Y-12828D01*
X15992Y-12842D01*
X15852Y-12561D02*
X15838Y-12547D01*
X15824Y-12519D01*
X15824Y-12448D01*
X15838Y-12420D01*
X15852Y-12406D01*
X15880Y-12392D01*
X15908Y-12392D01*
X15950Y-12406D01*
X16119Y-12575D01*
X16119Y-12392D01*
X15922Y-12139D02*
X16119Y-12139D01*
X15810Y-12209D02*
X16021Y-12280D01*
X16021Y-12097D01*
X15922Y-11858D02*
X16119Y-11858D01*
X15810Y-11929D02*
X16021Y-11999D01*
X16021Y-11816D01*
G54D15*
X15851Y-6583D02*
X15785Y-6489D01*
X15738Y-6583D02*
X15738Y-6386D01*
X15813Y-6386D01*
X15832Y-6396D01*
X15841Y-6405D01*
X15851Y-6424D01*
X15851Y-6452D01*
X15841Y-6471D01*
X15832Y-6480D01*
X15813Y-6489D01*
X15738Y-6489D01*
X16038Y-6583D02*
X15926Y-6583D01*
X15982Y-6583D02*
X15982Y-6386D01*
X15963Y-6414D01*
X15945Y-6433D01*
X15926Y-6443D01*
X16104Y-6386D02*
X16226Y-6386D01*
X16160Y-6461D01*
X16189Y-6461D01*
X16207Y-6471D01*
X16217Y-6480D01*
X16226Y-6499D01*
X16226Y-6546D01*
X16217Y-6564D01*
X16207Y-6574D01*
X16189Y-6583D01*
X16132Y-6583D01*
X16114Y-6574D01*
X16104Y-6564D01*
X15748Y-6858D02*
X15635Y-6858D01*
X15691Y-6858D02*
X15691Y-6661D01*
X15673Y-6689D01*
X15654Y-6708D01*
X15635Y-6718D01*
X15870Y-6661D02*
X15888Y-6661D01*
X15907Y-6671D01*
X15917Y-6680D01*
X15926Y-6699D01*
X15935Y-6736D01*
X15935Y-6783D01*
X15926Y-6821D01*
X15917Y-6839D01*
X15907Y-6849D01*
X15888Y-6858D01*
X15870Y-6858D01*
X15851Y-6849D01*
X15841Y-6839D01*
X15832Y-6821D01*
X15823Y-6783D01*
X15823Y-6736D01*
X15832Y-6699D01*
X15841Y-6680D01*
X15851Y-6671D01*
X15870Y-6661D01*
X16057Y-6661D02*
X16076Y-6661D01*
X16095Y-6671D01*
X16104Y-6680D01*
X16114Y-6699D01*
X16123Y-6736D01*
X16123Y-6783D01*
X16114Y-6821D01*
X16104Y-6839D01*
X16095Y-6849D01*
X16076Y-6858D01*
X16057Y-6858D01*
X16038Y-6849D01*
X16029Y-6839D01*
X16020Y-6821D01*
X16010Y-6783D01*
X16010Y-6736D01*
X16020Y-6699D01*
X16029Y-6680D01*
X16038Y-6671D01*
X16057Y-6661D01*
X16207Y-6858D02*
X16207Y-6661D01*
X16320Y-6858D02*
X16235Y-6746D01*
X16320Y-6661D02*
X16207Y-6774D01*
X20535Y-13736D02*
X20545Y-13746D01*
X20554Y-13774D01*
X20554Y-13792D01*
X20545Y-13821D01*
X20526Y-13839D01*
X20507Y-13849D01*
X20470Y-13858D01*
X20442Y-13858D01*
X20404Y-13849D01*
X20385Y-13839D01*
X20367Y-13821D01*
X20357Y-13792D01*
X20357Y-13774D01*
X20367Y-13746D01*
X20376Y-13736D01*
X20554Y-13549D02*
X20554Y-13661D01*
X20554Y-13605D02*
X20357Y-13605D01*
X20385Y-13624D01*
X20404Y-13642D01*
X20414Y-13661D01*
X20357Y-13483D02*
X20357Y-13361D01*
X20432Y-13427D01*
X20432Y-13398D01*
X20442Y-13380D01*
X20451Y-13370D01*
X20470Y-13361D01*
X20517Y-13361D01*
X20535Y-13370D01*
X20545Y-13380D01*
X20554Y-13398D01*
X20554Y-13455D01*
X20545Y-13473D01*
X20535Y-13483D01*
X20260Y-13792D02*
X20270Y-13783D01*
X20279Y-13792D01*
X20270Y-13802D01*
X20260Y-13792D01*
X20279Y-13792D01*
X20279Y-13595D02*
X20279Y-13708D01*
X20279Y-13652D02*
X20082Y-13652D01*
X20110Y-13670D01*
X20129Y-13689D01*
X20139Y-13708D01*
X20148Y-13427D02*
X20279Y-13427D01*
X20148Y-13511D02*
X20251Y-13511D01*
X20270Y-13502D01*
X20279Y-13483D01*
X20279Y-13455D01*
X20270Y-13436D01*
X20260Y-13427D01*
X19375Y-13736D02*
X19385Y-13746D01*
X19394Y-13774D01*
X19394Y-13792D01*
X19385Y-13821D01*
X19366Y-13839D01*
X19347Y-13849D01*
X19310Y-13858D01*
X19282Y-13858D01*
X19244Y-13849D01*
X19225Y-13839D01*
X19207Y-13821D01*
X19197Y-13792D01*
X19197Y-13774D01*
X19207Y-13746D01*
X19216Y-13736D01*
X19394Y-13549D02*
X19394Y-13661D01*
X19394Y-13605D02*
X19197Y-13605D01*
X19225Y-13624D01*
X19244Y-13642D01*
X19254Y-13661D01*
X19216Y-13473D02*
X19207Y-13464D01*
X19197Y-13445D01*
X19197Y-13398D01*
X19207Y-13380D01*
X19216Y-13370D01*
X19235Y-13361D01*
X19254Y-13361D01*
X19282Y-13370D01*
X19394Y-13483D01*
X19394Y-13361D01*
X19100Y-13792D02*
X19110Y-13783D01*
X19119Y-13792D01*
X19110Y-13802D01*
X19100Y-13792D01*
X19119Y-13792D01*
X19119Y-13595D02*
X19119Y-13708D01*
X19119Y-13652D02*
X18922Y-13652D01*
X18950Y-13670D01*
X18969Y-13689D01*
X18979Y-13708D01*
X18988Y-13427D02*
X19119Y-13427D01*
X18988Y-13511D02*
X19091Y-13511D01*
X19110Y-13502D01*
X19119Y-13483D01*
X19119Y-13455D01*
X19110Y-13436D01*
X19100Y-13427D01*
X16457Y-15155D02*
X16447Y-15165D01*
X16419Y-15174D01*
X16400Y-15174D01*
X16372Y-15165D01*
X16353Y-15146D01*
X16344Y-15127D01*
X16335Y-15090D01*
X16335Y-15062D01*
X16344Y-15024D01*
X16353Y-15005D01*
X16372Y-14987D01*
X16400Y-14977D01*
X16419Y-14977D01*
X16447Y-14987D01*
X16457Y-14996D01*
X16522Y-14977D02*
X16644Y-14977D01*
X16579Y-15052D01*
X16607Y-15052D01*
X16626Y-15062D01*
X16635Y-15071D01*
X16644Y-15090D01*
X16644Y-15137D01*
X16635Y-15155D01*
X16626Y-15165D01*
X16607Y-15174D01*
X16550Y-15174D01*
X16532Y-15165D01*
X16522Y-15155D01*
X16457Y-15449D02*
X16344Y-15449D01*
X16400Y-15449D02*
X16400Y-15252D01*
X16382Y-15280D01*
X16363Y-15299D01*
X16344Y-15309D01*
X16626Y-15318D02*
X16626Y-15449D01*
X16541Y-15318D02*
X16541Y-15421D01*
X16550Y-15440D01*
X16569Y-15449D01*
X16597Y-15449D01*
X16616Y-15440D01*
X16626Y-15430D01*
X16403Y-16204D02*
X16337Y-16110D01*
X16290Y-16204D02*
X16290Y-16007D01*
X16365Y-16007D01*
X16384Y-16017D01*
X16393Y-16026D01*
X16403Y-16045D01*
X16403Y-16073D01*
X16393Y-16092D01*
X16384Y-16101D01*
X16365Y-16110D01*
X16290Y-16110D01*
X16590Y-16204D02*
X16478Y-16204D01*
X16534Y-16204D02*
X16534Y-16007D01*
X16515Y-16035D01*
X16497Y-16054D01*
X16478Y-16064D01*
X16712Y-16007D02*
X16731Y-16007D01*
X16750Y-16017D01*
X16759Y-16026D01*
X16769Y-16045D01*
X16778Y-16082D01*
X16778Y-16129D01*
X16769Y-16167D01*
X16759Y-16185D01*
X16750Y-16195D01*
X16731Y-16204D01*
X16712Y-16204D01*
X16694Y-16195D01*
X16684Y-16185D01*
X16675Y-16167D01*
X16666Y-16129D01*
X16666Y-16082D01*
X16675Y-16045D01*
X16684Y-16026D01*
X16694Y-16017D01*
X16712Y-16007D01*
X16393Y-16479D02*
X16281Y-16479D01*
X16337Y-16479D02*
X16337Y-16282D01*
X16318Y-16310D01*
X16300Y-16329D01*
X16281Y-16339D01*
X16515Y-16282D02*
X16534Y-16282D01*
X16553Y-16292D01*
X16562Y-16301D01*
X16572Y-16320D01*
X16581Y-16357D01*
X16581Y-16404D01*
X16572Y-16442D01*
X16562Y-16460D01*
X16553Y-16470D01*
X16534Y-16479D01*
X16515Y-16479D01*
X16497Y-16470D01*
X16487Y-16460D01*
X16478Y-16442D01*
X16469Y-16404D01*
X16469Y-16357D01*
X16478Y-16320D01*
X16487Y-16301D01*
X16497Y-16292D01*
X16515Y-16282D01*
X16666Y-16479D02*
X16666Y-16282D01*
X16778Y-16479D02*
X16694Y-16367D01*
X16778Y-16282D02*
X16666Y-16395D01*
X18179Y-12551D02*
X18113Y-12457D01*
X18066Y-12551D02*
X18066Y-12354D01*
X18141Y-12354D01*
X18160Y-12364D01*
X18169Y-12373D01*
X18179Y-12392D01*
X18179Y-12420D01*
X18169Y-12439D01*
X18160Y-12448D01*
X18141Y-12457D01*
X18066Y-12457D01*
X18366Y-12551D02*
X18254Y-12551D01*
X18310Y-12551D02*
X18310Y-12354D01*
X18291Y-12382D01*
X18273Y-12401D01*
X18254Y-12411D01*
X18535Y-12420D02*
X18535Y-12551D01*
X18488Y-12345D02*
X18442Y-12486D01*
X18563Y-12486D01*
X18263Y-12276D02*
X18151Y-12276D01*
X18207Y-12276D02*
X18207Y-12079D01*
X18188Y-12107D01*
X18169Y-12126D01*
X18151Y-12136D01*
X18348Y-12276D02*
X18348Y-12079D01*
X18460Y-12276D02*
X18376Y-12164D01*
X18460Y-12079D02*
X18348Y-12192D01*
X19951Y-12506D02*
X19941Y-12516D01*
X19913Y-12525D01*
X19894Y-12525D01*
X19866Y-12516D01*
X19847Y-12497D01*
X19838Y-12478D01*
X19829Y-12441D01*
X19829Y-12413D01*
X19838Y-12375D01*
X19847Y-12356D01*
X19866Y-12338D01*
X19894Y-12328D01*
X19913Y-12328D01*
X19941Y-12338D01*
X19951Y-12347D01*
X20044Y-12525D02*
X20082Y-12525D01*
X20101Y-12516D01*
X20110Y-12506D01*
X20129Y-12478D01*
X20138Y-12441D01*
X20138Y-12366D01*
X20129Y-12347D01*
X20120Y-12338D01*
X20101Y-12328D01*
X20063Y-12328D01*
X20044Y-12338D01*
X20035Y-12347D01*
X20026Y-12366D01*
X20026Y-12413D01*
X20035Y-12431D01*
X20044Y-12441D01*
X20063Y-12450D01*
X20101Y-12450D01*
X20120Y-12441D01*
X20129Y-12431D01*
X20138Y-12413D01*
X19763Y-12250D02*
X19650Y-12250D01*
X19707Y-12250D02*
X19707Y-12053D01*
X19688Y-12081D01*
X19669Y-12100D01*
X19650Y-12110D01*
X19885Y-12053D02*
X19904Y-12053D01*
X19923Y-12063D01*
X19932Y-12072D01*
X19941Y-12091D01*
X19951Y-12128D01*
X19951Y-12175D01*
X19941Y-12213D01*
X19932Y-12231D01*
X19923Y-12241D01*
X19904Y-12250D01*
X19885Y-12250D01*
X19866Y-12241D01*
X19857Y-12231D01*
X19847Y-12213D01*
X19838Y-12175D01*
X19838Y-12128D01*
X19847Y-12091D01*
X19857Y-12072D01*
X19866Y-12063D01*
X19885Y-12053D01*
X20073Y-12053D02*
X20091Y-12053D01*
X20110Y-12063D01*
X20120Y-12072D01*
X20129Y-12091D01*
X20138Y-12128D01*
X20138Y-12175D01*
X20129Y-12213D01*
X20120Y-12231D01*
X20110Y-12241D01*
X20091Y-12250D01*
X20073Y-12250D01*
X20054Y-12241D01*
X20044Y-12231D01*
X20035Y-12213D01*
X20026Y-12175D01*
X20026Y-12128D01*
X20035Y-12091D01*
X20044Y-12072D01*
X20054Y-12063D01*
X20073Y-12053D01*
X20223Y-12119D02*
X20223Y-12250D01*
X20223Y-12138D02*
X20232Y-12128D01*
X20251Y-12119D01*
X20279Y-12119D01*
X20298Y-12128D01*
X20307Y-12147D01*
X20307Y-12250D01*
X17842Y-6543D02*
X17832Y-6553D01*
X17804Y-6562D01*
X17786Y-6562D01*
X17757Y-6553D01*
X17739Y-6534D01*
X17729Y-6515D01*
X17720Y-6478D01*
X17720Y-6450D01*
X17729Y-6412D01*
X17739Y-6393D01*
X17757Y-6375D01*
X17786Y-6365D01*
X17804Y-6365D01*
X17832Y-6375D01*
X17842Y-6384D01*
X18029Y-6562D02*
X17917Y-6562D01*
X17973Y-6562D02*
X17973Y-6365D01*
X17954Y-6393D01*
X17936Y-6412D01*
X17917Y-6422D01*
X18151Y-6365D02*
X18170Y-6365D01*
X18189Y-6375D01*
X18198Y-6384D01*
X18208Y-6403D01*
X18217Y-6440D01*
X18217Y-6487D01*
X18208Y-6525D01*
X18198Y-6543D01*
X18189Y-6553D01*
X18170Y-6562D01*
X18151Y-6562D01*
X18133Y-6553D01*
X18123Y-6543D01*
X18114Y-6525D01*
X18105Y-6487D01*
X18105Y-6440D01*
X18114Y-6403D01*
X18123Y-6384D01*
X18133Y-6375D01*
X18151Y-6365D01*
X17748Y-6837D02*
X17635Y-6837D01*
X17692Y-6837D02*
X17692Y-6640D01*
X17673Y-6668D01*
X17654Y-6687D01*
X17635Y-6697D01*
X17870Y-6640D02*
X17889Y-6640D01*
X17908Y-6650D01*
X17917Y-6659D01*
X17926Y-6678D01*
X17936Y-6715D01*
X17936Y-6762D01*
X17926Y-6800D01*
X17917Y-6818D01*
X17908Y-6828D01*
X17889Y-6837D01*
X17870Y-6837D01*
X17851Y-6828D01*
X17842Y-6818D01*
X17832Y-6800D01*
X17823Y-6762D01*
X17823Y-6715D01*
X17832Y-6678D01*
X17842Y-6659D01*
X17851Y-6650D01*
X17870Y-6640D01*
X18058Y-6640D02*
X18076Y-6640D01*
X18095Y-6650D01*
X18105Y-6659D01*
X18114Y-6678D01*
X18123Y-6715D01*
X18123Y-6762D01*
X18114Y-6800D01*
X18105Y-6818D01*
X18095Y-6828D01*
X18076Y-6837D01*
X18058Y-6837D01*
X18039Y-6828D01*
X18029Y-6818D01*
X18020Y-6800D01*
X18011Y-6762D01*
X18011Y-6715D01*
X18020Y-6678D01*
X18029Y-6659D01*
X18039Y-6650D01*
X18058Y-6640D01*
X18208Y-6706D02*
X18208Y-6837D01*
X18208Y-6725D02*
X18217Y-6715D01*
X18236Y-6706D01*
X18264Y-6706D01*
X18283Y-6715D01*
X18292Y-6734D01*
X18292Y-6837D01*
X15693Y-9675D02*
X15683Y-9685D01*
X15655Y-9694D01*
X15637Y-9694D01*
X15608Y-9685D01*
X15590Y-9666D01*
X15580Y-9647D01*
X15571Y-9610D01*
X15571Y-9582D01*
X15580Y-9544D01*
X15590Y-9525D01*
X15608Y-9507D01*
X15637Y-9497D01*
X15655Y-9497D01*
X15683Y-9507D01*
X15693Y-9516D01*
X15880Y-9694D02*
X15768Y-9694D01*
X15824Y-9694D02*
X15824Y-9497D01*
X15805Y-9525D01*
X15787Y-9544D01*
X15768Y-9554D01*
X16068Y-9694D02*
X15956Y-9694D01*
X16012Y-9694D02*
X16012Y-9497D01*
X15993Y-9525D01*
X15974Y-9544D01*
X15956Y-9554D01*
X15599Y-9419D02*
X15486Y-9419D01*
X15543Y-9419D02*
X15543Y-9222D01*
X15524Y-9250D01*
X15505Y-9269D01*
X15486Y-9279D01*
X15721Y-9222D02*
X15740Y-9222D01*
X15759Y-9232D01*
X15768Y-9241D01*
X15777Y-9260D01*
X15787Y-9297D01*
X15787Y-9344D01*
X15777Y-9382D01*
X15768Y-9400D01*
X15759Y-9410D01*
X15740Y-9419D01*
X15721Y-9419D01*
X15702Y-9410D01*
X15693Y-9400D01*
X15683Y-9382D01*
X15674Y-9344D01*
X15674Y-9297D01*
X15683Y-9260D01*
X15693Y-9241D01*
X15702Y-9232D01*
X15721Y-9222D01*
X15909Y-9222D02*
X15927Y-9222D01*
X15946Y-9232D01*
X15956Y-9241D01*
X15965Y-9260D01*
X15974Y-9297D01*
X15974Y-9344D01*
X15965Y-9382D01*
X15956Y-9400D01*
X15946Y-9410D01*
X15927Y-9419D01*
X15909Y-9419D01*
X15890Y-9410D01*
X15880Y-9400D01*
X15871Y-9382D01*
X15862Y-9344D01*
X15862Y-9297D01*
X15871Y-9260D01*
X15880Y-9241D01*
X15890Y-9232D01*
X15909Y-9222D01*
X16059Y-9288D02*
X16059Y-9419D01*
X16059Y-9307D02*
X16068Y-9297D01*
X16087Y-9288D01*
X16115Y-9288D01*
X16134Y-9297D01*
X16143Y-9316D01*
X16143Y-9419D01*
X15717Y-7788D02*
X15651Y-7694D01*
X15604Y-7788D02*
X15604Y-7591D01*
X15679Y-7591D01*
X15698Y-7601D01*
X15707Y-7610D01*
X15717Y-7629D01*
X15717Y-7657D01*
X15707Y-7676D01*
X15698Y-7685D01*
X15679Y-7694D01*
X15604Y-7694D01*
X15904Y-7788D02*
X15792Y-7788D01*
X15848Y-7788D02*
X15848Y-7591D01*
X15829Y-7619D01*
X15811Y-7638D01*
X15792Y-7648D01*
X16073Y-7591D02*
X16036Y-7591D01*
X16017Y-7601D01*
X16008Y-7610D01*
X15989Y-7638D01*
X15980Y-7676D01*
X15980Y-7751D01*
X15989Y-7769D01*
X15998Y-7779D01*
X16017Y-7788D01*
X16055Y-7788D01*
X16073Y-7779D01*
X16083Y-7769D01*
X16092Y-7751D01*
X16092Y-7704D01*
X16083Y-7685D01*
X16073Y-7676D01*
X16055Y-7666D01*
X16017Y-7666D01*
X15998Y-7676D01*
X15989Y-7685D01*
X15980Y-7704D01*
X15707Y-7513D02*
X15595Y-7513D01*
X15651Y-7513D02*
X15651Y-7316D01*
X15632Y-7344D01*
X15614Y-7363D01*
X15595Y-7373D01*
X15829Y-7316D02*
X15848Y-7316D01*
X15867Y-7326D01*
X15876Y-7335D01*
X15886Y-7354D01*
X15895Y-7391D01*
X15895Y-7438D01*
X15886Y-7476D01*
X15876Y-7494D01*
X15867Y-7504D01*
X15848Y-7513D01*
X15829Y-7513D01*
X15811Y-7504D01*
X15801Y-7494D01*
X15792Y-7476D01*
X15783Y-7438D01*
X15783Y-7391D01*
X15792Y-7354D01*
X15801Y-7335D01*
X15811Y-7326D01*
X15829Y-7316D01*
X15980Y-7513D02*
X15980Y-7316D01*
X16092Y-7513D02*
X16008Y-7401D01*
X16092Y-7316D02*
X15980Y-7429D01*
X15717Y-8688D02*
X15651Y-8594D01*
X15604Y-8688D02*
X15604Y-8491D01*
X15679Y-8491D01*
X15698Y-8501D01*
X15707Y-8510D01*
X15717Y-8529D01*
X15717Y-8557D01*
X15707Y-8576D01*
X15698Y-8585D01*
X15679Y-8594D01*
X15604Y-8594D01*
X15904Y-8688D02*
X15792Y-8688D01*
X15848Y-8688D02*
X15848Y-8491D01*
X15829Y-8519D01*
X15811Y-8538D01*
X15792Y-8548D01*
X15998Y-8688D02*
X16036Y-8688D01*
X16055Y-8679D01*
X16064Y-8669D01*
X16083Y-8641D01*
X16092Y-8604D01*
X16092Y-8529D01*
X16083Y-8510D01*
X16073Y-8501D01*
X16055Y-8491D01*
X16017Y-8491D01*
X15998Y-8501D01*
X15989Y-8510D01*
X15980Y-8529D01*
X15980Y-8576D01*
X15989Y-8594D01*
X15998Y-8604D01*
X16017Y-8613D01*
X16055Y-8613D01*
X16073Y-8604D01*
X16083Y-8594D01*
X16092Y-8576D01*
X15801Y-8413D02*
X15689Y-8413D01*
X15745Y-8413D02*
X15745Y-8216D01*
X15726Y-8244D01*
X15707Y-8263D01*
X15689Y-8273D01*
X15886Y-8413D02*
X15886Y-8216D01*
X15998Y-8413D02*
X15914Y-8301D01*
X15998Y-8216D02*
X15886Y-8329D01*
X19093Y-15044D02*
X19027Y-14950D01*
X18980Y-15044D02*
X18980Y-14847D01*
X19055Y-14847D01*
X19074Y-14857D01*
X19083Y-14866D01*
X19093Y-14885D01*
X19093Y-14913D01*
X19083Y-14932D01*
X19074Y-14941D01*
X19055Y-14950D01*
X18980Y-14950D01*
X19280Y-15044D02*
X19168Y-15044D01*
X19224Y-15044D02*
X19224Y-14847D01*
X19205Y-14875D01*
X19187Y-14894D01*
X19168Y-14904D01*
X19393Y-14932D02*
X19374Y-14922D01*
X19365Y-14913D01*
X19356Y-14894D01*
X19356Y-14885D01*
X19365Y-14866D01*
X19374Y-14857D01*
X19393Y-14847D01*
X19431Y-14847D01*
X19449Y-14857D01*
X19459Y-14866D01*
X19468Y-14885D01*
X19468Y-14894D01*
X19459Y-14913D01*
X19449Y-14922D01*
X19431Y-14932D01*
X19393Y-14932D01*
X19374Y-14941D01*
X19365Y-14950D01*
X19356Y-14969D01*
X19356Y-15007D01*
X19365Y-15025D01*
X19374Y-15035D01*
X19393Y-15044D01*
X19431Y-15044D01*
X19449Y-15035D01*
X19459Y-15025D01*
X19468Y-15007D01*
X19468Y-14969D01*
X19459Y-14950D01*
X19449Y-14941D01*
X19431Y-14932D01*
X19177Y-15319D02*
X19065Y-15319D01*
X19121Y-15319D02*
X19121Y-15122D01*
X19102Y-15150D01*
X19083Y-15169D01*
X19065Y-15179D01*
X19262Y-15319D02*
X19262Y-15122D01*
X19374Y-15319D02*
X19290Y-15207D01*
X19374Y-15122D02*
X19262Y-15235D01*
X18214Y-13736D02*
X18120Y-13802D01*
X18214Y-13849D02*
X18017Y-13849D01*
X18017Y-13774D01*
X18027Y-13755D01*
X18036Y-13746D01*
X18055Y-13736D01*
X18083Y-13736D01*
X18102Y-13746D01*
X18111Y-13755D01*
X18120Y-13774D01*
X18120Y-13849D01*
X18214Y-13549D02*
X18214Y-13661D01*
X18214Y-13605D02*
X18017Y-13605D01*
X18045Y-13624D01*
X18064Y-13642D01*
X18074Y-13661D01*
X18017Y-13483D02*
X18017Y-13352D01*
X18214Y-13436D01*
X17939Y-13652D02*
X17939Y-13764D01*
X17939Y-13708D02*
X17742Y-13708D01*
X17770Y-13727D01*
X17789Y-13746D01*
X17799Y-13764D01*
X17939Y-13567D02*
X17742Y-13567D01*
X17939Y-13455D02*
X17827Y-13539D01*
X17742Y-13455D02*
X17855Y-13567D01*
G54D16*
X12553Y-13470D02*
X12159Y-13470D01*
X12159Y-13377D01*
X12178Y-13320D01*
X12215Y-13283D01*
X12253Y-13264D01*
X12328Y-13245D01*
X12384Y-13245D01*
X12459Y-13264D01*
X12497Y-13283D01*
X12534Y-13320D01*
X12553Y-13377D01*
X12553Y-13470D01*
X12159Y-13114D02*
X12159Y-12870D01*
X12309Y-13001D01*
X12309Y-12945D01*
X12328Y-12907D01*
X12347Y-12889D01*
X12384Y-12870D01*
X12478Y-12870D01*
X12515Y-12889D01*
X12534Y-12907D01*
X12553Y-12945D01*
X12553Y-13058D01*
X12534Y-13095D01*
X12515Y-13114D01*
X10427Y-13958D02*
X10033Y-13958D01*
X10033Y-13864D01*
X10052Y-13808D01*
X10089Y-13770D01*
X10127Y-13752D01*
X10202Y-13733D01*
X10258Y-13733D01*
X10333Y-13752D01*
X10371Y-13770D01*
X10408Y-13808D01*
X10427Y-13864D01*
X10427Y-13958D01*
X10427Y-13564D02*
X10033Y-13564D01*
X10033Y-13301D02*
X10033Y-13226D01*
X10052Y-13189D01*
X10089Y-13151D01*
X10164Y-13133D01*
X10296Y-13133D01*
X10371Y-13151D01*
X10408Y-13189D01*
X10427Y-13226D01*
X10427Y-13301D01*
X10408Y-13339D01*
X10371Y-13377D01*
X10296Y-13395D01*
X10164Y-13395D01*
X10089Y-13377D01*
X10052Y-13339D01*
X10033Y-13301D01*
X10427Y-12964D02*
X10033Y-12964D01*
X10033Y-12870D01*
X10052Y-12814D01*
X10089Y-12776D01*
X10127Y-12757D01*
X10202Y-12739D01*
X10258Y-12739D01*
X10333Y-12757D01*
X10371Y-12776D01*
X10408Y-12814D01*
X10427Y-12870D01*
X10427Y-12964D01*
X10221Y-12570D02*
X10221Y-12438D01*
X10427Y-12382D02*
X10427Y-12570D01*
X10033Y-12570D01*
X10033Y-12382D01*
X17089Y-9085D02*
X16695Y-9085D01*
X16695Y-8992D01*
X16714Y-8935D01*
X16751Y-8898D01*
X16789Y-8879D01*
X16864Y-8860D01*
X16920Y-8860D01*
X16995Y-8879D01*
X17033Y-8898D01*
X17070Y-8935D01*
X17089Y-8992D01*
X17089Y-9085D01*
X16695Y-8504D02*
X16695Y-8691D01*
X16883Y-8710D01*
X16864Y-8691D01*
X16845Y-8654D01*
X16845Y-8560D01*
X16864Y-8522D01*
X16883Y-8504D01*
X16920Y-8485D01*
X17014Y-8485D01*
X17051Y-8504D01*
X17070Y-8522D01*
X17089Y-8560D01*
X17089Y-8654D01*
X17070Y-8691D01*
X17051Y-8710D01*
X19215Y-9573D02*
X18821Y-9573D01*
X18821Y-9479D01*
X18840Y-9423D01*
X18877Y-9385D01*
X18915Y-9367D01*
X18990Y-9348D01*
X19046Y-9348D01*
X19121Y-9367D01*
X19159Y-9385D01*
X19196Y-9423D01*
X19215Y-9479D01*
X19215Y-9573D01*
X19215Y-9179D02*
X18821Y-9179D01*
X18821Y-8916D02*
X18821Y-8841D01*
X18840Y-8804D01*
X18877Y-8766D01*
X18952Y-8748D01*
X19084Y-8748D01*
X19159Y-8766D01*
X19196Y-8804D01*
X19215Y-8841D01*
X19215Y-8916D01*
X19196Y-8954D01*
X19159Y-8992D01*
X19084Y-9010D01*
X18952Y-9010D01*
X18877Y-8992D01*
X18840Y-8954D01*
X18821Y-8916D01*
X19215Y-8579D02*
X18821Y-8579D01*
X18821Y-8485D01*
X18840Y-8429D01*
X18877Y-8391D01*
X18915Y-8372D01*
X18990Y-8354D01*
X19046Y-8354D01*
X19121Y-8372D01*
X19159Y-8391D01*
X19196Y-8429D01*
X19215Y-8485D01*
X19215Y-8579D01*
X19009Y-8185D02*
X19009Y-8053D01*
X19215Y-7997D02*
X19215Y-8185D01*
X18821Y-8185D01*
X18821Y-7997D01*
X21301Y-7934D02*
X20907Y-7934D01*
X20907Y-7841D01*
X20926Y-7784D01*
X20963Y-7747D01*
X21001Y-7728D01*
X21076Y-7709D01*
X21132Y-7709D01*
X21207Y-7728D01*
X21245Y-7747D01*
X21282Y-7784D01*
X21301Y-7841D01*
X21301Y-7934D01*
X21038Y-7371D02*
X21301Y-7371D01*
X20888Y-7465D02*
X21170Y-7559D01*
X21170Y-7315D01*
X19175Y-8422D02*
X18781Y-8422D01*
X18781Y-8328D01*
X18800Y-8272D01*
X18837Y-8234D01*
X18875Y-8216D01*
X18950Y-8197D01*
X19006Y-8197D01*
X19081Y-8216D01*
X19119Y-8234D01*
X19156Y-8272D01*
X19175Y-8328D01*
X19175Y-8422D01*
X19175Y-8028D02*
X18781Y-8028D01*
X18781Y-7765D02*
X18781Y-7690D01*
X18800Y-7653D01*
X18837Y-7615D01*
X18912Y-7597D01*
X19044Y-7597D01*
X19119Y-7615D01*
X19156Y-7653D01*
X19175Y-7690D01*
X19175Y-7765D01*
X19156Y-7803D01*
X19119Y-7841D01*
X19044Y-7859D01*
X18912Y-7859D01*
X18837Y-7841D01*
X18800Y-7803D01*
X18781Y-7765D01*
X19175Y-7428D02*
X18781Y-7428D01*
X18781Y-7334D01*
X18800Y-7278D01*
X18837Y-7240D01*
X18875Y-7221D01*
X18950Y-7203D01*
X19006Y-7203D01*
X19081Y-7221D01*
X19119Y-7240D01*
X19156Y-7278D01*
X19175Y-7334D01*
X19175Y-7428D01*
X18969Y-7034D02*
X18969Y-6902D01*
X19175Y-6846D02*
X19175Y-7034D01*
X18781Y-7034D01*
X18781Y-6846D01*
G54D10*
X13947Y-18420D02*
X13947Y-18026D01*
X14097Y-18026D01*
X14134Y-18045D01*
X14153Y-18064D01*
X14172Y-18101D01*
X14172Y-18157D01*
X14153Y-18195D01*
X14134Y-18214D01*
X14097Y-18232D01*
X13947Y-18232D01*
X14547Y-18420D02*
X14322Y-18420D01*
X14434Y-18420D02*
X14434Y-18026D01*
X14397Y-18082D01*
X14359Y-18120D01*
X14322Y-18139D01*
X16414Y-18391D02*
X16395Y-18410D01*
X16339Y-18429D01*
X16302Y-18429D01*
X16246Y-18410D01*
X16208Y-18373D01*
X16189Y-18335D01*
X16171Y-18260D01*
X16171Y-18204D01*
X16189Y-18129D01*
X16208Y-18091D01*
X16246Y-18054D01*
X16302Y-18035D01*
X16339Y-18035D01*
X16395Y-18054D01*
X16414Y-18073D01*
X16658Y-18035D02*
X16733Y-18035D01*
X16770Y-18054D01*
X16808Y-18091D01*
X16827Y-18166D01*
X16827Y-18298D01*
X16808Y-18373D01*
X16770Y-18410D01*
X16733Y-18429D01*
X16658Y-18429D01*
X16620Y-18410D01*
X16583Y-18373D01*
X16564Y-18298D01*
X16564Y-18166D01*
X16583Y-18091D01*
X16620Y-18054D01*
X16658Y-18035D01*
X16995Y-18429D02*
X16995Y-18035D01*
X17220Y-18429D01*
X17220Y-18035D01*
X17408Y-18429D02*
X17408Y-18035D01*
X17633Y-18429D01*
X17633Y-18035D01*
X17727Y-18466D02*
X18027Y-18466D01*
X18308Y-18035D02*
X18120Y-18035D01*
X18102Y-18223D01*
X18120Y-18204D01*
X18158Y-18185D01*
X18252Y-18185D01*
X18289Y-18204D01*
X18308Y-18223D01*
X18326Y-18260D01*
X18326Y-18354D01*
X18308Y-18391D01*
X18289Y-18410D01*
X18252Y-18429D01*
X18158Y-18429D01*
X18120Y-18410D01*
X18102Y-18391D01*
G54D15*
X20043Y-9642D02*
X19949Y-9708D01*
X20043Y-9755D02*
X19846Y-9755D01*
X19846Y-9680D01*
X19856Y-9661D01*
X19865Y-9652D01*
X19884Y-9642D01*
X19912Y-9642D01*
X19931Y-9652D01*
X19940Y-9661D01*
X19949Y-9680D01*
X19949Y-9755D01*
X19912Y-9473D02*
X20043Y-9473D01*
X19837Y-9520D02*
X19978Y-9567D01*
X19978Y-9445D01*
X20140Y-9858D02*
X20131Y-9849D01*
X20121Y-9830D01*
X20121Y-9783D01*
X20131Y-9764D01*
X20140Y-9755D01*
X20159Y-9746D01*
X20178Y-9746D01*
X20206Y-9755D01*
X20318Y-9867D01*
X20318Y-9746D01*
X20140Y-9670D02*
X20131Y-9661D01*
X20121Y-9642D01*
X20121Y-9595D01*
X20131Y-9577D01*
X20140Y-9567D01*
X20159Y-9558D01*
X20178Y-9558D01*
X20206Y-9567D01*
X20318Y-9680D01*
X20318Y-9558D01*
X20318Y-9473D02*
X20121Y-9473D01*
X20318Y-9361D02*
X20206Y-9445D01*
X20121Y-9361D02*
X20234Y-9473D01*
X14026Y-8085D02*
X13960Y-7991D01*
X13913Y-8085D02*
X13913Y-7888D01*
X13988Y-7888D01*
X14007Y-7898D01*
X14016Y-7907D01*
X14026Y-7926D01*
X14026Y-7954D01*
X14016Y-7973D01*
X14007Y-7982D01*
X13988Y-7991D01*
X13913Y-7991D01*
X14091Y-7888D02*
X14213Y-7888D01*
X14148Y-7963D01*
X14176Y-7963D01*
X14195Y-7973D01*
X14204Y-7982D01*
X14213Y-8001D01*
X14213Y-8048D01*
X14204Y-8066D01*
X14195Y-8076D01*
X14176Y-8085D01*
X14119Y-8085D01*
X14101Y-8076D01*
X14091Y-8066D01*
X13810Y-7632D02*
X13819Y-7623D01*
X13838Y-7613D01*
X13885Y-7613D01*
X13904Y-7623D01*
X13913Y-7632D01*
X13922Y-7651D01*
X13922Y-7670D01*
X13913Y-7698D01*
X13801Y-7810D01*
X13922Y-7810D01*
X13998Y-7632D02*
X14007Y-7623D01*
X14026Y-7613D01*
X14073Y-7613D01*
X14091Y-7623D01*
X14101Y-7632D01*
X14110Y-7651D01*
X14110Y-7670D01*
X14101Y-7698D01*
X13988Y-7810D01*
X14110Y-7810D01*
X14195Y-7810D02*
X14195Y-7613D01*
X14307Y-7810D02*
X14223Y-7698D01*
X14307Y-7613D02*
X14195Y-7726D01*
X13363Y-12613D02*
X13269Y-12679D01*
X13363Y-12726D02*
X13166Y-12726D01*
X13166Y-12651D01*
X13176Y-12632D01*
X13185Y-12623D01*
X13204Y-12613D01*
X13232Y-12613D01*
X13251Y-12623D01*
X13260Y-12632D01*
X13269Y-12651D01*
X13269Y-12726D01*
X13185Y-12538D02*
X13176Y-12529D01*
X13166Y-12510D01*
X13166Y-12463D01*
X13176Y-12444D01*
X13185Y-12435D01*
X13204Y-12426D01*
X13223Y-12426D01*
X13251Y-12435D01*
X13363Y-12548D01*
X13363Y-12426D01*
X13638Y-12904D02*
X13638Y-13017D01*
X13638Y-12960D02*
X13441Y-12960D01*
X13469Y-12979D01*
X13488Y-12998D01*
X13498Y-13017D01*
X13638Y-12820D02*
X13441Y-12820D01*
X13638Y-12707D02*
X13526Y-12792D01*
X13441Y-12707D02*
X13554Y-12820D01*
X13638Y-12369D02*
X13638Y-12482D01*
X13638Y-12426D02*
X13441Y-12426D01*
X13469Y-12444D01*
X13488Y-12463D01*
X13498Y-12482D01*
X13638Y-12294D02*
X13441Y-12144D01*
X13441Y-12266D02*
X13451Y-12247D01*
X13469Y-12238D01*
X13488Y-12247D01*
X13498Y-12266D01*
X13488Y-12285D01*
X13469Y-12294D01*
X13451Y-12285D01*
X13441Y-12266D01*
X13629Y-12154D02*
X13610Y-12144D01*
X13591Y-12154D01*
X13582Y-12172D01*
X13591Y-12191D01*
X13610Y-12201D01*
X13629Y-12191D01*
X13638Y-12172D01*
X13629Y-12154D01*
X11117Y-16254D02*
X11051Y-16160D01*
X11004Y-16254D02*
X11004Y-16057D01*
X11079Y-16057D01*
X11098Y-16067D01*
X11107Y-16076D01*
X11117Y-16095D01*
X11117Y-16123D01*
X11107Y-16142D01*
X11098Y-16151D01*
X11079Y-16160D01*
X11004Y-16160D01*
X11304Y-16254D02*
X11192Y-16254D01*
X11248Y-16254D02*
X11248Y-16057D01*
X11229Y-16085D01*
X11210Y-16104D01*
X11192Y-16114D01*
X11107Y-15979D02*
X10995Y-15979D01*
X11051Y-15979D02*
X11051Y-15782D01*
X11032Y-15810D01*
X11013Y-15829D01*
X10995Y-15839D01*
X11192Y-15979D02*
X11192Y-15782D01*
X11304Y-15979D02*
X11220Y-15867D01*
X11304Y-15782D02*
X11192Y-15895D01*
X11847Y-17911D02*
X11837Y-17921D01*
X11809Y-17930D01*
X11790Y-17930D01*
X11762Y-17921D01*
X11743Y-17902D01*
X11734Y-17883D01*
X11725Y-17846D01*
X11725Y-17818D01*
X11734Y-17780D01*
X11743Y-17761D01*
X11762Y-17743D01*
X11790Y-17733D01*
X11809Y-17733D01*
X11837Y-17743D01*
X11847Y-17752D01*
X12034Y-17930D02*
X11922Y-17930D01*
X11978Y-17930D02*
X11978Y-17733D01*
X11959Y-17761D01*
X11940Y-17780D01*
X11922Y-17790D01*
X11697Y-17636D02*
X11706Y-17646D01*
X11697Y-17655D01*
X11687Y-17646D01*
X11697Y-17636D01*
X11697Y-17655D01*
X11894Y-17655D02*
X11781Y-17655D01*
X11837Y-17655D02*
X11837Y-17458D01*
X11819Y-17486D01*
X11800Y-17505D01*
X11781Y-17515D01*
X12062Y-17524D02*
X12062Y-17655D01*
X11978Y-17524D02*
X11978Y-17627D01*
X11987Y-17646D01*
X12006Y-17655D01*
X12034Y-17655D01*
X12053Y-17646D01*
X12062Y-17636D01*
G54D17*
X12810Y-16769D02*
X12906Y-16769D01*
X12917Y-16764D01*
X12923Y-16758D01*
X12928Y-16747D01*
X12928Y-16724D01*
X12923Y-16713D01*
X12917Y-16708D01*
X12906Y-16702D01*
X12810Y-16702D01*
X12822Y-16651D02*
X12816Y-16646D01*
X12810Y-16635D01*
X12810Y-16606D01*
X12816Y-16595D01*
X12822Y-16590D01*
X12833Y-16584D01*
X12844Y-16584D01*
X12861Y-16590D01*
X12928Y-16657D01*
X12928Y-16584D01*
X13086Y-17062D02*
X12968Y-17062D01*
X13053Y-17022D01*
X12968Y-16983D01*
X13086Y-16983D01*
X13075Y-16859D02*
X13081Y-16865D01*
X13086Y-16882D01*
X13086Y-16893D01*
X13081Y-16910D01*
X13069Y-16921D01*
X13058Y-16927D01*
X13036Y-16932D01*
X13019Y-16932D01*
X12996Y-16927D01*
X12985Y-16921D01*
X12974Y-16910D01*
X12968Y-16893D01*
X12968Y-16882D01*
X12974Y-16865D01*
X12980Y-16859D01*
X13086Y-16809D02*
X12968Y-16809D01*
X12968Y-16764D01*
X12974Y-16753D01*
X12980Y-16747D01*
X12991Y-16741D01*
X13008Y-16741D01*
X13019Y-16747D01*
X13024Y-16753D01*
X13030Y-16764D01*
X13030Y-16809D01*
X12968Y-16640D02*
X12968Y-16663D01*
X12974Y-16674D01*
X12980Y-16680D01*
X12996Y-16691D01*
X13019Y-16696D01*
X13064Y-16696D01*
X13075Y-16691D01*
X13081Y-16685D01*
X13086Y-16674D01*
X13086Y-16651D01*
X13081Y-16640D01*
X13075Y-16635D01*
X13064Y-16629D01*
X13036Y-16629D01*
X13024Y-16635D01*
X13019Y-16640D01*
X13013Y-16651D01*
X13013Y-16674D01*
X13019Y-16685D01*
X13024Y-16691D01*
X13036Y-16696D01*
X12980Y-16584D02*
X12974Y-16578D01*
X12968Y-16567D01*
X12968Y-16539D01*
X12974Y-16528D01*
X12980Y-16522D01*
X12991Y-16517D01*
X13002Y-16517D01*
X13019Y-16522D01*
X13086Y-16590D01*
X13086Y-16517D01*
X13008Y-16415D02*
X13086Y-16415D01*
X12963Y-16444D02*
X13047Y-16472D01*
X13047Y-16399D01*
X13086Y-16292D02*
X13086Y-16359D01*
X13086Y-16325D02*
X12968Y-16325D01*
X12985Y-16337D01*
X12996Y-16348D01*
X13002Y-16359D01*
G54D18*
X19245Y-11539D02*
X19302Y-11539D01*
X19273Y-11639D02*
X19273Y-11539D01*
X19335Y-11639D02*
X19335Y-11539D01*
X19373Y-11539D01*
X19383Y-11544D01*
X19388Y-11549D01*
X19392Y-11558D01*
X19392Y-11572D01*
X19388Y-11582D01*
X19383Y-11587D01*
X19373Y-11592D01*
X19335Y-11592D01*
X19430Y-11549D02*
X19435Y-11544D01*
X19445Y-11539D01*
X19469Y-11539D01*
X19478Y-11544D01*
X19483Y-11549D01*
X19488Y-11558D01*
X19488Y-11568D01*
X19483Y-11582D01*
X19426Y-11639D01*
X19488Y-11639D01*
X19549Y-11539D02*
X19559Y-11539D01*
X19569Y-11544D01*
X19573Y-11549D01*
X19578Y-11558D01*
X19583Y-11577D01*
X19583Y-11601D01*
X19578Y-11620D01*
X19573Y-11630D01*
X19569Y-11634D01*
X19559Y-11639D01*
X19549Y-11639D01*
X19540Y-11634D01*
X19535Y-11630D01*
X19530Y-11620D01*
X19526Y-11601D01*
X19526Y-11577D01*
X19530Y-11558D01*
X19535Y-11549D01*
X19540Y-11544D01*
X19549Y-11539D01*
X19207Y-10567D02*
X19202Y-10571D01*
X19188Y-10576D01*
X19178Y-10576D01*
X19164Y-10571D01*
X19154Y-10562D01*
X19149Y-10552D01*
X19145Y-10533D01*
X19145Y-10519D01*
X19149Y-10500D01*
X19154Y-10490D01*
X19164Y-10481D01*
X19178Y-10476D01*
X19188Y-10476D01*
X19202Y-10481D01*
X19207Y-10486D01*
X19269Y-10476D02*
X19288Y-10476D01*
X19297Y-10481D01*
X19307Y-10490D01*
X19311Y-10509D01*
X19311Y-10543D01*
X19307Y-10562D01*
X19297Y-10571D01*
X19288Y-10576D01*
X19269Y-10576D01*
X19259Y-10571D01*
X19249Y-10562D01*
X19245Y-10543D01*
X19245Y-10509D01*
X19249Y-10490D01*
X19259Y-10481D01*
X19269Y-10476D01*
X19354Y-10576D02*
X19354Y-10476D01*
X19411Y-10576D01*
X19411Y-10476D01*
X19459Y-10576D02*
X19459Y-10476D01*
X19516Y-10576D01*
X19516Y-10476D01*
X19540Y-10586D02*
X19616Y-10586D01*
X19692Y-10576D02*
X19635Y-10576D01*
X19664Y-10576D02*
X19664Y-10476D01*
X19654Y-10490D01*
X19645Y-10500D01*
X19635Y-10505D01*
X14147Y-10178D02*
X14204Y-10178D01*
X14175Y-10278D02*
X14175Y-10178D01*
X14237Y-10278D02*
X14237Y-10178D01*
X14275Y-10178D01*
X14285Y-10183D01*
X14290Y-10188D01*
X14294Y-10197D01*
X14294Y-10211D01*
X14290Y-10221D01*
X14285Y-10226D01*
X14275Y-10231D01*
X14237Y-10231D01*
X14390Y-10278D02*
X14332Y-10278D01*
X14361Y-10278D02*
X14361Y-10178D01*
X14351Y-10192D01*
X14342Y-10202D01*
X14332Y-10207D01*
X14428Y-10188D02*
X14432Y-10183D01*
X14442Y-10178D01*
X14466Y-10178D01*
X14475Y-10183D01*
X14480Y-10188D01*
X14485Y-10197D01*
X14485Y-10207D01*
X14480Y-10221D01*
X14423Y-10278D01*
X14485Y-10278D01*
X14109Y-9206D02*
X14104Y-9210D01*
X14090Y-9215D01*
X14080Y-9215D01*
X14066Y-9210D01*
X14056Y-9201D01*
X14051Y-9191D01*
X14047Y-9172D01*
X14047Y-9158D01*
X14051Y-9139D01*
X14056Y-9129D01*
X14066Y-9120D01*
X14080Y-9115D01*
X14090Y-9115D01*
X14104Y-9120D01*
X14109Y-9125D01*
X14171Y-9115D02*
X14190Y-9115D01*
X14199Y-9120D01*
X14209Y-9129D01*
X14213Y-9148D01*
X14213Y-9182D01*
X14209Y-9201D01*
X14199Y-9210D01*
X14190Y-9215D01*
X14171Y-9215D01*
X14161Y-9210D01*
X14151Y-9201D01*
X14147Y-9182D01*
X14147Y-9148D01*
X14151Y-9129D01*
X14161Y-9120D01*
X14171Y-9115D01*
X14256Y-9215D02*
X14256Y-9115D01*
X14313Y-9215D01*
X14313Y-9115D01*
X14361Y-9215D02*
X14361Y-9115D01*
X14418Y-9215D01*
X14418Y-9115D01*
X14442Y-9225D02*
X14518Y-9225D01*
X14594Y-9215D02*
X14537Y-9215D01*
X14566Y-9215D02*
X14566Y-9115D01*
X14556Y-9129D01*
X14547Y-9139D01*
X14537Y-9144D01*
X12524Y-10161D02*
X12581Y-10161D01*
X12553Y-10261D02*
X12553Y-10161D01*
X12615Y-10261D02*
X12615Y-10161D01*
X12653Y-10161D01*
X12662Y-10166D01*
X12667Y-10171D01*
X12672Y-10180D01*
X12672Y-10194D01*
X12667Y-10204D01*
X12662Y-10209D01*
X12653Y-10214D01*
X12615Y-10214D01*
X12767Y-10261D02*
X12710Y-10261D01*
X12739Y-10261D02*
X12739Y-10161D01*
X12729Y-10175D01*
X12720Y-10185D01*
X12710Y-10190D01*
X12439Y-9189D02*
X12434Y-9193D01*
X12420Y-9198D01*
X12410Y-9198D01*
X12396Y-9193D01*
X12386Y-9184D01*
X12381Y-9174D01*
X12377Y-9155D01*
X12377Y-9141D01*
X12381Y-9122D01*
X12386Y-9112D01*
X12396Y-9103D01*
X12410Y-9098D01*
X12420Y-9098D01*
X12434Y-9103D01*
X12439Y-9108D01*
X12501Y-9098D02*
X12520Y-9098D01*
X12529Y-9103D01*
X12539Y-9112D01*
X12543Y-9131D01*
X12543Y-9165D01*
X12539Y-9184D01*
X12529Y-9193D01*
X12520Y-9198D01*
X12501Y-9198D01*
X12491Y-9193D01*
X12481Y-9184D01*
X12477Y-9165D01*
X12477Y-9131D01*
X12481Y-9112D01*
X12491Y-9103D01*
X12501Y-9098D01*
X12586Y-9198D02*
X12586Y-9098D01*
X12643Y-9198D01*
X12643Y-9098D01*
X12691Y-9198D02*
X12691Y-9098D01*
X12748Y-9198D01*
X12748Y-9098D01*
X12772Y-9208D02*
X12848Y-9208D01*
X12924Y-9198D02*
X12867Y-9198D01*
X12896Y-9198D02*
X12896Y-9098D01*
X12886Y-9112D01*
X12877Y-9122D01*
X12867Y-9127D01*
G54D16*
X10465Y-10950D02*
X10071Y-10950D01*
X10071Y-10857D01*
X10090Y-10800D01*
X10127Y-10763D01*
X10165Y-10744D01*
X10240Y-10725D01*
X10296Y-10725D01*
X10371Y-10744D01*
X10409Y-10763D01*
X10446Y-10800D01*
X10465Y-10857D01*
X10465Y-10950D01*
X10465Y-10350D02*
X10465Y-10575D01*
X10465Y-10463D02*
X10071Y-10463D01*
X10127Y-10500D01*
X10165Y-10538D01*
X10184Y-10575D01*
X12591Y-11438D02*
X12197Y-11438D01*
X12197Y-11344D01*
X12216Y-11288D01*
X12253Y-11250D01*
X12291Y-11232D01*
X12366Y-11213D01*
X12422Y-11213D01*
X12497Y-11232D01*
X12535Y-11250D01*
X12572Y-11288D01*
X12591Y-11344D01*
X12591Y-11438D01*
X12591Y-11044D02*
X12197Y-11044D01*
X12197Y-10781D02*
X12197Y-10706D01*
X12216Y-10669D01*
X12253Y-10631D01*
X12328Y-10613D01*
X12460Y-10613D01*
X12535Y-10631D01*
X12572Y-10669D01*
X12591Y-10706D01*
X12591Y-10781D01*
X12572Y-10819D01*
X12535Y-10857D01*
X12460Y-10875D01*
X12328Y-10875D01*
X12253Y-10857D01*
X12216Y-10819D01*
X12197Y-10781D01*
X12591Y-10444D02*
X12197Y-10444D01*
X12197Y-10350D01*
X12216Y-10294D01*
X12253Y-10256D01*
X12291Y-10237D01*
X12366Y-10219D01*
X12422Y-10219D01*
X12497Y-10237D01*
X12535Y-10256D01*
X12572Y-10294D01*
X12591Y-10350D01*
X12591Y-10444D01*
X12385Y-10050D02*
X12385Y-9918D01*
X12591Y-9862D02*
X12591Y-10050D01*
X12197Y-10050D01*
X12197Y-9862D01*
%LPC*%
G54D19*
X16700Y-14300D03*
X16700Y-13800D03*
X16700Y-13300D03*
X16700Y-12800D03*
X16700Y-12300D03*
X16700Y-11800D03*
X16700Y-11300D03*
X14500Y-11300D03*
X14500Y-11800D03*
X14500Y-12300D03*
X14500Y-12800D03*
X14500Y-13300D03*
X14500Y-13800D03*
X14500Y-14300D03*
G54D20*
X15603Y-6629D03*
X16353Y-6629D03*
G54D21*
X20350Y-13235D03*
X20350Y-13985D03*
X19190Y-13235D03*
X19190Y-13985D03*
G54D20*
X16115Y-15220D03*
X16865Y-15220D03*
X16155Y-16250D03*
X16905Y-16250D03*
X18681Y-12347D03*
X17931Y-12347D03*
X20359Y-12321D03*
X19609Y-12321D03*
X17594Y-6608D03*
X18344Y-6608D03*
X16195Y-9490D03*
X15445Y-9490D03*
X16219Y-7584D03*
X15469Y-7584D03*
X16219Y-8484D03*
X15469Y-8484D03*
X18845Y-15090D03*
X19595Y-15090D03*
G54D21*
X18010Y-13235D03*
X18010Y-13985D03*
G54D22*
X11370Y-12432D03*
X11370Y-13928D03*
X17954Y-9543D03*
X17954Y-8047D03*
X20118Y-6896D03*
X20118Y-8392D03*
G54D23*
X14270Y-17405D03*
X15263Y-17395D03*
X16267Y-17395D03*
X17271Y-17395D03*
X18275Y-17395D03*
G54D21*
X20089Y-9985D03*
X20089Y-9235D03*
G54D20*
X14434Y-7881D03*
X13684Y-7881D03*
G54D21*
X13409Y-12956D03*
X13409Y-12206D03*
G54D20*
X11525Y-16050D03*
X10775Y-16050D03*
X12255Y-17726D03*
X11505Y-17726D03*
G54D24*
X12992Y-16677D03*
X12990Y-15920D03*
X12990Y-16300D03*
X12230Y-15920D03*
X12230Y-16680D03*
G54D23*
X19419Y-11048D03*
X14321Y-9687D03*
X12651Y-9670D03*
G54D22*
X11330Y-11408D03*
X11330Y-9912D03*
M02*
