G04 (created by PCBNEW (2013-07-07 BZR 4022)-stable) date 11/15/2014 10:46:49 AM*
%MOIN*%
G04 Gerber Fmt 3.4, Leading zero omitted, Abs format*
%FSLAX34Y34*%
G01*
G70*
G90*
G04 APERTURE LIST*
%ADD10C,0.00590551*%
%ADD11C,0.005*%
%ADD12C,0.0039*%
%ADD13C,0.0031*%
%ADD14C,0.0059*%
%ADD15C,0.0043*%
%ADD16C,0.0047*%
%ADD17C,0.0025*%
%ADD18R,0.02X0.03*%
%ADD19R,0.05X0.025*%
%ADD20R,0.035X0.055*%
%ADD21R,0.055X0.035*%
%ADD22R,0.0866X0.063*%
%ADD23R,0.0394X0.0315*%
%ADD24C,0.0700787*%
%ADD25R,0.0393701X0.0393701*%
G04 APERTURE END LIST*
G54D10*
G54D11*
X11683Y-12475D02*
X11683Y-11775D01*
X11683Y-11775D02*
X12883Y-11775D01*
X12883Y-11775D02*
X12883Y-12475D01*
X12883Y-12475D02*
X11683Y-12475D01*
X15940Y-15280D02*
X17500Y-15280D01*
X17500Y-15280D02*
X17500Y-11880D01*
X17500Y-11880D02*
X15940Y-11880D01*
X15940Y-11880D02*
X15940Y-15280D01*
X15940Y-14580D02*
X15510Y-14580D01*
X15940Y-14080D02*
X15510Y-14080D01*
X15940Y-13580D02*
X15510Y-13580D01*
X15940Y-15080D02*
X15510Y-15080D01*
X15510Y-13080D02*
X15940Y-13080D01*
X15510Y-12580D02*
X15940Y-12580D01*
X15510Y-12080D02*
X15940Y-12080D01*
X17500Y-12080D02*
X17930Y-12080D01*
X17500Y-12580D02*
X17930Y-12580D01*
X17500Y-15080D02*
X17930Y-15080D01*
X17930Y-14580D02*
X17500Y-14580D01*
X17930Y-13080D02*
X17500Y-13080D01*
X17930Y-13580D02*
X17500Y-13580D01*
X17930Y-14080D02*
X17500Y-14080D01*
X17396Y-14990D02*
G75*
G03X17396Y-14990I-186J0D01*
G74*
G01*
G54D12*
X14450Y-7900D02*
G75*
G03X14450Y-7900I-50J0D01*
G74*
G01*
X13950Y-7900D02*
X14350Y-7900D01*
X14350Y-7900D02*
X14350Y-8500D01*
X14350Y-8500D02*
X13950Y-8500D01*
X13550Y-8500D02*
X13150Y-8500D01*
X13150Y-8500D02*
X13150Y-7900D01*
X13150Y-7900D02*
X13550Y-7900D01*
X11650Y-10800D02*
G75*
G03X11650Y-10800I-50J0D01*
G74*
G01*
X12050Y-10800D02*
X11650Y-10800D01*
X11650Y-10800D02*
X11650Y-10200D01*
X11650Y-10200D02*
X12050Y-10200D01*
X12450Y-10200D02*
X12850Y-10200D01*
X12850Y-10200D02*
X12850Y-10800D01*
X12850Y-10800D02*
X12450Y-10800D01*
X15261Y-11437D02*
G75*
G03X15261Y-11437I-50J0D01*
G74*
G01*
X15211Y-10987D02*
X15211Y-11387D01*
X15211Y-11387D02*
X14611Y-11387D01*
X14611Y-11387D02*
X14611Y-10987D01*
X14611Y-10587D02*
X14611Y-10187D01*
X14611Y-10187D02*
X15211Y-10187D01*
X15211Y-10187D02*
X15211Y-10587D01*
X13824Y-11939D02*
G75*
G03X13824Y-11939I-50J0D01*
G74*
G01*
X13774Y-11489D02*
X13774Y-11889D01*
X13774Y-11889D02*
X13174Y-11889D01*
X13174Y-11889D02*
X13174Y-11489D01*
X13174Y-11089D02*
X13174Y-10689D01*
X13174Y-10689D02*
X13774Y-10689D01*
X13774Y-10689D02*
X13774Y-11089D01*
X15212Y-10059D02*
G75*
G03X15212Y-10059I-50J0D01*
G74*
G01*
X15162Y-9609D02*
X15162Y-10009D01*
X15162Y-10009D02*
X14562Y-10009D01*
X14562Y-10009D02*
X14562Y-9609D01*
X14562Y-9209D02*
X14562Y-8809D01*
X14562Y-8809D02*
X15162Y-8809D01*
X15162Y-8809D02*
X15162Y-9209D01*
X14582Y-11643D02*
G75*
G03X14582Y-11643I-50J0D01*
G74*
G01*
X14532Y-12093D02*
X14532Y-11693D01*
X14532Y-11693D02*
X15132Y-11693D01*
X15132Y-11693D02*
X15132Y-12093D01*
X15132Y-12493D02*
X15132Y-12893D01*
X15132Y-12893D02*
X14532Y-12893D01*
X14532Y-12893D02*
X14532Y-12493D01*
X20726Y-14033D02*
G75*
G03X20726Y-14033I-50J0D01*
G74*
G01*
X20676Y-14483D02*
X20676Y-14083D01*
X20676Y-14083D02*
X21276Y-14083D01*
X21276Y-14083D02*
X21276Y-14483D01*
X21276Y-14883D02*
X21276Y-15283D01*
X21276Y-15283D02*
X20676Y-15283D01*
X20676Y-15283D02*
X20676Y-14883D01*
X19808Y-14021D02*
G75*
G03X19808Y-14021I-50J0D01*
G74*
G01*
X19758Y-14471D02*
X19758Y-14071D01*
X19758Y-14071D02*
X20358Y-14071D01*
X20358Y-14071D02*
X20358Y-14471D01*
X20358Y-14871D02*
X20358Y-15271D01*
X20358Y-15271D02*
X19758Y-15271D01*
X19758Y-15271D02*
X19758Y-14871D01*
X13996Y-16914D02*
G75*
G03X13996Y-16914I-50J0D01*
G74*
G01*
X14396Y-16914D02*
X13996Y-16914D01*
X13996Y-16914D02*
X13996Y-16314D01*
X13996Y-16314D02*
X14396Y-16314D01*
X14796Y-16314D02*
X15196Y-16314D01*
X15196Y-16314D02*
X15196Y-16914D01*
X15196Y-16914D02*
X14796Y-16914D01*
X15797Y-16756D02*
G75*
G03X15797Y-16756I-50J0D01*
G74*
G01*
X16197Y-16756D02*
X15797Y-16756D01*
X15797Y-16756D02*
X15797Y-16156D01*
X15797Y-16156D02*
X16197Y-16156D01*
X16597Y-16156D02*
X16997Y-16156D01*
X16997Y-16156D02*
X16997Y-16756D01*
X16997Y-16756D02*
X16597Y-16756D01*
X18900Y-14010D02*
G75*
G03X18900Y-14010I-50J0D01*
G74*
G01*
X18850Y-14460D02*
X18850Y-14060D01*
X18850Y-14060D02*
X19450Y-14060D01*
X19450Y-14060D02*
X19450Y-14460D01*
X19450Y-14860D02*
X19450Y-15260D01*
X19450Y-15260D02*
X18850Y-15260D01*
X18850Y-15260D02*
X18850Y-14860D01*
X19061Y-16090D02*
G75*
G03X19061Y-16090I-50J0D01*
G74*
G01*
X19461Y-16090D02*
X19061Y-16090D01*
X19061Y-16090D02*
X19061Y-15490D01*
X19061Y-15490D02*
X19461Y-15490D01*
X19861Y-15490D02*
X20261Y-15490D01*
X20261Y-15490D02*
X20261Y-16090D01*
X20261Y-16090D02*
X19861Y-16090D01*
X17200Y-9950D02*
G75*
G03X17200Y-9950I-50J0D01*
G74*
G01*
X16700Y-9950D02*
X17100Y-9950D01*
X17100Y-9950D02*
X17100Y-10550D01*
X17100Y-10550D02*
X16700Y-10550D01*
X16300Y-10550D02*
X15900Y-10550D01*
X15900Y-10550D02*
X15900Y-9950D01*
X15900Y-9950D02*
X16300Y-9950D01*
X18150Y-10400D02*
G75*
G03X18150Y-10400I-50J0D01*
G74*
G01*
X18100Y-9950D02*
X18100Y-10350D01*
X18100Y-10350D02*
X17500Y-10350D01*
X17500Y-10350D02*
X17500Y-9950D01*
X17500Y-9550D02*
X17500Y-9150D01*
X17500Y-9150D02*
X18100Y-9150D01*
X18100Y-9150D02*
X18100Y-9550D01*
X17500Y-9150D02*
G75*
G03X17500Y-9150I-50J0D01*
G74*
G01*
X17000Y-9150D02*
X17400Y-9150D01*
X17400Y-9150D02*
X17400Y-9750D01*
X17400Y-9750D02*
X17000Y-9750D01*
X16600Y-9750D02*
X16200Y-9750D01*
X16200Y-9750D02*
X16200Y-9150D01*
X16200Y-9150D02*
X16600Y-9150D01*
X18809Y-12032D02*
G75*
G03X18809Y-12032I-50J0D01*
G74*
G01*
X19209Y-12032D02*
X18809Y-12032D01*
X18809Y-12032D02*
X18809Y-11432D01*
X18809Y-11432D02*
X19209Y-11432D01*
X19609Y-11432D02*
X20009Y-11432D01*
X20009Y-11432D02*
X20009Y-12032D01*
X20009Y-12032D02*
X19609Y-12032D01*
X18396Y-10762D02*
G75*
G03X18396Y-10762I-50J0D01*
G74*
G01*
X17896Y-10762D02*
X18296Y-10762D01*
X18296Y-10762D02*
X18296Y-11362D01*
X18296Y-11362D02*
X17896Y-11362D01*
X17496Y-11362D02*
X17096Y-11362D01*
X17096Y-11362D02*
X17096Y-10762D01*
X17096Y-10762D02*
X17496Y-10762D01*
X20581Y-12455D02*
G75*
G03X20581Y-12455I-50J0D01*
G74*
G01*
X20081Y-12455D02*
X20481Y-12455D01*
X20481Y-12455D02*
X20481Y-13055D01*
X20481Y-13055D02*
X20081Y-13055D01*
X19681Y-13055D02*
X19281Y-13055D01*
X19281Y-13055D02*
X19281Y-12455D01*
X19281Y-12455D02*
X19681Y-12455D01*
X18490Y-12302D02*
G75*
G03X18490Y-12302I-50J0D01*
G74*
G01*
X18440Y-12752D02*
X18440Y-12352D01*
X18440Y-12352D02*
X19040Y-12352D01*
X19040Y-12352D02*
X19040Y-12752D01*
X19040Y-13152D02*
X19040Y-13552D01*
X19040Y-13552D02*
X18440Y-13552D01*
X18440Y-13552D02*
X18440Y-13152D01*
X15453Y-8626D02*
G75*
G03X15453Y-8626I-50J0D01*
G74*
G01*
X15853Y-8626D02*
X15453Y-8626D01*
X15453Y-8626D02*
X15453Y-8026D01*
X15453Y-8026D02*
X15853Y-8026D01*
X16253Y-8026D02*
X16653Y-8026D01*
X16653Y-8026D02*
X16653Y-8626D01*
X16653Y-8626D02*
X16253Y-8626D01*
G54D11*
X19212Y-9818D02*
X19212Y-9738D01*
X19962Y-9218D02*
X19962Y-11018D01*
X19962Y-11018D02*
X19712Y-11018D01*
X18462Y-10378D02*
X19962Y-10378D01*
X18462Y-10508D02*
X19962Y-10508D01*
X18712Y-9218D02*
X18462Y-9218D01*
X18462Y-9218D02*
X18462Y-11018D01*
X18462Y-11018D02*
X18712Y-11018D01*
X19712Y-9218D02*
X19962Y-9218D01*
X19212Y-10068D02*
X19399Y-9818D01*
X19399Y-9818D02*
X19212Y-9818D01*
X19212Y-9818D02*
X19025Y-9818D01*
X19025Y-9818D02*
X19212Y-10068D01*
X19212Y-10068D02*
X19337Y-10068D01*
X19337Y-10068D02*
X19399Y-10006D01*
X19212Y-10068D02*
X19087Y-10068D01*
X19087Y-10068D02*
X19025Y-10130D01*
X19212Y-10068D02*
X19212Y-10505D01*
X20905Y-10418D02*
X20905Y-10498D01*
X20155Y-11018D02*
X20155Y-9218D01*
X20155Y-9218D02*
X20405Y-9218D01*
X21655Y-9858D02*
X20155Y-9858D01*
X21655Y-9728D02*
X20155Y-9728D01*
X21405Y-11018D02*
X21655Y-11018D01*
X21655Y-11018D02*
X21655Y-9218D01*
X21655Y-9218D02*
X21405Y-9218D01*
X20405Y-11018D02*
X20155Y-11018D01*
X20905Y-10168D02*
X20718Y-10418D01*
X20718Y-10418D02*
X20905Y-10418D01*
X20905Y-10418D02*
X21092Y-10418D01*
X21092Y-10418D02*
X20905Y-10168D01*
X20905Y-10168D02*
X20780Y-10168D01*
X20780Y-10168D02*
X20718Y-10230D01*
X20905Y-10168D02*
X21030Y-10168D01*
X21030Y-10168D02*
X21092Y-10106D01*
X20905Y-10168D02*
X20905Y-9731D01*
X14301Y-14473D02*
X14301Y-14553D01*
X13551Y-15073D02*
X13551Y-13273D01*
X13551Y-13273D02*
X13801Y-13273D01*
X15051Y-13913D02*
X13551Y-13913D01*
X15051Y-13783D02*
X13551Y-13783D01*
X14801Y-15073D02*
X15051Y-15073D01*
X15051Y-15073D02*
X15051Y-13273D01*
X15051Y-13273D02*
X14801Y-13273D01*
X13801Y-15073D02*
X13551Y-15073D01*
X14301Y-14223D02*
X14114Y-14473D01*
X14114Y-14473D02*
X14301Y-14473D01*
X14301Y-14473D02*
X14488Y-14473D01*
X14488Y-14473D02*
X14301Y-14223D01*
X14301Y-14223D02*
X14176Y-14223D01*
X14176Y-14223D02*
X14114Y-14285D01*
X14301Y-14223D02*
X14426Y-14223D01*
X14426Y-14223D02*
X14488Y-14161D01*
X14301Y-14223D02*
X14301Y-13786D01*
G54D13*
X13556Y-10285D02*
G75*
G03X13556Y-10285I-62J0D01*
G74*
G01*
X13156Y-9322D02*
X13556Y-9322D01*
X13156Y-10347D02*
X13556Y-10347D01*
X13556Y-9322D02*
X13556Y-10347D01*
X13156Y-10347D02*
X13156Y-9322D01*
G54D12*
X12121Y-9193D02*
G75*
G03X12121Y-9193I-50J0D01*
G74*
G01*
X12071Y-8743D02*
X12071Y-9143D01*
X12071Y-9143D02*
X11471Y-9143D01*
X11471Y-9143D02*
X11471Y-8743D01*
X11471Y-8343D02*
X11471Y-7943D01*
X11471Y-7943D02*
X12071Y-7943D01*
X12071Y-7943D02*
X12071Y-8343D01*
X12377Y-14409D02*
G75*
G03X12377Y-14409I-50J0D01*
G74*
G01*
X12327Y-13959D02*
X12327Y-14359D01*
X12327Y-14359D02*
X11727Y-14359D01*
X11727Y-14359D02*
X11727Y-13959D01*
X11727Y-13559D02*
X11727Y-13159D01*
X11727Y-13159D02*
X12327Y-13159D01*
X12327Y-13159D02*
X12327Y-13559D01*
X13751Y-15900D02*
G75*
G03X13751Y-15900I-50J0D01*
G74*
G01*
X13251Y-15900D02*
X13651Y-15900D01*
X13651Y-15900D02*
X13651Y-16500D01*
X13651Y-16500D02*
X13251Y-16500D01*
X12851Y-16500D02*
X12451Y-16500D01*
X12451Y-16500D02*
X12451Y-15900D01*
X12451Y-15900D02*
X12851Y-15900D01*
X18672Y-15979D02*
G75*
G03X18672Y-15979I-50J0D01*
G74*
G01*
X18172Y-15979D02*
X18572Y-15979D01*
X18572Y-15979D02*
X18572Y-16579D01*
X18572Y-16579D02*
X18172Y-16579D01*
X17772Y-16579D02*
X17372Y-16579D01*
X17372Y-16579D02*
X17372Y-15979D01*
X17372Y-15979D02*
X17772Y-15979D01*
X13903Y-11643D02*
G75*
G03X13903Y-11643I-50J0D01*
G74*
G01*
X13853Y-12093D02*
X13853Y-11693D01*
X13853Y-11693D02*
X14453Y-11693D01*
X14453Y-11693D02*
X14453Y-12093D01*
X14453Y-12493D02*
X14453Y-12893D01*
X14453Y-12893D02*
X13853Y-12893D01*
X13853Y-12893D02*
X13853Y-12493D01*
G54D10*
X11459Y-16909D02*
X11459Y-18090D01*
X17561Y-16909D02*
X21597Y-16909D01*
X21597Y-16909D02*
X21597Y-18090D01*
X21597Y-18090D02*
X17561Y-18090D01*
X11459Y-16909D02*
X11656Y-16909D01*
X11459Y-18090D02*
X11656Y-18090D01*
X11656Y-16909D02*
X17561Y-16909D01*
X11656Y-18090D02*
X17561Y-18090D01*
G54D12*
X12427Y-8001D02*
G75*
G03X12427Y-8001I-50J0D01*
G74*
G01*
X12377Y-8451D02*
X12377Y-8051D01*
X12377Y-8051D02*
X12977Y-8051D01*
X12977Y-8051D02*
X12977Y-8451D01*
X12977Y-8851D02*
X12977Y-9251D01*
X12977Y-9251D02*
X12377Y-9251D01*
X12377Y-9251D02*
X12377Y-8851D01*
G54D11*
X11268Y-12434D02*
X11471Y-12434D01*
X11494Y-12422D01*
X11506Y-12410D01*
X11518Y-12386D01*
X11518Y-12339D01*
X11506Y-12315D01*
X11494Y-12303D01*
X11471Y-12291D01*
X11268Y-12291D01*
X11268Y-12196D02*
X11268Y-12041D01*
X11363Y-12124D01*
X11363Y-12089D01*
X11375Y-12065D01*
X11387Y-12053D01*
X11411Y-12041D01*
X11471Y-12041D01*
X11494Y-12053D01*
X11506Y-12065D01*
X11518Y-12089D01*
X11518Y-12160D01*
X11506Y-12184D01*
X11494Y-12196D01*
X11828Y-11341D02*
X11828Y-11091D01*
X11911Y-11269D01*
X11994Y-11091D01*
X11994Y-11341D01*
X12256Y-11317D02*
X12244Y-11329D01*
X12209Y-11341D01*
X12185Y-11341D01*
X12149Y-11329D01*
X12125Y-11305D01*
X12113Y-11281D01*
X12102Y-11234D01*
X12102Y-11198D01*
X12113Y-11150D01*
X12125Y-11127D01*
X12149Y-11103D01*
X12185Y-11091D01*
X12209Y-11091D01*
X12244Y-11103D01*
X12256Y-11115D01*
X12363Y-11341D02*
X12363Y-11091D01*
X12459Y-11091D01*
X12483Y-11103D01*
X12494Y-11115D01*
X12506Y-11138D01*
X12506Y-11174D01*
X12494Y-11198D01*
X12483Y-11210D01*
X12459Y-11222D01*
X12363Y-11222D01*
X12590Y-11091D02*
X12744Y-11091D01*
X12661Y-11186D01*
X12697Y-11186D01*
X12721Y-11198D01*
X12733Y-11210D01*
X12744Y-11234D01*
X12744Y-11293D01*
X12733Y-11317D01*
X12721Y-11329D01*
X12697Y-11341D01*
X12625Y-11341D01*
X12602Y-11329D01*
X12590Y-11317D01*
X12840Y-11115D02*
X12852Y-11103D01*
X12875Y-11091D01*
X12935Y-11091D01*
X12959Y-11103D01*
X12971Y-11115D01*
X12983Y-11138D01*
X12983Y-11162D01*
X12971Y-11198D01*
X12828Y-11341D01*
X12983Y-11341D01*
X13078Y-11115D02*
X13090Y-11103D01*
X13113Y-11091D01*
X13173Y-11091D01*
X13197Y-11103D01*
X13209Y-11115D01*
X13221Y-11138D01*
X13221Y-11162D01*
X13209Y-11198D01*
X13066Y-11341D01*
X13221Y-11341D01*
X13459Y-11341D02*
X13316Y-11341D01*
X13387Y-11341D02*
X13387Y-11091D01*
X13363Y-11127D01*
X13340Y-11150D01*
X13316Y-11162D01*
G54D14*
X16144Y-13804D02*
X16383Y-13804D01*
X16411Y-13790D01*
X16425Y-13776D01*
X16439Y-13748D01*
X16439Y-13692D01*
X16425Y-13664D01*
X16411Y-13650D01*
X16383Y-13636D01*
X16144Y-13636D01*
X16439Y-13341D02*
X16439Y-13509D01*
X16439Y-13425D02*
X16144Y-13425D01*
X16186Y-13453D01*
X16214Y-13481D01*
X16228Y-13509D01*
X17239Y-14535D02*
X16944Y-14535D01*
X17155Y-14436D01*
X16944Y-14338D01*
X17239Y-14338D01*
X17211Y-14029D02*
X17225Y-14043D01*
X17239Y-14085D01*
X17239Y-14113D01*
X17225Y-14155D01*
X17197Y-14184D01*
X17169Y-14198D01*
X17112Y-14212D01*
X17070Y-14212D01*
X17014Y-14198D01*
X16986Y-14184D01*
X16958Y-14155D01*
X16944Y-14113D01*
X16944Y-14085D01*
X16958Y-14043D01*
X16972Y-14029D01*
X17239Y-13903D02*
X16944Y-13903D01*
X16944Y-13790D01*
X16958Y-13762D01*
X16972Y-13748D01*
X17000Y-13734D01*
X17042Y-13734D01*
X17070Y-13748D01*
X17084Y-13762D01*
X17098Y-13790D01*
X17098Y-13903D01*
X16944Y-13481D02*
X16944Y-13537D01*
X16958Y-13565D01*
X16972Y-13579D01*
X17014Y-13608D01*
X17070Y-13622D01*
X17183Y-13622D01*
X17211Y-13608D01*
X17225Y-13594D01*
X17239Y-13565D01*
X17239Y-13509D01*
X17225Y-13481D01*
X17211Y-13467D01*
X17183Y-13453D01*
X17112Y-13453D01*
X17084Y-13467D01*
X17070Y-13481D01*
X17056Y-13509D01*
X17056Y-13565D01*
X17070Y-13594D01*
X17084Y-13608D01*
X17112Y-13622D01*
X16972Y-13341D02*
X16958Y-13327D01*
X16944Y-13299D01*
X16944Y-13228D01*
X16958Y-13200D01*
X16972Y-13186D01*
X17000Y-13172D01*
X17028Y-13172D01*
X17070Y-13186D01*
X17239Y-13355D01*
X17239Y-13172D01*
X17042Y-12919D02*
X17239Y-12919D01*
X16930Y-12989D02*
X17141Y-13060D01*
X17141Y-12877D01*
X17042Y-12638D02*
X17239Y-12638D01*
X16930Y-12709D02*
X17141Y-12779D01*
X17141Y-12596D01*
G54D15*
X13717Y-8404D02*
X13651Y-8310D01*
X13604Y-8404D02*
X13604Y-8207D01*
X13679Y-8207D01*
X13698Y-8217D01*
X13707Y-8226D01*
X13717Y-8245D01*
X13717Y-8273D01*
X13707Y-8292D01*
X13698Y-8301D01*
X13679Y-8310D01*
X13604Y-8310D01*
X13904Y-8404D02*
X13792Y-8404D01*
X13848Y-8404D02*
X13848Y-8207D01*
X13829Y-8235D01*
X13810Y-8254D01*
X13792Y-8264D01*
X13740Y-7932D02*
X13759Y-7932D01*
X13778Y-7942D01*
X13787Y-7951D01*
X13796Y-7970D01*
X13806Y-8007D01*
X13806Y-8054D01*
X13796Y-8092D01*
X13787Y-8110D01*
X13778Y-8120D01*
X13759Y-8129D01*
X13740Y-8129D01*
X13721Y-8120D01*
X13712Y-8110D01*
X13703Y-8092D01*
X13693Y-8054D01*
X13693Y-8007D01*
X13703Y-7970D01*
X13712Y-7951D01*
X13721Y-7942D01*
X13740Y-7932D01*
X12217Y-10454D02*
X12151Y-10360D01*
X12104Y-10454D02*
X12104Y-10257D01*
X12179Y-10257D01*
X12198Y-10267D01*
X12207Y-10276D01*
X12217Y-10295D01*
X12217Y-10323D01*
X12207Y-10342D01*
X12198Y-10351D01*
X12179Y-10360D01*
X12104Y-10360D01*
X12386Y-10323D02*
X12386Y-10454D01*
X12339Y-10248D02*
X12292Y-10389D01*
X12414Y-10389D01*
X12240Y-10532D02*
X12259Y-10532D01*
X12278Y-10542D01*
X12287Y-10551D01*
X12296Y-10570D01*
X12306Y-10607D01*
X12306Y-10654D01*
X12296Y-10692D01*
X12287Y-10710D01*
X12278Y-10720D01*
X12259Y-10729D01*
X12240Y-10729D01*
X12221Y-10720D01*
X12212Y-10710D01*
X12203Y-10692D01*
X12193Y-10654D01*
X12193Y-10607D01*
X12203Y-10570D01*
X12212Y-10551D01*
X12221Y-10542D01*
X12240Y-10532D01*
X14866Y-10820D02*
X14772Y-10885D01*
X14866Y-10932D02*
X14669Y-10932D01*
X14669Y-10857D01*
X14678Y-10838D01*
X14687Y-10829D01*
X14706Y-10820D01*
X14734Y-10820D01*
X14753Y-10829D01*
X14762Y-10838D01*
X14772Y-10857D01*
X14772Y-10932D01*
X14687Y-10745D02*
X14678Y-10735D01*
X14669Y-10717D01*
X14669Y-10670D01*
X14678Y-10651D01*
X14687Y-10641D01*
X14706Y-10632D01*
X14725Y-10632D01*
X14753Y-10641D01*
X14866Y-10754D01*
X14866Y-10632D01*
X14944Y-10796D02*
X14944Y-10778D01*
X14953Y-10759D01*
X14962Y-10749D01*
X14981Y-10740D01*
X15019Y-10731D01*
X15066Y-10731D01*
X15103Y-10740D01*
X15122Y-10749D01*
X15131Y-10759D01*
X15141Y-10778D01*
X15141Y-10796D01*
X15131Y-10815D01*
X15122Y-10824D01*
X15103Y-10834D01*
X15066Y-10843D01*
X15019Y-10843D01*
X14981Y-10834D01*
X14962Y-10824D01*
X14953Y-10815D01*
X14944Y-10796D01*
X13429Y-11322D02*
X13335Y-11387D01*
X13429Y-11434D02*
X13232Y-11434D01*
X13232Y-11359D01*
X13241Y-11340D01*
X13250Y-11331D01*
X13269Y-11322D01*
X13297Y-11322D01*
X13316Y-11331D01*
X13325Y-11340D01*
X13335Y-11359D01*
X13335Y-11434D01*
X13232Y-11256D02*
X13232Y-11134D01*
X13307Y-11200D01*
X13307Y-11172D01*
X13316Y-11153D01*
X13325Y-11143D01*
X13344Y-11134D01*
X13391Y-11134D01*
X13410Y-11143D01*
X13419Y-11153D01*
X13429Y-11172D01*
X13429Y-11228D01*
X13419Y-11247D01*
X13410Y-11256D01*
X13507Y-11298D02*
X13507Y-11279D01*
X13516Y-11261D01*
X13525Y-11251D01*
X13544Y-11242D01*
X13582Y-11233D01*
X13629Y-11233D01*
X13666Y-11242D01*
X13685Y-11251D01*
X13694Y-11261D01*
X13704Y-11279D01*
X13704Y-11298D01*
X13694Y-11317D01*
X13685Y-11326D01*
X13666Y-11336D01*
X13629Y-11345D01*
X13582Y-11345D01*
X13544Y-11336D01*
X13525Y-11326D01*
X13516Y-11317D01*
X13507Y-11298D01*
X14941Y-9536D02*
X14848Y-9601D01*
X14941Y-9648D02*
X14744Y-9648D01*
X14744Y-9573D01*
X14754Y-9554D01*
X14763Y-9545D01*
X14782Y-9536D01*
X14810Y-9536D01*
X14829Y-9545D01*
X14838Y-9554D01*
X14848Y-9573D01*
X14848Y-9648D01*
X14941Y-9348D02*
X14941Y-9461D01*
X14941Y-9404D02*
X14744Y-9404D01*
X14773Y-9423D01*
X14791Y-9442D01*
X14801Y-9461D01*
X14763Y-9273D02*
X14754Y-9264D01*
X14744Y-9245D01*
X14744Y-9198D01*
X14754Y-9179D01*
X14763Y-9170D01*
X14782Y-9160D01*
X14801Y-9160D01*
X14829Y-9170D01*
X14941Y-9282D01*
X14941Y-9160D01*
X14894Y-9517D02*
X14894Y-9498D01*
X14904Y-9479D01*
X14913Y-9470D01*
X14932Y-9461D01*
X14969Y-9451D01*
X15016Y-9451D01*
X15054Y-9461D01*
X15073Y-9470D01*
X15082Y-9479D01*
X15091Y-9498D01*
X15091Y-9517D01*
X15082Y-9536D01*
X15073Y-9545D01*
X15054Y-9554D01*
X15016Y-9564D01*
X14969Y-9564D01*
X14932Y-9554D01*
X14913Y-9545D01*
X14904Y-9536D01*
X14894Y-9517D01*
X15091Y-9367D02*
X14894Y-9367D01*
X15091Y-9254D02*
X14979Y-9339D01*
X14894Y-9254D02*
X15007Y-9367D01*
X15037Y-12419D02*
X14943Y-12485D01*
X15037Y-12532D02*
X14840Y-12532D01*
X14840Y-12457D01*
X14849Y-12438D01*
X14859Y-12429D01*
X14877Y-12419D01*
X14906Y-12419D01*
X14924Y-12429D01*
X14934Y-12438D01*
X14943Y-12457D01*
X14943Y-12532D01*
X15037Y-12232D02*
X15037Y-12344D01*
X15037Y-12288D02*
X14840Y-12288D01*
X14868Y-12307D01*
X14887Y-12326D01*
X14896Y-12344D01*
X15037Y-12044D02*
X15037Y-12157D01*
X15037Y-12100D02*
X14840Y-12100D01*
X14868Y-12119D01*
X14887Y-12138D01*
X14896Y-12157D01*
X14565Y-12401D02*
X14565Y-12382D01*
X14574Y-12363D01*
X14584Y-12354D01*
X14602Y-12344D01*
X14640Y-12335D01*
X14687Y-12335D01*
X14724Y-12344D01*
X14743Y-12354D01*
X14753Y-12363D01*
X14762Y-12382D01*
X14762Y-12401D01*
X14753Y-12419D01*
X14743Y-12429D01*
X14724Y-12438D01*
X14687Y-12448D01*
X14640Y-12448D01*
X14602Y-12438D01*
X14584Y-12429D01*
X14574Y-12419D01*
X14565Y-12401D01*
X14762Y-12251D02*
X14565Y-12251D01*
X14762Y-12138D02*
X14649Y-12222D01*
X14565Y-12138D02*
X14677Y-12251D01*
X21161Y-14809D02*
X21171Y-14819D01*
X21180Y-14847D01*
X21180Y-14865D01*
X21171Y-14894D01*
X21152Y-14912D01*
X21133Y-14922D01*
X21096Y-14931D01*
X21068Y-14931D01*
X21030Y-14922D01*
X21011Y-14912D01*
X20993Y-14894D01*
X20983Y-14865D01*
X20983Y-14847D01*
X20993Y-14819D01*
X21002Y-14809D01*
X21180Y-14622D02*
X21180Y-14734D01*
X21180Y-14678D02*
X20983Y-14678D01*
X21011Y-14697D01*
X21030Y-14715D01*
X21040Y-14734D01*
X20983Y-14556D02*
X20983Y-14434D01*
X21058Y-14500D01*
X21058Y-14471D01*
X21068Y-14453D01*
X21077Y-14443D01*
X21096Y-14434D01*
X21143Y-14434D01*
X21161Y-14443D01*
X21171Y-14453D01*
X21180Y-14471D01*
X21180Y-14528D01*
X21171Y-14546D01*
X21161Y-14556D01*
X20886Y-14865D02*
X20896Y-14856D01*
X20905Y-14865D01*
X20896Y-14875D01*
X20886Y-14865D01*
X20905Y-14865D01*
X20905Y-14668D02*
X20905Y-14781D01*
X20905Y-14725D02*
X20708Y-14725D01*
X20736Y-14743D01*
X20755Y-14762D01*
X20765Y-14781D01*
X20774Y-14500D02*
X20905Y-14500D01*
X20774Y-14584D02*
X20877Y-14584D01*
X20896Y-14575D01*
X20905Y-14556D01*
X20905Y-14528D01*
X20896Y-14509D01*
X20886Y-14500D01*
X20243Y-14797D02*
X20253Y-14807D01*
X20262Y-14835D01*
X20262Y-14853D01*
X20253Y-14882D01*
X20234Y-14900D01*
X20215Y-14910D01*
X20178Y-14919D01*
X20150Y-14919D01*
X20112Y-14910D01*
X20093Y-14900D01*
X20075Y-14882D01*
X20065Y-14853D01*
X20065Y-14835D01*
X20075Y-14807D01*
X20084Y-14797D01*
X20262Y-14610D02*
X20262Y-14722D01*
X20262Y-14666D02*
X20065Y-14666D01*
X20093Y-14685D01*
X20112Y-14703D01*
X20122Y-14722D01*
X20084Y-14534D02*
X20075Y-14525D01*
X20065Y-14506D01*
X20065Y-14459D01*
X20075Y-14441D01*
X20084Y-14431D01*
X20103Y-14422D01*
X20122Y-14422D01*
X20150Y-14431D01*
X20262Y-14544D01*
X20262Y-14422D01*
X19968Y-14853D02*
X19978Y-14844D01*
X19987Y-14853D01*
X19978Y-14863D01*
X19968Y-14853D01*
X19987Y-14853D01*
X19987Y-14656D02*
X19987Y-14769D01*
X19987Y-14713D02*
X19790Y-14713D01*
X19818Y-14731D01*
X19837Y-14750D01*
X19847Y-14769D01*
X19856Y-14488D02*
X19987Y-14488D01*
X19856Y-14572D02*
X19959Y-14572D01*
X19978Y-14563D01*
X19987Y-14544D01*
X19987Y-14516D01*
X19978Y-14497D01*
X19968Y-14488D01*
X14563Y-16550D02*
X14554Y-16559D01*
X14526Y-16568D01*
X14507Y-16568D01*
X14479Y-16559D01*
X14460Y-16540D01*
X14451Y-16522D01*
X14441Y-16484D01*
X14441Y-16456D01*
X14451Y-16418D01*
X14460Y-16400D01*
X14479Y-16381D01*
X14507Y-16371D01*
X14526Y-16371D01*
X14554Y-16381D01*
X14563Y-16390D01*
X14629Y-16371D02*
X14751Y-16371D01*
X14685Y-16446D01*
X14713Y-16446D01*
X14732Y-16456D01*
X14741Y-16465D01*
X14751Y-16484D01*
X14751Y-16531D01*
X14741Y-16550D01*
X14732Y-16559D01*
X14713Y-16568D01*
X14657Y-16568D01*
X14638Y-16559D01*
X14629Y-16550D01*
X14563Y-16843D02*
X14451Y-16843D01*
X14507Y-16843D02*
X14507Y-16646D01*
X14488Y-16675D01*
X14469Y-16693D01*
X14451Y-16703D01*
X14732Y-16712D02*
X14732Y-16843D01*
X14648Y-16712D02*
X14648Y-16815D01*
X14657Y-16834D01*
X14676Y-16843D01*
X14704Y-16843D01*
X14723Y-16834D01*
X14732Y-16825D01*
X16270Y-16411D02*
X16205Y-16317D01*
X16158Y-16411D02*
X16158Y-16214D01*
X16233Y-16214D01*
X16252Y-16223D01*
X16261Y-16233D01*
X16270Y-16251D01*
X16270Y-16280D01*
X16261Y-16298D01*
X16252Y-16308D01*
X16233Y-16317D01*
X16158Y-16317D01*
X16458Y-16411D02*
X16346Y-16411D01*
X16402Y-16411D02*
X16402Y-16214D01*
X16383Y-16242D01*
X16364Y-16261D01*
X16346Y-16270D01*
X16580Y-16214D02*
X16599Y-16214D01*
X16618Y-16223D01*
X16627Y-16233D01*
X16636Y-16251D01*
X16646Y-16289D01*
X16646Y-16336D01*
X16636Y-16373D01*
X16627Y-16392D01*
X16618Y-16402D01*
X16599Y-16411D01*
X16580Y-16411D01*
X16561Y-16402D01*
X16552Y-16392D01*
X16543Y-16373D01*
X16533Y-16336D01*
X16533Y-16289D01*
X16543Y-16251D01*
X16552Y-16233D01*
X16561Y-16223D01*
X16580Y-16214D01*
X16261Y-16686D02*
X16149Y-16686D01*
X16205Y-16686D02*
X16205Y-16489D01*
X16186Y-16517D01*
X16167Y-16536D01*
X16149Y-16545D01*
X16383Y-16489D02*
X16402Y-16489D01*
X16421Y-16498D01*
X16430Y-16508D01*
X16439Y-16526D01*
X16449Y-16564D01*
X16449Y-16611D01*
X16439Y-16648D01*
X16430Y-16667D01*
X16421Y-16677D01*
X16402Y-16686D01*
X16383Y-16686D01*
X16364Y-16677D01*
X16355Y-16667D01*
X16346Y-16648D01*
X16336Y-16611D01*
X16336Y-16564D01*
X16346Y-16526D01*
X16355Y-16508D01*
X16364Y-16498D01*
X16383Y-16489D01*
X16533Y-16686D02*
X16533Y-16489D01*
X16646Y-16686D02*
X16561Y-16573D01*
X16646Y-16489D02*
X16533Y-16602D01*
X19354Y-14786D02*
X19260Y-14852D01*
X19354Y-14899D02*
X19157Y-14899D01*
X19157Y-14824D01*
X19167Y-14805D01*
X19176Y-14796D01*
X19195Y-14786D01*
X19223Y-14786D01*
X19242Y-14796D01*
X19251Y-14805D01*
X19260Y-14824D01*
X19260Y-14899D01*
X19354Y-14599D02*
X19354Y-14711D01*
X19354Y-14655D02*
X19157Y-14655D01*
X19185Y-14674D01*
X19204Y-14692D01*
X19214Y-14711D01*
X19157Y-14533D02*
X19157Y-14402D01*
X19354Y-14486D01*
X19079Y-14702D02*
X19079Y-14814D01*
X19079Y-14758D02*
X18882Y-14758D01*
X18910Y-14777D01*
X18929Y-14796D01*
X18939Y-14814D01*
X19079Y-14617D02*
X18882Y-14617D01*
X19079Y-14505D02*
X18967Y-14589D01*
X18882Y-14505D02*
X18995Y-14617D01*
X19534Y-15744D02*
X19468Y-15650D01*
X19421Y-15744D02*
X19421Y-15547D01*
X19496Y-15547D01*
X19515Y-15557D01*
X19524Y-15566D01*
X19534Y-15585D01*
X19534Y-15613D01*
X19524Y-15632D01*
X19515Y-15641D01*
X19496Y-15650D01*
X19421Y-15650D01*
X19721Y-15744D02*
X19609Y-15744D01*
X19665Y-15744D02*
X19665Y-15547D01*
X19646Y-15575D01*
X19628Y-15594D01*
X19609Y-15604D01*
X19834Y-15632D02*
X19815Y-15622D01*
X19806Y-15613D01*
X19797Y-15594D01*
X19797Y-15585D01*
X19806Y-15566D01*
X19815Y-15557D01*
X19834Y-15547D01*
X19872Y-15547D01*
X19890Y-15557D01*
X19900Y-15566D01*
X19909Y-15585D01*
X19909Y-15594D01*
X19900Y-15613D01*
X19890Y-15622D01*
X19872Y-15632D01*
X19834Y-15632D01*
X19815Y-15641D01*
X19806Y-15650D01*
X19797Y-15669D01*
X19797Y-15707D01*
X19806Y-15725D01*
X19815Y-15735D01*
X19834Y-15744D01*
X19872Y-15744D01*
X19890Y-15735D01*
X19900Y-15725D01*
X19909Y-15707D01*
X19909Y-15669D01*
X19900Y-15650D01*
X19890Y-15641D01*
X19872Y-15632D01*
X19618Y-16019D02*
X19506Y-16019D01*
X19562Y-16019D02*
X19562Y-15822D01*
X19543Y-15850D01*
X19524Y-15869D01*
X19506Y-15879D01*
X19703Y-16019D02*
X19703Y-15822D01*
X19815Y-16019D02*
X19731Y-15907D01*
X19815Y-15822D02*
X19703Y-15935D01*
X16373Y-10454D02*
X16307Y-10360D01*
X16260Y-10454D02*
X16260Y-10257D01*
X16335Y-10257D01*
X16354Y-10267D01*
X16363Y-10276D01*
X16373Y-10295D01*
X16373Y-10323D01*
X16363Y-10342D01*
X16354Y-10351D01*
X16335Y-10360D01*
X16260Y-10360D01*
X16560Y-10454D02*
X16448Y-10454D01*
X16504Y-10454D02*
X16504Y-10257D01*
X16485Y-10285D01*
X16467Y-10304D01*
X16448Y-10314D01*
X16654Y-10454D02*
X16692Y-10454D01*
X16711Y-10445D01*
X16720Y-10435D01*
X16739Y-10407D01*
X16748Y-10370D01*
X16748Y-10295D01*
X16739Y-10276D01*
X16729Y-10267D01*
X16711Y-10257D01*
X16673Y-10257D01*
X16654Y-10267D01*
X16645Y-10276D01*
X16636Y-10295D01*
X16636Y-10342D01*
X16645Y-10360D01*
X16654Y-10370D01*
X16673Y-10379D01*
X16711Y-10379D01*
X16729Y-10370D01*
X16739Y-10360D01*
X16748Y-10342D01*
X16457Y-10179D02*
X16345Y-10179D01*
X16401Y-10179D02*
X16401Y-9982D01*
X16382Y-10010D01*
X16363Y-10029D01*
X16345Y-10039D01*
X16542Y-10179D02*
X16542Y-9982D01*
X16654Y-10179D02*
X16570Y-10067D01*
X16654Y-9982D02*
X16542Y-10095D01*
X17754Y-9876D02*
X17660Y-9942D01*
X17754Y-9989D02*
X17557Y-9989D01*
X17557Y-9914D01*
X17567Y-9895D01*
X17576Y-9886D01*
X17595Y-9876D01*
X17623Y-9876D01*
X17642Y-9886D01*
X17651Y-9895D01*
X17660Y-9914D01*
X17660Y-9989D01*
X17754Y-9689D02*
X17754Y-9801D01*
X17754Y-9745D02*
X17557Y-9745D01*
X17585Y-9764D01*
X17604Y-9782D01*
X17614Y-9801D01*
X17557Y-9520D02*
X17557Y-9557D01*
X17567Y-9576D01*
X17576Y-9585D01*
X17604Y-9604D01*
X17642Y-9613D01*
X17717Y-9613D01*
X17735Y-9604D01*
X17745Y-9595D01*
X17754Y-9576D01*
X17754Y-9538D01*
X17745Y-9520D01*
X17735Y-9510D01*
X17717Y-9501D01*
X17670Y-9501D01*
X17651Y-9510D01*
X17642Y-9520D01*
X17632Y-9538D01*
X17632Y-9576D01*
X17642Y-9595D01*
X17651Y-9604D01*
X17670Y-9613D01*
X18029Y-9886D02*
X18029Y-9998D01*
X18029Y-9942D02*
X17832Y-9942D01*
X17860Y-9961D01*
X17879Y-9979D01*
X17889Y-9998D01*
X17832Y-9764D02*
X17832Y-9745D01*
X17842Y-9726D01*
X17851Y-9717D01*
X17870Y-9707D01*
X17907Y-9698D01*
X17954Y-9698D01*
X17992Y-9707D01*
X18010Y-9717D01*
X18020Y-9726D01*
X18029Y-9745D01*
X18029Y-9764D01*
X18020Y-9782D01*
X18010Y-9792D01*
X17992Y-9801D01*
X17954Y-9810D01*
X17907Y-9810D01*
X17870Y-9801D01*
X17851Y-9792D01*
X17842Y-9782D01*
X17832Y-9764D01*
X18029Y-9613D02*
X17832Y-9613D01*
X18029Y-9501D02*
X17917Y-9585D01*
X17832Y-9501D02*
X17945Y-9613D01*
X16673Y-9635D02*
X16663Y-9645D01*
X16635Y-9654D01*
X16617Y-9654D01*
X16588Y-9645D01*
X16570Y-9626D01*
X16560Y-9607D01*
X16551Y-9570D01*
X16551Y-9542D01*
X16560Y-9504D01*
X16570Y-9485D01*
X16588Y-9467D01*
X16617Y-9457D01*
X16635Y-9457D01*
X16663Y-9467D01*
X16673Y-9476D01*
X16860Y-9654D02*
X16748Y-9654D01*
X16804Y-9654D02*
X16804Y-9457D01*
X16785Y-9485D01*
X16767Y-9504D01*
X16748Y-9514D01*
X17048Y-9654D02*
X16936Y-9654D01*
X16992Y-9654D02*
X16992Y-9457D01*
X16973Y-9485D01*
X16954Y-9504D01*
X16936Y-9514D01*
X16579Y-9379D02*
X16466Y-9379D01*
X16523Y-9379D02*
X16523Y-9182D01*
X16504Y-9210D01*
X16485Y-9229D01*
X16466Y-9239D01*
X16701Y-9182D02*
X16720Y-9182D01*
X16739Y-9192D01*
X16748Y-9201D01*
X16757Y-9220D01*
X16767Y-9257D01*
X16767Y-9304D01*
X16757Y-9342D01*
X16748Y-9360D01*
X16739Y-9370D01*
X16720Y-9379D01*
X16701Y-9379D01*
X16682Y-9370D01*
X16673Y-9360D01*
X16663Y-9342D01*
X16654Y-9304D01*
X16654Y-9257D01*
X16663Y-9220D01*
X16673Y-9201D01*
X16682Y-9192D01*
X16701Y-9182D01*
X16889Y-9182D02*
X16907Y-9182D01*
X16926Y-9192D01*
X16936Y-9201D01*
X16945Y-9220D01*
X16954Y-9257D01*
X16954Y-9304D01*
X16945Y-9342D01*
X16936Y-9360D01*
X16926Y-9370D01*
X16907Y-9379D01*
X16889Y-9379D01*
X16870Y-9370D01*
X16860Y-9360D01*
X16851Y-9342D01*
X16842Y-9304D01*
X16842Y-9257D01*
X16851Y-9220D01*
X16860Y-9201D01*
X16870Y-9192D01*
X16889Y-9182D01*
X17039Y-9248D02*
X17039Y-9379D01*
X17039Y-9267D02*
X17048Y-9257D01*
X17067Y-9248D01*
X17095Y-9248D01*
X17114Y-9257D01*
X17123Y-9276D01*
X17123Y-9379D01*
X19282Y-11668D02*
X19273Y-11677D01*
X19245Y-11687D01*
X19226Y-11687D01*
X19198Y-11677D01*
X19179Y-11658D01*
X19170Y-11640D01*
X19160Y-11602D01*
X19160Y-11574D01*
X19170Y-11536D01*
X19179Y-11518D01*
X19198Y-11499D01*
X19226Y-11490D01*
X19245Y-11490D01*
X19273Y-11499D01*
X19282Y-11508D01*
X19470Y-11687D02*
X19357Y-11687D01*
X19414Y-11687D02*
X19414Y-11490D01*
X19395Y-11518D01*
X19376Y-11536D01*
X19357Y-11546D01*
X19592Y-11490D02*
X19611Y-11490D01*
X19629Y-11499D01*
X19639Y-11508D01*
X19648Y-11527D01*
X19658Y-11565D01*
X19658Y-11611D01*
X19648Y-11649D01*
X19639Y-11668D01*
X19629Y-11677D01*
X19611Y-11687D01*
X19592Y-11687D01*
X19573Y-11677D01*
X19564Y-11668D01*
X19554Y-11649D01*
X19545Y-11611D01*
X19545Y-11565D01*
X19554Y-11527D01*
X19564Y-11508D01*
X19573Y-11499D01*
X19592Y-11490D01*
X19188Y-11962D02*
X19076Y-11962D01*
X19132Y-11962D02*
X19132Y-11765D01*
X19113Y-11793D01*
X19095Y-11811D01*
X19076Y-11821D01*
X19310Y-11765D02*
X19329Y-11765D01*
X19348Y-11774D01*
X19357Y-11783D01*
X19367Y-11802D01*
X19376Y-11840D01*
X19376Y-11886D01*
X19367Y-11924D01*
X19357Y-11943D01*
X19348Y-11952D01*
X19329Y-11962D01*
X19310Y-11962D01*
X19292Y-11952D01*
X19282Y-11943D01*
X19273Y-11924D01*
X19264Y-11886D01*
X19264Y-11840D01*
X19273Y-11802D01*
X19282Y-11783D01*
X19292Y-11774D01*
X19310Y-11765D01*
X19498Y-11765D02*
X19517Y-11765D01*
X19536Y-11774D01*
X19545Y-11783D01*
X19554Y-11802D01*
X19564Y-11840D01*
X19564Y-11886D01*
X19554Y-11924D01*
X19545Y-11943D01*
X19536Y-11952D01*
X19517Y-11962D01*
X19498Y-11962D01*
X19479Y-11952D01*
X19470Y-11943D01*
X19461Y-11924D01*
X19451Y-11886D01*
X19451Y-11840D01*
X19461Y-11802D01*
X19470Y-11783D01*
X19479Y-11774D01*
X19498Y-11765D01*
X19648Y-11830D02*
X19648Y-11962D01*
X19648Y-11849D02*
X19658Y-11840D01*
X19676Y-11830D01*
X19704Y-11830D01*
X19723Y-11840D01*
X19733Y-11858D01*
X19733Y-11962D01*
X17570Y-11267D02*
X17504Y-11173D01*
X17457Y-11267D02*
X17457Y-11070D01*
X17532Y-11070D01*
X17551Y-11080D01*
X17560Y-11089D01*
X17570Y-11108D01*
X17570Y-11136D01*
X17560Y-11155D01*
X17551Y-11164D01*
X17532Y-11173D01*
X17457Y-11173D01*
X17757Y-11267D02*
X17645Y-11267D01*
X17701Y-11267D02*
X17701Y-11070D01*
X17682Y-11098D01*
X17664Y-11117D01*
X17645Y-11127D01*
X17936Y-11070D02*
X17842Y-11070D01*
X17832Y-11164D01*
X17842Y-11155D01*
X17861Y-11145D01*
X17907Y-11145D01*
X17926Y-11155D01*
X17936Y-11164D01*
X17945Y-11183D01*
X17945Y-11230D01*
X17936Y-11248D01*
X17926Y-11258D01*
X17907Y-11267D01*
X17861Y-11267D01*
X17842Y-11258D01*
X17832Y-11248D01*
X17448Y-10814D02*
X17457Y-10805D01*
X17476Y-10795D01*
X17523Y-10795D01*
X17542Y-10805D01*
X17551Y-10814D01*
X17560Y-10833D01*
X17560Y-10852D01*
X17551Y-10880D01*
X17438Y-10992D01*
X17560Y-10992D01*
X17635Y-10814D02*
X17645Y-10805D01*
X17664Y-10795D01*
X17710Y-10795D01*
X17729Y-10805D01*
X17739Y-10814D01*
X17748Y-10833D01*
X17748Y-10852D01*
X17739Y-10880D01*
X17626Y-10992D01*
X17748Y-10992D01*
X17832Y-10992D02*
X17832Y-10795D01*
X17945Y-10992D02*
X17861Y-10880D01*
X17945Y-10795D02*
X17832Y-10908D01*
X19849Y-12941D02*
X19839Y-12951D01*
X19811Y-12960D01*
X19792Y-12960D01*
X19764Y-12951D01*
X19745Y-12932D01*
X19736Y-12913D01*
X19727Y-12876D01*
X19727Y-12848D01*
X19736Y-12810D01*
X19745Y-12791D01*
X19764Y-12773D01*
X19792Y-12763D01*
X19811Y-12763D01*
X19839Y-12773D01*
X19849Y-12782D01*
X19942Y-12960D02*
X19980Y-12960D01*
X19999Y-12951D01*
X20008Y-12941D01*
X20027Y-12913D01*
X20036Y-12876D01*
X20036Y-12801D01*
X20027Y-12782D01*
X20017Y-12773D01*
X19999Y-12763D01*
X19961Y-12763D01*
X19942Y-12773D01*
X19933Y-12782D01*
X19924Y-12801D01*
X19924Y-12848D01*
X19933Y-12866D01*
X19942Y-12876D01*
X19961Y-12885D01*
X19999Y-12885D01*
X20017Y-12876D01*
X20027Y-12866D01*
X20036Y-12848D01*
X19661Y-12685D02*
X19548Y-12685D01*
X19605Y-12685D02*
X19605Y-12488D01*
X19586Y-12516D01*
X19567Y-12535D01*
X19548Y-12544D01*
X19783Y-12488D02*
X19802Y-12488D01*
X19820Y-12498D01*
X19830Y-12507D01*
X19839Y-12526D01*
X19849Y-12563D01*
X19849Y-12610D01*
X19839Y-12648D01*
X19830Y-12666D01*
X19820Y-12676D01*
X19802Y-12685D01*
X19783Y-12685D01*
X19764Y-12676D01*
X19755Y-12666D01*
X19745Y-12648D01*
X19736Y-12610D01*
X19736Y-12563D01*
X19745Y-12526D01*
X19755Y-12507D01*
X19764Y-12498D01*
X19783Y-12488D01*
X19971Y-12488D02*
X19989Y-12488D01*
X20008Y-12498D01*
X20017Y-12507D01*
X20027Y-12526D01*
X20036Y-12563D01*
X20036Y-12610D01*
X20027Y-12648D01*
X20017Y-12666D01*
X20008Y-12676D01*
X19989Y-12685D01*
X19971Y-12685D01*
X19952Y-12676D01*
X19942Y-12666D01*
X19933Y-12648D01*
X19924Y-12610D01*
X19924Y-12563D01*
X19933Y-12526D01*
X19942Y-12507D01*
X19952Y-12498D01*
X19971Y-12488D01*
X20121Y-12554D02*
X20121Y-12685D01*
X20121Y-12573D02*
X20130Y-12563D01*
X20149Y-12554D01*
X20177Y-12554D01*
X20196Y-12563D01*
X20205Y-12582D01*
X20205Y-12685D01*
X18944Y-13079D02*
X18851Y-13145D01*
X18944Y-13191D02*
X18747Y-13191D01*
X18747Y-13116D01*
X18757Y-13098D01*
X18766Y-13088D01*
X18785Y-13079D01*
X18813Y-13079D01*
X18832Y-13088D01*
X18841Y-13098D01*
X18851Y-13116D01*
X18851Y-13191D01*
X18944Y-12891D02*
X18944Y-13004D01*
X18944Y-12948D02*
X18747Y-12948D01*
X18776Y-12966D01*
X18794Y-12985D01*
X18804Y-13004D01*
X18813Y-12722D02*
X18944Y-12722D01*
X18738Y-12769D02*
X18879Y-12816D01*
X18879Y-12694D01*
X18669Y-12994D02*
X18669Y-13107D01*
X18669Y-13051D02*
X18472Y-13051D01*
X18501Y-13070D01*
X18519Y-13088D01*
X18529Y-13107D01*
X18669Y-12910D02*
X18472Y-12910D01*
X18669Y-12797D02*
X18557Y-12882D01*
X18472Y-12797D02*
X18585Y-12910D01*
X15926Y-8281D02*
X15860Y-8187D01*
X15813Y-8281D02*
X15813Y-8084D01*
X15888Y-8084D01*
X15907Y-8093D01*
X15917Y-8103D01*
X15926Y-8122D01*
X15926Y-8150D01*
X15917Y-8168D01*
X15907Y-8178D01*
X15888Y-8187D01*
X15813Y-8187D01*
X16114Y-8281D02*
X16001Y-8281D01*
X16057Y-8281D02*
X16057Y-8084D01*
X16039Y-8112D01*
X16020Y-8131D01*
X16001Y-8140D01*
X16179Y-8084D02*
X16301Y-8084D01*
X16236Y-8159D01*
X16264Y-8159D01*
X16282Y-8168D01*
X16292Y-8178D01*
X16301Y-8197D01*
X16301Y-8243D01*
X16292Y-8262D01*
X16282Y-8272D01*
X16264Y-8281D01*
X16207Y-8281D01*
X16189Y-8272D01*
X16179Y-8262D01*
X15823Y-8556D02*
X15710Y-8556D01*
X15767Y-8556D02*
X15767Y-8359D01*
X15748Y-8387D01*
X15729Y-8406D01*
X15710Y-8415D01*
X15945Y-8359D02*
X15964Y-8359D01*
X15982Y-8368D01*
X15992Y-8378D01*
X16001Y-8397D01*
X16010Y-8434D01*
X16010Y-8481D01*
X16001Y-8518D01*
X15992Y-8537D01*
X15982Y-8547D01*
X15964Y-8556D01*
X15945Y-8556D01*
X15926Y-8547D01*
X15917Y-8537D01*
X15907Y-8518D01*
X15898Y-8481D01*
X15898Y-8434D01*
X15907Y-8397D01*
X15917Y-8378D01*
X15926Y-8368D01*
X15945Y-8359D01*
X16132Y-8359D02*
X16151Y-8359D01*
X16170Y-8368D01*
X16179Y-8378D01*
X16189Y-8397D01*
X16198Y-8434D01*
X16198Y-8481D01*
X16189Y-8518D01*
X16179Y-8537D01*
X16170Y-8547D01*
X16151Y-8556D01*
X16132Y-8556D01*
X16114Y-8547D01*
X16104Y-8537D01*
X16095Y-8518D01*
X16085Y-8481D01*
X16085Y-8434D01*
X16095Y-8397D01*
X16104Y-8378D01*
X16114Y-8368D01*
X16132Y-8359D01*
X16282Y-8556D02*
X16282Y-8359D01*
X16395Y-8556D02*
X16311Y-8443D01*
X16395Y-8359D02*
X16282Y-8472D01*
G54D16*
X20396Y-10408D02*
X20002Y-10408D01*
X20002Y-10315D01*
X20020Y-10258D01*
X20058Y-10221D01*
X20095Y-10202D01*
X20170Y-10183D01*
X20227Y-10183D01*
X20302Y-10202D01*
X20339Y-10221D01*
X20377Y-10258D01*
X20396Y-10315D01*
X20396Y-10408D01*
X20002Y-9827D02*
X20002Y-10014D01*
X20189Y-10033D01*
X20170Y-10014D01*
X20152Y-9977D01*
X20152Y-9883D01*
X20170Y-9846D01*
X20189Y-9827D01*
X20227Y-9808D01*
X20321Y-9808D01*
X20358Y-9827D01*
X20377Y-9846D01*
X20396Y-9883D01*
X20396Y-9977D01*
X20377Y-10014D01*
X20358Y-10033D01*
X18270Y-10896D02*
X17876Y-10896D01*
X17876Y-10802D01*
X17894Y-10746D01*
X17932Y-10709D01*
X17969Y-10690D01*
X18044Y-10671D01*
X18101Y-10671D01*
X18176Y-10690D01*
X18213Y-10709D01*
X18251Y-10746D01*
X18270Y-10802D01*
X18270Y-10896D01*
X18270Y-10502D02*
X17876Y-10502D01*
X17876Y-10240D02*
X17876Y-10165D01*
X17894Y-10127D01*
X17932Y-10089D01*
X18007Y-10071D01*
X18138Y-10071D01*
X18213Y-10089D01*
X18251Y-10127D01*
X18270Y-10165D01*
X18270Y-10240D01*
X18251Y-10277D01*
X18213Y-10315D01*
X18138Y-10333D01*
X18007Y-10333D01*
X17932Y-10315D01*
X17894Y-10277D01*
X17876Y-10240D01*
X18270Y-9902D02*
X17876Y-9902D01*
X17876Y-9808D01*
X17894Y-9752D01*
X17932Y-9714D01*
X17969Y-9695D01*
X18044Y-9677D01*
X18101Y-9677D01*
X18176Y-9695D01*
X18213Y-9714D01*
X18251Y-9752D01*
X18270Y-9808D01*
X18270Y-9902D01*
X18063Y-9508D02*
X18063Y-9377D01*
X18270Y-9320D02*
X18270Y-9508D01*
X17876Y-9508D01*
X17876Y-9320D01*
X20040Y-10408D02*
X19646Y-10408D01*
X19646Y-10315D01*
X19665Y-10258D01*
X19703Y-10221D01*
X19740Y-10202D01*
X19815Y-10183D01*
X19872Y-10183D01*
X19947Y-10202D01*
X19984Y-10221D01*
X20022Y-10258D01*
X20040Y-10315D01*
X20040Y-10408D01*
X19778Y-9846D02*
X20040Y-9846D01*
X19628Y-9939D02*
X19909Y-10033D01*
X19909Y-9789D01*
X22166Y-10896D02*
X21772Y-10896D01*
X21772Y-10802D01*
X21791Y-10746D01*
X21829Y-10709D01*
X21866Y-10690D01*
X21941Y-10671D01*
X21998Y-10671D01*
X22073Y-10690D01*
X22110Y-10709D01*
X22148Y-10746D01*
X22166Y-10802D01*
X22166Y-10896D01*
X22166Y-10502D02*
X21772Y-10502D01*
X21772Y-10240D02*
X21772Y-10165D01*
X21791Y-10127D01*
X21829Y-10089D01*
X21904Y-10071D01*
X22035Y-10071D01*
X22110Y-10089D01*
X22148Y-10127D01*
X22166Y-10165D01*
X22166Y-10240D01*
X22148Y-10277D01*
X22110Y-10315D01*
X22035Y-10333D01*
X21904Y-10333D01*
X21829Y-10315D01*
X21791Y-10277D01*
X21772Y-10240D01*
X22166Y-9902D02*
X21772Y-9902D01*
X21772Y-9808D01*
X21791Y-9752D01*
X21829Y-9714D01*
X21866Y-9695D01*
X21941Y-9677D01*
X21998Y-9677D01*
X22073Y-9695D01*
X22110Y-9714D01*
X22148Y-9752D01*
X22166Y-9808D01*
X22166Y-9902D01*
X21960Y-9508D02*
X21960Y-9377D01*
X22166Y-9320D02*
X22166Y-9508D01*
X21772Y-9508D01*
X21772Y-9320D01*
X13436Y-14464D02*
X13042Y-14464D01*
X13042Y-14370D01*
X13061Y-14313D01*
X13098Y-14276D01*
X13136Y-14257D01*
X13211Y-14238D01*
X13267Y-14238D01*
X13342Y-14257D01*
X13380Y-14276D01*
X13417Y-14313D01*
X13436Y-14370D01*
X13436Y-14464D01*
X13042Y-14107D02*
X13042Y-13863D01*
X13192Y-13994D01*
X13192Y-13938D01*
X13211Y-13901D01*
X13230Y-13882D01*
X13267Y-13863D01*
X13361Y-13863D01*
X13399Y-13882D01*
X13417Y-13901D01*
X13436Y-13938D01*
X13436Y-14051D01*
X13417Y-14088D01*
X13399Y-14107D01*
X15562Y-14951D02*
X15168Y-14951D01*
X15168Y-14858D01*
X15187Y-14801D01*
X15224Y-14764D01*
X15262Y-14745D01*
X15337Y-14726D01*
X15393Y-14726D01*
X15468Y-14745D01*
X15506Y-14764D01*
X15543Y-14801D01*
X15562Y-14858D01*
X15562Y-14951D01*
X15562Y-14557D02*
X15168Y-14557D01*
X15168Y-14295D02*
X15168Y-14220D01*
X15187Y-14182D01*
X15224Y-14145D01*
X15299Y-14126D01*
X15431Y-14126D01*
X15506Y-14145D01*
X15543Y-14182D01*
X15562Y-14220D01*
X15562Y-14295D01*
X15543Y-14332D01*
X15506Y-14370D01*
X15431Y-14388D01*
X15299Y-14388D01*
X15224Y-14370D01*
X15187Y-14332D01*
X15168Y-14295D01*
X15562Y-13957D02*
X15168Y-13957D01*
X15168Y-13863D01*
X15187Y-13807D01*
X15224Y-13769D01*
X15262Y-13751D01*
X15337Y-13732D01*
X15393Y-13732D01*
X15468Y-13751D01*
X15506Y-13769D01*
X15543Y-13807D01*
X15562Y-13863D01*
X15562Y-13957D01*
X15356Y-13563D02*
X15356Y-13432D01*
X15562Y-13375D02*
X15562Y-13563D01*
X15168Y-13563D01*
X15168Y-13375D01*
X13088Y-8857D02*
X13088Y-9100D01*
X13103Y-9128D01*
X13117Y-9142D01*
X13145Y-9157D01*
X13203Y-9157D01*
X13231Y-9142D01*
X13245Y-9128D01*
X13260Y-9100D01*
X13260Y-8857D01*
X13388Y-8885D02*
X13403Y-8871D01*
X13431Y-8857D01*
X13503Y-8857D01*
X13531Y-8871D01*
X13545Y-8885D01*
X13560Y-8914D01*
X13560Y-8942D01*
X13545Y-8985D01*
X13374Y-9157D01*
X13560Y-9157D01*
G54D12*
X13436Y-10576D02*
X13436Y-10670D01*
X13239Y-10670D01*
X13332Y-10445D02*
X13342Y-10416D01*
X13351Y-10407D01*
X13370Y-10398D01*
X13398Y-10398D01*
X13417Y-10407D01*
X13426Y-10416D01*
X13436Y-10435D01*
X13436Y-10510D01*
X13239Y-10510D01*
X13239Y-10445D01*
X13248Y-10426D01*
X13257Y-10416D01*
X13276Y-10407D01*
X13295Y-10407D01*
X13314Y-10416D01*
X13323Y-10426D01*
X13332Y-10445D01*
X13332Y-10510D01*
X13454Y-10360D02*
X13454Y-10210D01*
X13436Y-10163D02*
X13239Y-10163D01*
X13379Y-10098D01*
X13239Y-10032D01*
X13436Y-10032D01*
X13379Y-9947D02*
X13379Y-9854D01*
X13436Y-9966D02*
X13239Y-9901D01*
X13436Y-9835D01*
X13239Y-9788D02*
X13436Y-9657D01*
X13239Y-9657D02*
X13436Y-9788D01*
X13239Y-9497D02*
X13239Y-9535D01*
X13248Y-9553D01*
X13257Y-9563D01*
X13285Y-9582D01*
X13323Y-9591D01*
X13398Y-9591D01*
X13417Y-9582D01*
X13426Y-9572D01*
X13436Y-9553D01*
X13436Y-9516D01*
X13426Y-9497D01*
X13417Y-9488D01*
X13398Y-9478D01*
X13351Y-9478D01*
X13332Y-9488D01*
X13323Y-9497D01*
X13314Y-9516D01*
X13314Y-9553D01*
X13323Y-9572D01*
X13332Y-9582D01*
X13351Y-9591D01*
X13239Y-9356D02*
X13239Y-9338D01*
X13248Y-9319D01*
X13257Y-9310D01*
X13276Y-9300D01*
X13314Y-9291D01*
X13360Y-9291D01*
X13398Y-9300D01*
X13417Y-9310D01*
X13426Y-9319D01*
X13436Y-9338D01*
X13436Y-9356D01*
X13426Y-9375D01*
X13417Y-9385D01*
X13398Y-9394D01*
X13360Y-9403D01*
X13314Y-9403D01*
X13276Y-9394D01*
X13257Y-9385D01*
X13248Y-9375D01*
X13239Y-9356D01*
X13239Y-9169D02*
X13239Y-9150D01*
X13248Y-9131D01*
X13257Y-9122D01*
X13276Y-9113D01*
X13314Y-9103D01*
X13360Y-9103D01*
X13398Y-9113D01*
X13417Y-9122D01*
X13426Y-9131D01*
X13436Y-9150D01*
X13436Y-9169D01*
X13426Y-9188D01*
X13417Y-9197D01*
X13398Y-9206D01*
X13360Y-9216D01*
X13314Y-9216D01*
X13276Y-9206D01*
X13257Y-9197D01*
X13248Y-9188D01*
X13239Y-9169D01*
X13239Y-9037D02*
X13239Y-8916D01*
X13314Y-8981D01*
X13314Y-8953D01*
X13323Y-8934D01*
X13332Y-8925D01*
X13351Y-8916D01*
X13398Y-8916D01*
X13417Y-8925D01*
X13426Y-8934D01*
X13436Y-8953D01*
X13436Y-9009D01*
X13426Y-9028D01*
X13417Y-9037D01*
G54D15*
X11707Y-8576D02*
X11717Y-8585D01*
X11726Y-8613D01*
X11726Y-8632D01*
X11717Y-8660D01*
X11698Y-8679D01*
X11679Y-8688D01*
X11641Y-8698D01*
X11613Y-8698D01*
X11576Y-8688D01*
X11557Y-8679D01*
X11538Y-8660D01*
X11529Y-8632D01*
X11529Y-8613D01*
X11538Y-8585D01*
X11548Y-8576D01*
X11726Y-8388D02*
X11726Y-8501D01*
X11726Y-8444D02*
X11529Y-8444D01*
X11557Y-8463D01*
X11576Y-8482D01*
X11585Y-8501D01*
X11982Y-8726D02*
X11992Y-8716D01*
X12001Y-8726D01*
X11992Y-8735D01*
X11982Y-8726D01*
X12001Y-8726D01*
X12001Y-8529D02*
X12001Y-8641D01*
X12001Y-8585D02*
X11804Y-8585D01*
X11832Y-8604D01*
X11851Y-8623D01*
X11860Y-8641D01*
X11870Y-8360D02*
X12001Y-8360D01*
X11870Y-8444D02*
X11973Y-8444D01*
X11992Y-8435D01*
X12001Y-8416D01*
X12001Y-8388D01*
X11992Y-8369D01*
X11982Y-8360D01*
X11982Y-13792D02*
X11888Y-13858D01*
X11982Y-13905D02*
X11785Y-13905D01*
X11785Y-13830D01*
X11794Y-13811D01*
X11804Y-13802D01*
X11822Y-13792D01*
X11850Y-13792D01*
X11869Y-13802D01*
X11879Y-13811D01*
X11888Y-13830D01*
X11888Y-13905D01*
X11785Y-13623D02*
X11785Y-13661D01*
X11794Y-13680D01*
X11804Y-13689D01*
X11832Y-13708D01*
X11869Y-13717D01*
X11944Y-13717D01*
X11963Y-13708D01*
X11972Y-13698D01*
X11982Y-13680D01*
X11982Y-13642D01*
X11972Y-13623D01*
X11963Y-13614D01*
X11944Y-13605D01*
X11897Y-13605D01*
X11879Y-13614D01*
X11869Y-13623D01*
X11860Y-13642D01*
X11860Y-13680D01*
X11869Y-13698D01*
X11879Y-13708D01*
X11897Y-13717D01*
X12060Y-13924D02*
X12060Y-13802D01*
X12135Y-13867D01*
X12135Y-13839D01*
X12144Y-13820D01*
X12154Y-13811D01*
X12172Y-13802D01*
X12219Y-13802D01*
X12238Y-13811D01*
X12247Y-13820D01*
X12257Y-13839D01*
X12257Y-13895D01*
X12247Y-13914D01*
X12238Y-13924D01*
X12257Y-13717D02*
X12060Y-13717D01*
X12257Y-13605D02*
X12144Y-13689D01*
X12060Y-13605D02*
X12172Y-13717D01*
X13018Y-16405D02*
X12952Y-16311D01*
X12905Y-16405D02*
X12905Y-16208D01*
X12980Y-16208D01*
X12999Y-16217D01*
X13008Y-16227D01*
X13018Y-16246D01*
X13018Y-16274D01*
X13008Y-16292D01*
X12999Y-16302D01*
X12980Y-16311D01*
X12905Y-16311D01*
X13196Y-16208D02*
X13102Y-16208D01*
X13093Y-16302D01*
X13102Y-16292D01*
X13121Y-16283D01*
X13168Y-16283D01*
X13187Y-16292D01*
X13196Y-16302D01*
X13205Y-16321D01*
X13205Y-16368D01*
X13196Y-16386D01*
X13187Y-16396D01*
X13168Y-16405D01*
X13121Y-16405D01*
X13102Y-16396D01*
X13093Y-16386D01*
X12887Y-15933D02*
X13008Y-15933D01*
X12943Y-16008D01*
X12971Y-16008D01*
X12990Y-16017D01*
X12999Y-16027D01*
X13008Y-16046D01*
X13008Y-16093D01*
X12999Y-16111D01*
X12990Y-16121D01*
X12971Y-16130D01*
X12915Y-16130D01*
X12896Y-16121D01*
X12887Y-16111D01*
X13093Y-16130D02*
X13093Y-15933D01*
X13205Y-16130D02*
X13121Y-16017D01*
X13205Y-15933D02*
X13093Y-16046D01*
X17939Y-16484D02*
X17873Y-16390D01*
X17827Y-16484D02*
X17827Y-16287D01*
X17902Y-16287D01*
X17920Y-16296D01*
X17930Y-16306D01*
X17939Y-16324D01*
X17939Y-16352D01*
X17930Y-16371D01*
X17920Y-16381D01*
X17902Y-16390D01*
X17827Y-16390D01*
X18052Y-16371D02*
X18033Y-16362D01*
X18024Y-16352D01*
X18014Y-16334D01*
X18014Y-16324D01*
X18024Y-16306D01*
X18033Y-16296D01*
X18052Y-16287D01*
X18089Y-16287D01*
X18108Y-16296D01*
X18117Y-16306D01*
X18127Y-16324D01*
X18127Y-16334D01*
X18117Y-16352D01*
X18108Y-16362D01*
X18089Y-16371D01*
X18052Y-16371D01*
X18033Y-16381D01*
X18024Y-16390D01*
X18014Y-16409D01*
X18014Y-16446D01*
X18024Y-16465D01*
X18033Y-16474D01*
X18052Y-16484D01*
X18089Y-16484D01*
X18108Y-16474D01*
X18117Y-16465D01*
X18127Y-16446D01*
X18127Y-16409D01*
X18117Y-16390D01*
X18108Y-16381D01*
X18089Y-16371D01*
X17864Y-16012D02*
X17883Y-16012D01*
X17902Y-16021D01*
X17911Y-16031D01*
X17920Y-16049D01*
X17930Y-16087D01*
X17930Y-16134D01*
X17920Y-16171D01*
X17911Y-16190D01*
X17902Y-16199D01*
X17883Y-16209D01*
X17864Y-16209D01*
X17845Y-16199D01*
X17836Y-16190D01*
X17827Y-16171D01*
X17817Y-16134D01*
X17817Y-16087D01*
X17827Y-16049D01*
X17836Y-16031D01*
X17845Y-16021D01*
X17864Y-16012D01*
X18014Y-16209D02*
X18014Y-16012D01*
X18127Y-16209D02*
X18042Y-16096D01*
X18127Y-16012D02*
X18014Y-16124D01*
X14358Y-12326D02*
X14264Y-12391D01*
X14358Y-12438D02*
X14161Y-12438D01*
X14161Y-12363D01*
X14170Y-12344D01*
X14180Y-12335D01*
X14198Y-12326D01*
X14226Y-12326D01*
X14245Y-12335D01*
X14255Y-12344D01*
X14264Y-12363D01*
X14264Y-12438D01*
X14161Y-12260D02*
X14161Y-12129D01*
X14358Y-12213D01*
X13886Y-12401D02*
X13886Y-12382D01*
X13895Y-12363D01*
X13905Y-12354D01*
X13923Y-12344D01*
X13961Y-12335D01*
X14008Y-12335D01*
X14045Y-12344D01*
X14064Y-12354D01*
X14073Y-12363D01*
X14083Y-12382D01*
X14083Y-12401D01*
X14073Y-12419D01*
X14064Y-12429D01*
X14045Y-12438D01*
X14008Y-12448D01*
X13961Y-12448D01*
X13923Y-12438D01*
X13905Y-12429D01*
X13895Y-12419D01*
X13886Y-12401D01*
X14083Y-12251D02*
X13886Y-12251D01*
X14083Y-12138D02*
X13970Y-12222D01*
X13886Y-12138D02*
X13998Y-12251D01*
G54D10*
X12763Y-16871D02*
X12763Y-16478D01*
X12913Y-16478D01*
X12950Y-16497D01*
X12969Y-16515D01*
X12988Y-16553D01*
X12988Y-16609D01*
X12969Y-16646D01*
X12950Y-16665D01*
X12913Y-16684D01*
X12763Y-16684D01*
X13363Y-16871D02*
X13138Y-16871D01*
X13250Y-16871D02*
X13250Y-16478D01*
X13213Y-16534D01*
X13175Y-16571D01*
X13138Y-16590D01*
X15044Y-16834D02*
X15025Y-16853D01*
X14969Y-16871D01*
X14931Y-16871D01*
X14875Y-16853D01*
X14837Y-16815D01*
X14819Y-16778D01*
X14800Y-16703D01*
X14800Y-16646D01*
X14819Y-16571D01*
X14837Y-16534D01*
X14875Y-16497D01*
X14931Y-16478D01*
X14969Y-16478D01*
X15025Y-16497D01*
X15044Y-16515D01*
X15287Y-16478D02*
X15362Y-16478D01*
X15400Y-16497D01*
X15437Y-16534D01*
X15456Y-16609D01*
X15456Y-16740D01*
X15437Y-16815D01*
X15400Y-16853D01*
X15362Y-16871D01*
X15287Y-16871D01*
X15250Y-16853D01*
X15212Y-16815D01*
X15193Y-16740D01*
X15193Y-16609D01*
X15212Y-16534D01*
X15250Y-16497D01*
X15287Y-16478D01*
X15625Y-16871D02*
X15625Y-16478D01*
X15850Y-16871D01*
X15850Y-16478D01*
X16037Y-16871D02*
X16037Y-16478D01*
X16262Y-16871D01*
X16262Y-16478D01*
X16356Y-16909D02*
X16656Y-16909D01*
X16956Y-16871D02*
X16731Y-16871D01*
X16843Y-16871D02*
X16843Y-16478D01*
X16806Y-16534D01*
X16768Y-16571D01*
X16731Y-16590D01*
X17199Y-16478D02*
X17237Y-16478D01*
X17274Y-16497D01*
X17293Y-16515D01*
X17312Y-16553D01*
X17331Y-16628D01*
X17331Y-16721D01*
X17312Y-16796D01*
X17293Y-16834D01*
X17274Y-16853D01*
X17237Y-16871D01*
X17199Y-16871D01*
X17162Y-16853D01*
X17143Y-16834D01*
X17124Y-16796D01*
X17106Y-16721D01*
X17106Y-16628D01*
X17124Y-16553D01*
X17143Y-16515D01*
X17162Y-16497D01*
X17199Y-16478D01*
G54D15*
X12863Y-8684D02*
X12872Y-8693D01*
X12881Y-8721D01*
X12881Y-8740D01*
X12872Y-8768D01*
X12853Y-8787D01*
X12834Y-8796D01*
X12797Y-8806D01*
X12769Y-8806D01*
X12731Y-8796D01*
X12713Y-8787D01*
X12694Y-8768D01*
X12684Y-8740D01*
X12684Y-8721D01*
X12694Y-8693D01*
X12703Y-8684D01*
X12703Y-8609D02*
X12694Y-8599D01*
X12684Y-8581D01*
X12684Y-8534D01*
X12694Y-8515D01*
X12703Y-8506D01*
X12722Y-8496D01*
X12741Y-8496D01*
X12769Y-8506D01*
X12881Y-8618D01*
X12881Y-8496D01*
X12588Y-8834D02*
X12597Y-8825D01*
X12606Y-8834D01*
X12597Y-8843D01*
X12588Y-8834D01*
X12606Y-8834D01*
X12606Y-8637D02*
X12606Y-8750D01*
X12606Y-8693D02*
X12409Y-8693D01*
X12438Y-8712D01*
X12456Y-8731D01*
X12466Y-8750D01*
X12475Y-8468D02*
X12606Y-8468D01*
X12475Y-8553D02*
X12578Y-8553D01*
X12597Y-8543D01*
X12606Y-8524D01*
X12606Y-8496D01*
X12597Y-8478D01*
X12588Y-8468D01*
G54D11*
X20774Y-13916D02*
X20888Y-13916D01*
X20831Y-14116D02*
X20831Y-13916D01*
X20955Y-14116D02*
X20955Y-13916D01*
X21031Y-13916D01*
X21050Y-13925D01*
X21060Y-13935D01*
X21069Y-13954D01*
X21069Y-13983D01*
X21060Y-14002D01*
X21050Y-14011D01*
X21031Y-14021D01*
X20955Y-14021D01*
X21145Y-13935D02*
X21155Y-13925D01*
X21174Y-13916D01*
X21222Y-13916D01*
X21241Y-13925D01*
X21250Y-13935D01*
X21260Y-13954D01*
X21260Y-13973D01*
X21250Y-14002D01*
X21136Y-14116D01*
X21260Y-14116D01*
X21383Y-13916D02*
X21402Y-13916D01*
X21422Y-13925D01*
X21431Y-13935D01*
X21441Y-13954D01*
X21450Y-13992D01*
X21450Y-14040D01*
X21441Y-14078D01*
X21431Y-14097D01*
X21422Y-14106D01*
X21402Y-14116D01*
X21383Y-14116D01*
X21364Y-14106D01*
X21355Y-14097D01*
X21345Y-14078D01*
X21336Y-14040D01*
X21336Y-13992D01*
X21345Y-13954D01*
X21355Y-13935D01*
X21364Y-13925D01*
X21383Y-13916D01*
G54D17*
X20910Y-13278D02*
X20905Y-13283D01*
X20891Y-13288D01*
X20881Y-13288D01*
X20867Y-13283D01*
X20857Y-13274D01*
X20852Y-13264D01*
X20848Y-13245D01*
X20848Y-13231D01*
X20852Y-13212D01*
X20857Y-13202D01*
X20867Y-13193D01*
X20881Y-13188D01*
X20891Y-13188D01*
X20905Y-13193D01*
X20910Y-13198D01*
X20972Y-13188D02*
X20991Y-13188D01*
X21000Y-13193D01*
X21010Y-13202D01*
X21014Y-13221D01*
X21014Y-13255D01*
X21010Y-13274D01*
X21000Y-13283D01*
X20991Y-13288D01*
X20972Y-13288D01*
X20962Y-13283D01*
X20952Y-13274D01*
X20948Y-13255D01*
X20948Y-13221D01*
X20952Y-13202D01*
X20962Y-13193D01*
X20972Y-13188D01*
X21057Y-13288D02*
X21057Y-13188D01*
X21114Y-13288D01*
X21114Y-13188D01*
X21162Y-13288D02*
X21162Y-13188D01*
X21219Y-13288D01*
X21219Y-13188D01*
X21243Y-13298D02*
X21319Y-13298D01*
X21395Y-13288D02*
X21338Y-13288D01*
X21367Y-13288D02*
X21367Y-13188D01*
X21357Y-13202D01*
X21348Y-13212D01*
X21338Y-13217D01*
G54D11*
X13756Y-16327D02*
X13870Y-16327D01*
X13813Y-16527D02*
X13813Y-16327D01*
X13937Y-16527D02*
X13937Y-16327D01*
X14013Y-16327D01*
X14032Y-16337D01*
X14042Y-16346D01*
X14051Y-16365D01*
X14051Y-16394D01*
X14042Y-16413D01*
X14032Y-16423D01*
X14013Y-16432D01*
X13937Y-16432D01*
X14242Y-16527D02*
X14128Y-16527D01*
X14185Y-16527D02*
X14185Y-16327D01*
X14166Y-16356D01*
X14147Y-16375D01*
X14128Y-16384D01*
X14423Y-16327D02*
X14328Y-16327D01*
X14318Y-16423D01*
X14328Y-16413D01*
X14347Y-16403D01*
X14394Y-16403D01*
X14413Y-16413D01*
X14423Y-16423D01*
X14432Y-16442D01*
X14432Y-16489D01*
X14423Y-16508D01*
X14413Y-16518D01*
X14394Y-16527D01*
X14347Y-16527D01*
X14328Y-16518D01*
X14318Y-16508D01*
G54D17*
X13892Y-15690D02*
X13887Y-15695D01*
X13873Y-15699D01*
X13863Y-15699D01*
X13849Y-15695D01*
X13840Y-15685D01*
X13835Y-15676D01*
X13830Y-15657D01*
X13830Y-15642D01*
X13835Y-15623D01*
X13840Y-15614D01*
X13849Y-15604D01*
X13863Y-15599D01*
X13873Y-15599D01*
X13887Y-15604D01*
X13892Y-15609D01*
X13954Y-15599D02*
X13973Y-15599D01*
X13982Y-15604D01*
X13992Y-15614D01*
X13997Y-15633D01*
X13997Y-15666D01*
X13992Y-15685D01*
X13982Y-15695D01*
X13973Y-15699D01*
X13954Y-15699D01*
X13944Y-15695D01*
X13935Y-15685D01*
X13930Y-15666D01*
X13930Y-15633D01*
X13935Y-15614D01*
X13944Y-15604D01*
X13954Y-15599D01*
X14040Y-15699D02*
X14040Y-15599D01*
X14097Y-15699D01*
X14097Y-15599D01*
X14144Y-15699D02*
X14144Y-15599D01*
X14201Y-15699D01*
X14201Y-15599D01*
X14225Y-15709D02*
X14301Y-15709D01*
X14378Y-15699D02*
X14320Y-15699D01*
X14349Y-15699D02*
X14349Y-15599D01*
X14340Y-15614D01*
X14330Y-15623D01*
X14320Y-15628D01*
G54D11*
X14475Y-9024D02*
X14589Y-9024D01*
X14532Y-9224D02*
X14532Y-9024D01*
X14656Y-9224D02*
X14656Y-9024D01*
X14732Y-9024D01*
X14751Y-9034D01*
X14760Y-9043D01*
X14770Y-9062D01*
X14770Y-9091D01*
X14760Y-9110D01*
X14751Y-9119D01*
X14732Y-9129D01*
X14656Y-9129D01*
X14960Y-9224D02*
X14846Y-9224D01*
X14903Y-9224D02*
X14903Y-9024D01*
X14884Y-9053D01*
X14865Y-9072D01*
X14846Y-9081D01*
X15037Y-9043D02*
X15046Y-9034D01*
X15065Y-9024D01*
X15113Y-9024D01*
X15132Y-9034D01*
X15141Y-9043D01*
X15151Y-9062D01*
X15151Y-9081D01*
X15141Y-9110D01*
X15027Y-9224D01*
X15151Y-9224D01*
G54D17*
X14610Y-8387D02*
X14606Y-8392D01*
X14591Y-8396D01*
X14582Y-8396D01*
X14568Y-8392D01*
X14558Y-8382D01*
X14553Y-8372D01*
X14549Y-8353D01*
X14549Y-8339D01*
X14553Y-8320D01*
X14558Y-8311D01*
X14568Y-8301D01*
X14582Y-8296D01*
X14591Y-8296D01*
X14606Y-8301D01*
X14610Y-8306D01*
X14672Y-8296D02*
X14691Y-8296D01*
X14701Y-8301D01*
X14710Y-8311D01*
X14715Y-8330D01*
X14715Y-8363D01*
X14710Y-8382D01*
X14701Y-8392D01*
X14691Y-8396D01*
X14672Y-8396D01*
X14663Y-8392D01*
X14653Y-8382D01*
X14649Y-8363D01*
X14649Y-8330D01*
X14653Y-8311D01*
X14663Y-8301D01*
X14672Y-8296D01*
X14758Y-8396D02*
X14758Y-8296D01*
X14815Y-8396D01*
X14815Y-8296D01*
X14863Y-8396D02*
X14863Y-8296D01*
X14920Y-8396D01*
X14920Y-8296D01*
X14944Y-8406D02*
X15020Y-8406D01*
X15096Y-8396D02*
X15039Y-8396D01*
X15068Y-8396D02*
X15068Y-8296D01*
X15058Y-8311D01*
X15049Y-8320D01*
X15039Y-8325D01*
G54D11*
X14826Y-16347D02*
X14940Y-16347D01*
X14883Y-16547D02*
X14883Y-16347D01*
X15007Y-16547D02*
X15007Y-16347D01*
X15083Y-16347D01*
X15102Y-16357D01*
X15112Y-16366D01*
X15121Y-16385D01*
X15121Y-16414D01*
X15112Y-16433D01*
X15102Y-16442D01*
X15083Y-16452D01*
X15007Y-16452D01*
X15188Y-16347D02*
X15321Y-16347D01*
X15235Y-16547D01*
G54D17*
X14866Y-15710D02*
X14862Y-15714D01*
X14847Y-15719D01*
X14838Y-15719D01*
X14823Y-15714D01*
X14814Y-15705D01*
X14809Y-15695D01*
X14804Y-15676D01*
X14804Y-15662D01*
X14809Y-15643D01*
X14814Y-15633D01*
X14823Y-15624D01*
X14838Y-15619D01*
X14847Y-15619D01*
X14862Y-15624D01*
X14866Y-15629D01*
X14928Y-15619D02*
X14947Y-15619D01*
X14957Y-15624D01*
X14966Y-15633D01*
X14971Y-15652D01*
X14971Y-15686D01*
X14966Y-15705D01*
X14957Y-15714D01*
X14947Y-15719D01*
X14928Y-15719D01*
X14919Y-15714D01*
X14909Y-15705D01*
X14904Y-15686D01*
X14904Y-15652D01*
X14909Y-15633D01*
X14919Y-15624D01*
X14928Y-15619D01*
X15014Y-15719D02*
X15014Y-15619D01*
X15071Y-15719D01*
X15071Y-15619D01*
X15119Y-15719D02*
X15119Y-15619D01*
X15176Y-15719D01*
X15176Y-15619D01*
X15200Y-15729D02*
X15276Y-15729D01*
X15352Y-15719D02*
X15295Y-15719D01*
X15323Y-15719D02*
X15323Y-15619D01*
X15314Y-15633D01*
X15304Y-15643D01*
X15295Y-15648D01*
%LPC*%
G54D18*
X12658Y-11625D03*
X11908Y-11625D03*
X12658Y-12625D03*
X12283Y-11625D03*
X11908Y-12625D03*
G54D19*
X17820Y-15080D03*
X17820Y-14580D03*
X17820Y-14080D03*
X17820Y-13580D03*
X17820Y-13080D03*
X17820Y-12580D03*
X17820Y-12080D03*
X15620Y-12080D03*
X15620Y-12580D03*
X15620Y-13080D03*
X15620Y-13580D03*
X15620Y-14080D03*
X15620Y-14580D03*
X15620Y-15080D03*
G54D20*
X14125Y-8200D03*
X13375Y-8200D03*
X11875Y-10500D03*
X12625Y-10500D03*
G54D21*
X14911Y-11162D03*
X14911Y-10412D03*
X13474Y-11664D03*
X13474Y-10914D03*
X14862Y-9784D03*
X14862Y-9034D03*
X14832Y-11918D03*
X14832Y-12668D03*
X20976Y-14308D03*
X20976Y-15058D03*
X20058Y-14296D03*
X20058Y-15046D03*
G54D20*
X14221Y-16614D03*
X14971Y-16614D03*
X16022Y-16456D03*
X16772Y-16456D03*
G54D21*
X19150Y-14285D03*
X19150Y-15035D03*
G54D20*
X19286Y-15790D03*
X20036Y-15790D03*
X16875Y-10250D03*
X16125Y-10250D03*
G54D21*
X17800Y-10125D03*
X17800Y-9375D03*
G54D20*
X17175Y-9450D03*
X16425Y-9450D03*
X19034Y-11732D03*
X19784Y-11732D03*
X18071Y-11062D03*
X17321Y-11062D03*
X20256Y-12755D03*
X19506Y-12755D03*
G54D21*
X18740Y-12577D03*
X18740Y-13327D03*
G54D20*
X15678Y-8326D03*
X16428Y-8326D03*
G54D22*
X19212Y-9370D03*
X19212Y-10866D03*
X20905Y-10866D03*
X20905Y-9370D03*
X14301Y-14921D03*
X14301Y-13425D03*
G54D23*
X12923Y-9822D03*
X13789Y-9447D03*
X13789Y-10197D03*
G54D21*
X11771Y-8918D03*
X11771Y-8168D03*
X12027Y-14134D03*
X12027Y-13384D03*
G54D20*
X13426Y-16200D03*
X12676Y-16200D03*
X18347Y-16279D03*
X17597Y-16279D03*
G54D21*
X14153Y-11918D03*
X14153Y-12668D03*
G54D24*
X12050Y-17515D03*
X13043Y-17505D03*
X14047Y-17505D03*
X15051Y-17505D03*
X16055Y-17505D03*
X17059Y-17505D03*
X18073Y-17500D03*
X19077Y-17500D03*
X20081Y-17500D03*
X21085Y-17500D03*
G54D21*
X12677Y-8276D03*
X12677Y-9026D03*
G54D25*
X21122Y-13287D03*
X14104Y-15698D03*
X14822Y-8395D03*
X15078Y-15718D03*
M02*
