G04 (created by PCBNEW (2013-07-07 BZR 4022)-stable) date 11/20/2014 12:16:24 PM*
%MOIN*%
G04 Gerber Fmt 3.4, Leading zero omitted, Abs format*
%FSLAX34Y34*%
G01*
G70*
G90*
G04 APERTURE LIST*
%ADD10C,0.00590551*%
%ADD11R,0.05X0.025*%
%ADD12R,0.035X0.055*%
%ADD13R,0.055X0.035*%
%ADD14R,0.0393701X0.0393701*%
%ADD15R,0.0866X0.063*%
%ADD16C,0.0700787*%
%ADD17C,0.07*%
%ADD18C,0.01*%
G04 APERTURE END LIST*
G54D10*
G54D11*
X16700Y-14300D03*
X16700Y-13800D03*
X16700Y-13300D03*
X16700Y-12800D03*
X16700Y-12300D03*
X16700Y-11800D03*
X16700Y-11300D03*
X14500Y-11300D03*
X14500Y-11800D03*
X14500Y-12300D03*
X14500Y-12800D03*
X14500Y-13300D03*
X14500Y-13800D03*
X14500Y-14300D03*
G54D12*
X15603Y-6629D03*
X16353Y-6629D03*
G54D13*
X20350Y-13235D03*
X20350Y-13985D03*
X19190Y-13235D03*
X19190Y-13985D03*
G54D12*
X14835Y-15210D03*
X15585Y-15210D03*
X14875Y-16180D03*
X15625Y-16180D03*
X18681Y-12347D03*
X17931Y-12347D03*
X20359Y-12321D03*
X19609Y-12321D03*
X17594Y-6608D03*
X18344Y-6608D03*
X16195Y-9490D03*
X15445Y-9490D03*
X16219Y-7584D03*
X15469Y-7584D03*
X16219Y-8484D03*
X15469Y-8484D03*
X18483Y-15113D03*
X19233Y-15113D03*
G54D13*
X18010Y-13235D03*
X18010Y-13985D03*
G54D14*
X18254Y-10825D03*
X14210Y-15210D03*
X13840Y-7480D03*
X12380Y-13780D03*
G54D15*
X12870Y-14752D03*
X12870Y-16248D03*
X17954Y-9543D03*
X17954Y-8047D03*
X20118Y-6896D03*
X20118Y-8392D03*
G54D16*
X14270Y-17405D03*
X15263Y-17395D03*
X16267Y-17395D03*
X17271Y-17395D03*
X18275Y-17395D03*
G54D14*
X13360Y-10870D03*
G54D16*
X20687Y-11189D03*
X20713Y-9784D03*
X14100Y-9950D03*
X12820Y-9980D03*
X13190Y-13080D03*
X13160Y-11860D03*
G54D17*
X16490Y-15350D03*
G54D18*
X14210Y-15210D02*
X14835Y-15210D01*
X14835Y-15210D02*
X14835Y-14765D01*
X14970Y-13800D02*
X14500Y-13800D01*
X15030Y-13920D02*
X14970Y-13800D01*
X15030Y-14510D02*
X15030Y-13920D01*
X14835Y-14765D02*
X15030Y-14510D01*
X14875Y-16180D02*
X14875Y-15250D01*
X14875Y-15250D02*
X14835Y-15210D01*
X14270Y-17405D02*
X14270Y-17158D01*
X14270Y-17158D02*
X13080Y-15968D01*
X14270Y-17405D02*
X14270Y-16785D01*
X14270Y-16785D02*
X14875Y-16180D01*
X13160Y-11860D02*
X14440Y-11860D01*
X14440Y-11860D02*
X14500Y-11800D01*
X14484Y-11816D02*
X14500Y-11800D01*
X17954Y-8047D02*
X17954Y-7834D01*
X18344Y-7444D02*
X18344Y-6608D01*
X17954Y-7834D02*
X18344Y-7444D01*
X20118Y-6896D02*
X19188Y-6896D01*
X18900Y-6608D02*
X18344Y-6608D01*
X19188Y-6896D02*
X18900Y-6608D01*
X20098Y-6916D02*
X20118Y-6896D01*
X19923Y-7091D02*
X20118Y-6896D01*
X17330Y-18230D02*
X17330Y-17453D01*
X17330Y-17453D02*
X17271Y-17395D01*
X21230Y-13650D02*
X21230Y-13450D01*
X21015Y-13235D02*
X20350Y-13235D01*
X21230Y-13450D02*
X21015Y-13235D01*
X21230Y-18040D02*
X21230Y-13650D01*
X21230Y-13650D02*
X21230Y-13630D01*
X21040Y-18230D02*
X21230Y-18040D01*
X17323Y-18230D02*
X17330Y-18230D01*
X17330Y-18230D02*
X21040Y-18230D01*
X19190Y-13235D02*
X20350Y-13235D01*
X18010Y-13235D02*
X19190Y-13235D01*
X16700Y-12800D02*
X17110Y-12800D01*
X17545Y-13235D02*
X18010Y-13235D01*
X17110Y-12800D02*
X17545Y-13235D01*
X15625Y-16180D02*
X15625Y-16752D01*
X15625Y-16752D02*
X16267Y-17395D01*
X15585Y-15210D02*
X15585Y-16140D01*
X15585Y-16140D02*
X15625Y-16180D01*
X14100Y-9950D02*
X14985Y-9950D01*
X14985Y-9950D02*
X15445Y-9490D01*
X15445Y-9490D02*
X15445Y-8508D01*
X15445Y-8508D02*
X15469Y-8484D01*
X15520Y-10318D02*
X15463Y-9508D01*
X15463Y-9508D02*
X15445Y-9490D01*
X15520Y-13719D02*
X15520Y-10318D01*
X15520Y-10318D02*
X15512Y-10310D01*
X16242Y-13719D02*
X16323Y-13800D01*
X16323Y-13800D02*
X16700Y-13800D01*
X15512Y-13719D02*
X15520Y-13719D01*
X15520Y-13719D02*
X16242Y-13719D01*
X17265Y-14325D02*
X16725Y-14325D01*
X16725Y-14325D02*
X16700Y-14300D01*
X17265Y-13817D02*
X16717Y-13817D01*
X16717Y-13817D02*
X16700Y-13800D01*
X17265Y-14325D02*
X17265Y-13817D01*
X17265Y-14334D02*
X17265Y-14325D01*
X17265Y-14324D02*
X17265Y-14334D01*
X17265Y-14334D02*
X17265Y-14785D01*
X17560Y-16103D02*
X16267Y-17395D01*
X17560Y-15080D02*
X17560Y-16103D01*
X17265Y-14785D02*
X17560Y-15080D01*
X15469Y-8484D02*
X15469Y-7584D01*
X16653Y-14347D02*
X16700Y-14300D01*
X18681Y-12347D02*
X19583Y-12347D01*
X19583Y-12347D02*
X19609Y-12321D01*
X12870Y-14752D02*
X13099Y-14752D01*
X13551Y-14300D02*
X14500Y-14300D01*
X13099Y-14752D02*
X13551Y-14300D01*
X12380Y-13780D02*
X12380Y-14262D01*
X12380Y-14262D02*
X12870Y-14752D01*
X18010Y-13985D02*
X17835Y-13985D01*
X17150Y-13300D02*
X16700Y-13300D01*
X17835Y-13985D02*
X17150Y-13300D01*
X18483Y-15113D02*
X18483Y-14458D01*
X18483Y-14458D02*
X18010Y-13985D01*
X16195Y-9490D02*
X16195Y-8508D01*
X16195Y-8508D02*
X16219Y-8484D01*
X15813Y-11140D02*
X15813Y-10657D01*
X16195Y-10275D02*
X16195Y-9490D01*
X15813Y-10657D02*
X16195Y-10275D01*
X16700Y-12300D02*
X15961Y-12300D01*
X15813Y-12152D02*
X15813Y-11140D01*
X15813Y-11140D02*
X15813Y-11102D01*
X15961Y-12300D02*
X15813Y-12152D01*
X16700Y-12300D02*
X17884Y-12300D01*
X17884Y-12300D02*
X17931Y-12347D01*
X16219Y-7584D02*
X16704Y-7584D01*
X16983Y-9543D02*
X17954Y-9543D01*
X16820Y-9380D02*
X16983Y-9543D01*
X16820Y-7700D02*
X16820Y-9380D01*
X16704Y-7584D02*
X16820Y-7700D01*
X20713Y-9784D02*
X20713Y-8987D01*
X20713Y-8987D02*
X20118Y-8392D01*
X17954Y-9543D02*
X19313Y-9543D01*
X19554Y-9784D02*
X20713Y-9784D01*
X19313Y-9543D02*
X19554Y-9784D01*
X16700Y-11800D02*
X16238Y-11800D01*
X17954Y-10053D02*
X17954Y-9543D01*
X17283Y-10724D02*
X17954Y-10053D01*
X16590Y-10724D02*
X17283Y-10724D01*
X16184Y-11130D02*
X16590Y-10724D01*
X16184Y-11746D02*
X16184Y-11130D01*
X16238Y-11800D02*
X16184Y-11746D01*
X19854Y-8515D02*
X19932Y-8437D01*
X17241Y-6629D02*
X17573Y-6629D01*
X17573Y-6629D02*
X17594Y-6608D01*
X17594Y-6608D02*
X17594Y-6129D01*
X17594Y-6129D02*
X17654Y-6069D01*
X17955Y-6069D02*
X17654Y-6069D01*
X17654Y-6069D02*
X17647Y-6069D01*
X17244Y-6629D02*
X17241Y-6629D01*
X17241Y-6629D02*
X16353Y-6629D01*
X21454Y-10682D02*
X21454Y-6112D01*
X20947Y-11189D02*
X21454Y-10682D01*
X20687Y-11189D02*
X20947Y-11189D01*
X21411Y-6069D02*
X17955Y-6069D01*
X17955Y-6069D02*
X17906Y-6069D01*
X21454Y-6112D02*
X21411Y-6069D01*
X20359Y-12321D02*
X20359Y-11517D01*
X20359Y-11517D02*
X20687Y-11189D01*
X18254Y-10825D02*
X20323Y-10825D01*
X20323Y-10825D02*
X20687Y-11189D01*
X16700Y-11300D02*
X17779Y-11300D01*
X17779Y-11300D02*
X18254Y-10825D01*
X12820Y-9980D02*
X13260Y-9980D01*
X15030Y-12300D02*
X14500Y-12300D01*
X15170Y-12160D02*
X15030Y-12300D01*
X15170Y-10990D02*
X15170Y-12160D01*
X14750Y-10570D02*
X15170Y-10990D01*
X13850Y-10570D02*
X14750Y-10570D01*
X13260Y-9980D02*
X13850Y-10570D01*
X12820Y-9980D02*
X12820Y-8500D01*
X12820Y-8500D02*
X13840Y-7480D01*
X13840Y-7480D02*
X13840Y-7330D01*
X14541Y-6629D02*
X15603Y-6629D01*
X13840Y-7330D02*
X14541Y-6629D01*
X19190Y-13985D02*
X20350Y-13985D01*
X19233Y-15113D02*
X19233Y-14028D01*
X19233Y-14028D02*
X19190Y-13985D01*
X18275Y-17395D02*
X18275Y-17154D01*
X19233Y-16197D02*
X19233Y-15113D01*
X18275Y-17154D02*
X19233Y-16197D01*
X14500Y-12800D02*
X14910Y-12800D01*
X16490Y-15350D02*
X16100Y-14960D01*
X15260Y-14120D02*
X16100Y-14960D01*
X15260Y-13150D02*
X15260Y-14120D01*
X14910Y-12800D02*
X15260Y-13150D01*
X13190Y-13080D02*
X12430Y-13080D01*
X12720Y-10870D02*
X13360Y-10870D01*
X12410Y-11180D02*
X12720Y-10870D01*
X12410Y-13060D02*
X12410Y-11180D01*
X12430Y-13080D02*
X12410Y-13060D01*
X14500Y-13300D02*
X13410Y-13300D01*
X13410Y-13300D02*
X13190Y-13080D01*
X13360Y-10870D02*
X14070Y-10870D01*
X14070Y-10870D02*
X14500Y-11300D01*
X14479Y-13321D02*
X14500Y-13300D01*
M02*
