G04 (created by PCBNEW (2013-07-07 BZR 4022)-stable) date 11/20/2014 12:16:24 PM*
%MOIN*%
G04 Gerber Fmt 3.4, Leading zero omitted, Abs format*
%FSLAX34Y34*%
G01*
G70*
G90*
G04 APERTURE LIST*
%ADD10C,0.00590551*%
%ADD11C,0.005*%
%ADD12C,0.0039*%
%ADD13C,0.0059*%
%ADD14C,0.0043*%
%ADD15C,0.0025*%
%ADD16C,0.0047*%
%ADD17R,0.05X0.025*%
%ADD18R,0.035X0.055*%
%ADD19R,0.055X0.035*%
%ADD20R,0.0393701X0.0393701*%
%ADD21R,0.0866X0.063*%
%ADD22C,0.0700787*%
G04 APERTURE END LIST*
G54D10*
G54D11*
X14820Y-14500D02*
X16380Y-14500D01*
X16380Y-14500D02*
X16380Y-11100D01*
X16380Y-11100D02*
X14820Y-11100D01*
X14820Y-11100D02*
X14820Y-14500D01*
X14820Y-13800D02*
X14390Y-13800D01*
X14820Y-13300D02*
X14390Y-13300D01*
X14820Y-12800D02*
X14390Y-12800D01*
X14820Y-14300D02*
X14390Y-14300D01*
X14390Y-12300D02*
X14820Y-12300D01*
X14390Y-11800D02*
X14820Y-11800D01*
X14390Y-11300D02*
X14820Y-11300D01*
X16380Y-11300D02*
X16810Y-11300D01*
X16380Y-11800D02*
X16810Y-11800D01*
X16380Y-14300D02*
X16810Y-14300D01*
X16810Y-13800D02*
X16380Y-13800D01*
X16810Y-12300D02*
X16380Y-12300D01*
X16810Y-12800D02*
X16380Y-12800D01*
X16810Y-13300D02*
X16380Y-13300D01*
X16276Y-14210D02*
G75*
G03X16276Y-14210I-186J0D01*
G74*
G01*
G54D12*
X15378Y-6929D02*
G75*
G03X15378Y-6929I-50J0D01*
G74*
G01*
X15778Y-6929D02*
X15378Y-6929D01*
X15378Y-6929D02*
X15378Y-6329D01*
X15378Y-6329D02*
X15778Y-6329D01*
X16178Y-6329D02*
X16578Y-6329D01*
X16578Y-6329D02*
X16578Y-6929D01*
X16578Y-6929D02*
X16178Y-6929D01*
X20100Y-12960D02*
G75*
G03X20100Y-12960I-50J0D01*
G74*
G01*
X20050Y-13410D02*
X20050Y-13010D01*
X20050Y-13010D02*
X20650Y-13010D01*
X20650Y-13010D02*
X20650Y-13410D01*
X20650Y-13810D02*
X20650Y-14210D01*
X20650Y-14210D02*
X20050Y-14210D01*
X20050Y-14210D02*
X20050Y-13810D01*
X18940Y-12960D02*
G75*
G03X18940Y-12960I-50J0D01*
G74*
G01*
X18890Y-13410D02*
X18890Y-13010D01*
X18890Y-13010D02*
X19490Y-13010D01*
X19490Y-13010D02*
X19490Y-13410D01*
X19490Y-13810D02*
X19490Y-14210D01*
X19490Y-14210D02*
X18890Y-14210D01*
X18890Y-14210D02*
X18890Y-13810D01*
X14610Y-15510D02*
G75*
G03X14610Y-15510I-50J0D01*
G74*
G01*
X15010Y-15510D02*
X14610Y-15510D01*
X14610Y-15510D02*
X14610Y-14910D01*
X14610Y-14910D02*
X15010Y-14910D01*
X15410Y-14910D02*
X15810Y-14910D01*
X15810Y-14910D02*
X15810Y-15510D01*
X15810Y-15510D02*
X15410Y-15510D01*
X14650Y-16480D02*
G75*
G03X14650Y-16480I-50J0D01*
G74*
G01*
X15050Y-16480D02*
X14650Y-16480D01*
X14650Y-16480D02*
X14650Y-15880D01*
X14650Y-15880D02*
X15050Y-15880D01*
X15450Y-15880D02*
X15850Y-15880D01*
X15850Y-15880D02*
X15850Y-16480D01*
X15850Y-16480D02*
X15450Y-16480D01*
X19006Y-12047D02*
G75*
G03X19006Y-12047I-50J0D01*
G74*
G01*
X18506Y-12047D02*
X18906Y-12047D01*
X18906Y-12047D02*
X18906Y-12647D01*
X18906Y-12647D02*
X18506Y-12647D01*
X18106Y-12647D02*
X17706Y-12647D01*
X17706Y-12647D02*
X17706Y-12047D01*
X17706Y-12047D02*
X18106Y-12047D01*
X20684Y-12021D02*
G75*
G03X20684Y-12021I-50J0D01*
G74*
G01*
X20184Y-12021D02*
X20584Y-12021D01*
X20584Y-12021D02*
X20584Y-12621D01*
X20584Y-12621D02*
X20184Y-12621D01*
X19784Y-12621D02*
X19384Y-12621D01*
X19384Y-12621D02*
X19384Y-12021D01*
X19384Y-12021D02*
X19784Y-12021D01*
X17369Y-6908D02*
G75*
G03X17369Y-6908I-50J0D01*
G74*
G01*
X17769Y-6908D02*
X17369Y-6908D01*
X17369Y-6908D02*
X17369Y-6308D01*
X17369Y-6308D02*
X17769Y-6308D01*
X18169Y-6308D02*
X18569Y-6308D01*
X18569Y-6308D02*
X18569Y-6908D01*
X18569Y-6908D02*
X18169Y-6908D01*
X16520Y-9190D02*
G75*
G03X16520Y-9190I-50J0D01*
G74*
G01*
X16020Y-9190D02*
X16420Y-9190D01*
X16420Y-9190D02*
X16420Y-9790D01*
X16420Y-9790D02*
X16020Y-9790D01*
X15620Y-9790D02*
X15220Y-9790D01*
X15220Y-9790D02*
X15220Y-9190D01*
X15220Y-9190D02*
X15620Y-9190D01*
X16544Y-7284D02*
G75*
G03X16544Y-7284I-50J0D01*
G74*
G01*
X16044Y-7284D02*
X16444Y-7284D01*
X16444Y-7284D02*
X16444Y-7884D01*
X16444Y-7884D02*
X16044Y-7884D01*
X15644Y-7884D02*
X15244Y-7884D01*
X15244Y-7884D02*
X15244Y-7284D01*
X15244Y-7284D02*
X15644Y-7284D01*
X16544Y-8184D02*
G75*
G03X16544Y-8184I-50J0D01*
G74*
G01*
X16044Y-8184D02*
X16444Y-8184D01*
X16444Y-8184D02*
X16444Y-8784D01*
X16444Y-8784D02*
X16044Y-8784D01*
X15644Y-8784D02*
X15244Y-8784D01*
X15244Y-8784D02*
X15244Y-8184D01*
X15244Y-8184D02*
X15644Y-8184D01*
X18258Y-15413D02*
G75*
G03X18258Y-15413I-50J0D01*
G74*
G01*
X18658Y-15413D02*
X18258Y-15413D01*
X18258Y-15413D02*
X18258Y-14813D01*
X18258Y-14813D02*
X18658Y-14813D01*
X19058Y-14813D02*
X19458Y-14813D01*
X19458Y-14813D02*
X19458Y-15413D01*
X19458Y-15413D02*
X19058Y-15413D01*
X17760Y-12960D02*
G75*
G03X17760Y-12960I-50J0D01*
G74*
G01*
X17710Y-13410D02*
X17710Y-13010D01*
X17710Y-13010D02*
X18310Y-13010D01*
X18310Y-13010D02*
X18310Y-13410D01*
X18310Y-13810D02*
X18310Y-14210D01*
X18310Y-14210D02*
X17710Y-14210D01*
X17710Y-14210D02*
X17710Y-13810D01*
G54D11*
X12870Y-15200D02*
X12870Y-15120D01*
X13620Y-14600D02*
X13620Y-16400D01*
X13620Y-16400D02*
X13370Y-16400D01*
X12120Y-15760D02*
X13620Y-15760D01*
X12120Y-15890D02*
X13620Y-15890D01*
X12370Y-14600D02*
X12120Y-14600D01*
X12120Y-14600D02*
X12120Y-16400D01*
X12120Y-16400D02*
X12370Y-16400D01*
X13370Y-14600D02*
X13620Y-14600D01*
X12870Y-15450D02*
X13057Y-15200D01*
X13057Y-15200D02*
X12870Y-15200D01*
X12870Y-15200D02*
X12683Y-15200D01*
X12683Y-15200D02*
X12870Y-15450D01*
X12870Y-15450D02*
X12995Y-15450D01*
X12995Y-15450D02*
X13057Y-15388D01*
X12870Y-15450D02*
X12745Y-15450D01*
X12745Y-15450D02*
X12683Y-15512D01*
X12870Y-15450D02*
X12870Y-15887D01*
X17954Y-9095D02*
X17954Y-9175D01*
X17204Y-9695D02*
X17204Y-7895D01*
X17204Y-7895D02*
X17454Y-7895D01*
X18704Y-8535D02*
X17204Y-8535D01*
X18704Y-8405D02*
X17204Y-8405D01*
X18454Y-9695D02*
X18704Y-9695D01*
X18704Y-9695D02*
X18704Y-7895D01*
X18704Y-7895D02*
X18454Y-7895D01*
X17454Y-9695D02*
X17204Y-9695D01*
X17954Y-8845D02*
X17767Y-9095D01*
X17767Y-9095D02*
X17954Y-9095D01*
X17954Y-9095D02*
X18141Y-9095D01*
X18141Y-9095D02*
X17954Y-8845D01*
X17954Y-8845D02*
X17829Y-8845D01*
X17829Y-8845D02*
X17767Y-8907D01*
X17954Y-8845D02*
X18079Y-8845D01*
X18079Y-8845D02*
X18141Y-8783D01*
X17954Y-8845D02*
X17954Y-8408D01*
X20118Y-7344D02*
X20118Y-7264D01*
X20868Y-6744D02*
X20868Y-8544D01*
X20868Y-8544D02*
X20618Y-8544D01*
X19368Y-7904D02*
X20868Y-7904D01*
X19368Y-8034D02*
X20868Y-8034D01*
X19618Y-6744D02*
X19368Y-6744D01*
X19368Y-6744D02*
X19368Y-8544D01*
X19368Y-8544D02*
X19618Y-8544D01*
X20618Y-6744D02*
X20868Y-6744D01*
X20118Y-7594D02*
X20305Y-7344D01*
X20305Y-7344D02*
X20118Y-7344D01*
X20118Y-7344D02*
X19931Y-7344D01*
X19931Y-7344D02*
X20118Y-7594D01*
X20118Y-7594D02*
X20243Y-7594D01*
X20243Y-7594D02*
X20305Y-7532D01*
X20118Y-7594D02*
X19993Y-7594D01*
X19993Y-7594D02*
X19931Y-7656D01*
X20118Y-7594D02*
X20118Y-8031D01*
G54D10*
X13679Y-16799D02*
X18797Y-16799D01*
X18797Y-16799D02*
X18797Y-17980D01*
X18797Y-17980D02*
X13679Y-17980D01*
X13679Y-16799D02*
X13679Y-17980D01*
G54D13*
X15024Y-13024D02*
X15263Y-13024D01*
X15291Y-13010D01*
X15305Y-12996D01*
X15319Y-12968D01*
X15319Y-12912D01*
X15305Y-12884D01*
X15291Y-12870D01*
X15263Y-12856D01*
X15024Y-12856D01*
X15319Y-12561D02*
X15319Y-12729D01*
X15319Y-12645D02*
X15024Y-12645D01*
X15066Y-12673D01*
X15094Y-12701D01*
X15108Y-12729D01*
X16119Y-13755D02*
X15824Y-13755D01*
X16035Y-13656D01*
X15824Y-13558D01*
X16119Y-13558D01*
X16091Y-13249D02*
X16105Y-13263D01*
X16119Y-13305D01*
X16119Y-13333D01*
X16105Y-13375D01*
X16077Y-13404D01*
X16049Y-13418D01*
X15992Y-13432D01*
X15950Y-13432D01*
X15894Y-13418D01*
X15866Y-13404D01*
X15838Y-13375D01*
X15824Y-13333D01*
X15824Y-13305D01*
X15838Y-13263D01*
X15852Y-13249D01*
X16119Y-13123D02*
X15824Y-13123D01*
X15824Y-13010D01*
X15838Y-12982D01*
X15852Y-12968D01*
X15880Y-12954D01*
X15922Y-12954D01*
X15950Y-12968D01*
X15964Y-12982D01*
X15978Y-13010D01*
X15978Y-13123D01*
X15824Y-12701D02*
X15824Y-12757D01*
X15838Y-12785D01*
X15852Y-12799D01*
X15894Y-12828D01*
X15950Y-12842D01*
X16063Y-12842D01*
X16091Y-12828D01*
X16105Y-12814D01*
X16119Y-12785D01*
X16119Y-12729D01*
X16105Y-12701D01*
X16091Y-12687D01*
X16063Y-12673D01*
X15992Y-12673D01*
X15964Y-12687D01*
X15950Y-12701D01*
X15936Y-12729D01*
X15936Y-12785D01*
X15950Y-12814D01*
X15964Y-12828D01*
X15992Y-12842D01*
X15852Y-12561D02*
X15838Y-12547D01*
X15824Y-12519D01*
X15824Y-12448D01*
X15838Y-12420D01*
X15852Y-12406D01*
X15880Y-12392D01*
X15908Y-12392D01*
X15950Y-12406D01*
X16119Y-12575D01*
X16119Y-12392D01*
X15922Y-12139D02*
X16119Y-12139D01*
X15810Y-12209D02*
X16021Y-12280D01*
X16021Y-12097D01*
X15922Y-11858D02*
X16119Y-11858D01*
X15810Y-11929D02*
X16021Y-11999D01*
X16021Y-11816D01*
G54D14*
X15851Y-6583D02*
X15785Y-6489D01*
X15738Y-6583D02*
X15738Y-6386D01*
X15813Y-6386D01*
X15832Y-6396D01*
X15841Y-6405D01*
X15851Y-6424D01*
X15851Y-6452D01*
X15841Y-6471D01*
X15832Y-6480D01*
X15813Y-6489D01*
X15738Y-6489D01*
X16038Y-6583D02*
X15926Y-6583D01*
X15982Y-6583D02*
X15982Y-6386D01*
X15963Y-6414D01*
X15945Y-6433D01*
X15926Y-6443D01*
X16104Y-6386D02*
X16226Y-6386D01*
X16160Y-6461D01*
X16189Y-6461D01*
X16207Y-6471D01*
X16217Y-6480D01*
X16226Y-6499D01*
X16226Y-6546D01*
X16217Y-6564D01*
X16207Y-6574D01*
X16189Y-6583D01*
X16132Y-6583D01*
X16114Y-6574D01*
X16104Y-6564D01*
X15748Y-6858D02*
X15635Y-6858D01*
X15691Y-6858D02*
X15691Y-6661D01*
X15673Y-6689D01*
X15654Y-6708D01*
X15635Y-6718D01*
X15870Y-6661D02*
X15888Y-6661D01*
X15907Y-6671D01*
X15917Y-6680D01*
X15926Y-6699D01*
X15935Y-6736D01*
X15935Y-6783D01*
X15926Y-6821D01*
X15917Y-6839D01*
X15907Y-6849D01*
X15888Y-6858D01*
X15870Y-6858D01*
X15851Y-6849D01*
X15841Y-6839D01*
X15832Y-6821D01*
X15823Y-6783D01*
X15823Y-6736D01*
X15832Y-6699D01*
X15841Y-6680D01*
X15851Y-6671D01*
X15870Y-6661D01*
X16057Y-6661D02*
X16076Y-6661D01*
X16095Y-6671D01*
X16104Y-6680D01*
X16114Y-6699D01*
X16123Y-6736D01*
X16123Y-6783D01*
X16114Y-6821D01*
X16104Y-6839D01*
X16095Y-6849D01*
X16076Y-6858D01*
X16057Y-6858D01*
X16038Y-6849D01*
X16029Y-6839D01*
X16020Y-6821D01*
X16010Y-6783D01*
X16010Y-6736D01*
X16020Y-6699D01*
X16029Y-6680D01*
X16038Y-6671D01*
X16057Y-6661D01*
X16207Y-6858D02*
X16207Y-6661D01*
X16320Y-6858D02*
X16235Y-6746D01*
X16320Y-6661D02*
X16207Y-6774D01*
X20535Y-13736D02*
X20545Y-13746D01*
X20554Y-13774D01*
X20554Y-13792D01*
X20545Y-13821D01*
X20526Y-13839D01*
X20507Y-13849D01*
X20470Y-13858D01*
X20442Y-13858D01*
X20404Y-13849D01*
X20385Y-13839D01*
X20367Y-13821D01*
X20357Y-13792D01*
X20357Y-13774D01*
X20367Y-13746D01*
X20376Y-13736D01*
X20554Y-13549D02*
X20554Y-13661D01*
X20554Y-13605D02*
X20357Y-13605D01*
X20385Y-13624D01*
X20404Y-13642D01*
X20414Y-13661D01*
X20357Y-13483D02*
X20357Y-13361D01*
X20432Y-13427D01*
X20432Y-13398D01*
X20442Y-13380D01*
X20451Y-13370D01*
X20470Y-13361D01*
X20517Y-13361D01*
X20535Y-13370D01*
X20545Y-13380D01*
X20554Y-13398D01*
X20554Y-13455D01*
X20545Y-13473D01*
X20535Y-13483D01*
X20260Y-13792D02*
X20270Y-13783D01*
X20279Y-13792D01*
X20270Y-13802D01*
X20260Y-13792D01*
X20279Y-13792D01*
X20279Y-13595D02*
X20279Y-13708D01*
X20279Y-13652D02*
X20082Y-13652D01*
X20110Y-13670D01*
X20129Y-13689D01*
X20139Y-13708D01*
X20148Y-13427D02*
X20279Y-13427D01*
X20148Y-13511D02*
X20251Y-13511D01*
X20270Y-13502D01*
X20279Y-13483D01*
X20279Y-13455D01*
X20270Y-13436D01*
X20260Y-13427D01*
X19375Y-13736D02*
X19385Y-13746D01*
X19394Y-13774D01*
X19394Y-13792D01*
X19385Y-13821D01*
X19366Y-13839D01*
X19347Y-13849D01*
X19310Y-13858D01*
X19282Y-13858D01*
X19244Y-13849D01*
X19225Y-13839D01*
X19207Y-13821D01*
X19197Y-13792D01*
X19197Y-13774D01*
X19207Y-13746D01*
X19216Y-13736D01*
X19394Y-13549D02*
X19394Y-13661D01*
X19394Y-13605D02*
X19197Y-13605D01*
X19225Y-13624D01*
X19244Y-13642D01*
X19254Y-13661D01*
X19216Y-13473D02*
X19207Y-13464D01*
X19197Y-13445D01*
X19197Y-13398D01*
X19207Y-13380D01*
X19216Y-13370D01*
X19235Y-13361D01*
X19254Y-13361D01*
X19282Y-13370D01*
X19394Y-13483D01*
X19394Y-13361D01*
X19100Y-13792D02*
X19110Y-13783D01*
X19119Y-13792D01*
X19110Y-13802D01*
X19100Y-13792D01*
X19119Y-13792D01*
X19119Y-13595D02*
X19119Y-13708D01*
X19119Y-13652D02*
X18922Y-13652D01*
X18950Y-13670D01*
X18969Y-13689D01*
X18979Y-13708D01*
X18988Y-13427D02*
X19119Y-13427D01*
X18988Y-13511D02*
X19091Y-13511D01*
X19110Y-13502D01*
X19119Y-13483D01*
X19119Y-13455D01*
X19110Y-13436D01*
X19100Y-13427D01*
X15177Y-15145D02*
X15167Y-15155D01*
X15139Y-15164D01*
X15120Y-15164D01*
X15092Y-15155D01*
X15073Y-15136D01*
X15064Y-15117D01*
X15055Y-15080D01*
X15055Y-15052D01*
X15064Y-15014D01*
X15073Y-14995D01*
X15092Y-14977D01*
X15120Y-14967D01*
X15139Y-14967D01*
X15167Y-14977D01*
X15177Y-14986D01*
X15242Y-14967D02*
X15364Y-14967D01*
X15299Y-15042D01*
X15327Y-15042D01*
X15346Y-15052D01*
X15355Y-15061D01*
X15364Y-15080D01*
X15364Y-15127D01*
X15355Y-15145D01*
X15346Y-15155D01*
X15327Y-15164D01*
X15270Y-15164D01*
X15252Y-15155D01*
X15242Y-15145D01*
X15177Y-15439D02*
X15064Y-15439D01*
X15120Y-15439D02*
X15120Y-15242D01*
X15102Y-15270D01*
X15083Y-15289D01*
X15064Y-15299D01*
X15346Y-15308D02*
X15346Y-15439D01*
X15261Y-15308D02*
X15261Y-15411D01*
X15270Y-15430D01*
X15289Y-15439D01*
X15317Y-15439D01*
X15336Y-15430D01*
X15346Y-15420D01*
X15123Y-16134D02*
X15057Y-16040D01*
X15010Y-16134D02*
X15010Y-15937D01*
X15085Y-15937D01*
X15104Y-15947D01*
X15113Y-15956D01*
X15123Y-15975D01*
X15123Y-16003D01*
X15113Y-16022D01*
X15104Y-16031D01*
X15085Y-16040D01*
X15010Y-16040D01*
X15310Y-16134D02*
X15198Y-16134D01*
X15254Y-16134D02*
X15254Y-15937D01*
X15235Y-15965D01*
X15217Y-15984D01*
X15198Y-15994D01*
X15432Y-15937D02*
X15451Y-15937D01*
X15470Y-15947D01*
X15479Y-15956D01*
X15489Y-15975D01*
X15498Y-16012D01*
X15498Y-16059D01*
X15489Y-16097D01*
X15479Y-16115D01*
X15470Y-16125D01*
X15451Y-16134D01*
X15432Y-16134D01*
X15414Y-16125D01*
X15404Y-16115D01*
X15395Y-16097D01*
X15386Y-16059D01*
X15386Y-16012D01*
X15395Y-15975D01*
X15404Y-15956D01*
X15414Y-15947D01*
X15432Y-15937D01*
X15113Y-16409D02*
X15001Y-16409D01*
X15057Y-16409D02*
X15057Y-16212D01*
X15038Y-16240D01*
X15020Y-16259D01*
X15001Y-16269D01*
X15235Y-16212D02*
X15254Y-16212D01*
X15273Y-16222D01*
X15282Y-16231D01*
X15292Y-16250D01*
X15301Y-16287D01*
X15301Y-16334D01*
X15292Y-16372D01*
X15282Y-16390D01*
X15273Y-16400D01*
X15254Y-16409D01*
X15235Y-16409D01*
X15217Y-16400D01*
X15207Y-16390D01*
X15198Y-16372D01*
X15189Y-16334D01*
X15189Y-16287D01*
X15198Y-16250D01*
X15207Y-16231D01*
X15217Y-16222D01*
X15235Y-16212D01*
X15386Y-16409D02*
X15386Y-16212D01*
X15498Y-16409D02*
X15414Y-16297D01*
X15498Y-16212D02*
X15386Y-16325D01*
X18179Y-12551D02*
X18113Y-12457D01*
X18066Y-12551D02*
X18066Y-12354D01*
X18141Y-12354D01*
X18160Y-12364D01*
X18169Y-12373D01*
X18179Y-12392D01*
X18179Y-12420D01*
X18169Y-12439D01*
X18160Y-12448D01*
X18141Y-12457D01*
X18066Y-12457D01*
X18366Y-12551D02*
X18254Y-12551D01*
X18310Y-12551D02*
X18310Y-12354D01*
X18291Y-12382D01*
X18273Y-12401D01*
X18254Y-12411D01*
X18535Y-12420D02*
X18535Y-12551D01*
X18488Y-12345D02*
X18442Y-12486D01*
X18563Y-12486D01*
X18263Y-12276D02*
X18151Y-12276D01*
X18207Y-12276D02*
X18207Y-12079D01*
X18188Y-12107D01*
X18169Y-12126D01*
X18151Y-12136D01*
X18348Y-12276D02*
X18348Y-12079D01*
X18460Y-12276D02*
X18376Y-12164D01*
X18460Y-12079D02*
X18348Y-12192D01*
X19951Y-12506D02*
X19941Y-12516D01*
X19913Y-12525D01*
X19894Y-12525D01*
X19866Y-12516D01*
X19847Y-12497D01*
X19838Y-12478D01*
X19829Y-12441D01*
X19829Y-12413D01*
X19838Y-12375D01*
X19847Y-12356D01*
X19866Y-12338D01*
X19894Y-12328D01*
X19913Y-12328D01*
X19941Y-12338D01*
X19951Y-12347D01*
X20044Y-12525D02*
X20082Y-12525D01*
X20101Y-12516D01*
X20110Y-12506D01*
X20129Y-12478D01*
X20138Y-12441D01*
X20138Y-12366D01*
X20129Y-12347D01*
X20120Y-12338D01*
X20101Y-12328D01*
X20063Y-12328D01*
X20044Y-12338D01*
X20035Y-12347D01*
X20026Y-12366D01*
X20026Y-12413D01*
X20035Y-12431D01*
X20044Y-12441D01*
X20063Y-12450D01*
X20101Y-12450D01*
X20120Y-12441D01*
X20129Y-12431D01*
X20138Y-12413D01*
X19763Y-12250D02*
X19650Y-12250D01*
X19707Y-12250D02*
X19707Y-12053D01*
X19688Y-12081D01*
X19669Y-12100D01*
X19650Y-12110D01*
X19885Y-12053D02*
X19904Y-12053D01*
X19923Y-12063D01*
X19932Y-12072D01*
X19941Y-12091D01*
X19951Y-12128D01*
X19951Y-12175D01*
X19941Y-12213D01*
X19932Y-12231D01*
X19923Y-12241D01*
X19904Y-12250D01*
X19885Y-12250D01*
X19866Y-12241D01*
X19857Y-12231D01*
X19847Y-12213D01*
X19838Y-12175D01*
X19838Y-12128D01*
X19847Y-12091D01*
X19857Y-12072D01*
X19866Y-12063D01*
X19885Y-12053D01*
X20073Y-12053D02*
X20091Y-12053D01*
X20110Y-12063D01*
X20120Y-12072D01*
X20129Y-12091D01*
X20138Y-12128D01*
X20138Y-12175D01*
X20129Y-12213D01*
X20120Y-12231D01*
X20110Y-12241D01*
X20091Y-12250D01*
X20073Y-12250D01*
X20054Y-12241D01*
X20044Y-12231D01*
X20035Y-12213D01*
X20026Y-12175D01*
X20026Y-12128D01*
X20035Y-12091D01*
X20044Y-12072D01*
X20054Y-12063D01*
X20073Y-12053D01*
X20223Y-12119D02*
X20223Y-12250D01*
X20223Y-12138D02*
X20232Y-12128D01*
X20251Y-12119D01*
X20279Y-12119D01*
X20298Y-12128D01*
X20307Y-12147D01*
X20307Y-12250D01*
X17842Y-6543D02*
X17832Y-6553D01*
X17804Y-6562D01*
X17786Y-6562D01*
X17757Y-6553D01*
X17739Y-6534D01*
X17729Y-6515D01*
X17720Y-6478D01*
X17720Y-6450D01*
X17729Y-6412D01*
X17739Y-6393D01*
X17757Y-6375D01*
X17786Y-6365D01*
X17804Y-6365D01*
X17832Y-6375D01*
X17842Y-6384D01*
X18029Y-6562D02*
X17917Y-6562D01*
X17973Y-6562D02*
X17973Y-6365D01*
X17954Y-6393D01*
X17936Y-6412D01*
X17917Y-6422D01*
X18151Y-6365D02*
X18170Y-6365D01*
X18189Y-6375D01*
X18198Y-6384D01*
X18208Y-6403D01*
X18217Y-6440D01*
X18217Y-6487D01*
X18208Y-6525D01*
X18198Y-6543D01*
X18189Y-6553D01*
X18170Y-6562D01*
X18151Y-6562D01*
X18133Y-6553D01*
X18123Y-6543D01*
X18114Y-6525D01*
X18105Y-6487D01*
X18105Y-6440D01*
X18114Y-6403D01*
X18123Y-6384D01*
X18133Y-6375D01*
X18151Y-6365D01*
X17748Y-6837D02*
X17635Y-6837D01*
X17692Y-6837D02*
X17692Y-6640D01*
X17673Y-6668D01*
X17654Y-6687D01*
X17635Y-6697D01*
X17870Y-6640D02*
X17889Y-6640D01*
X17908Y-6650D01*
X17917Y-6659D01*
X17926Y-6678D01*
X17936Y-6715D01*
X17936Y-6762D01*
X17926Y-6800D01*
X17917Y-6818D01*
X17908Y-6828D01*
X17889Y-6837D01*
X17870Y-6837D01*
X17851Y-6828D01*
X17842Y-6818D01*
X17832Y-6800D01*
X17823Y-6762D01*
X17823Y-6715D01*
X17832Y-6678D01*
X17842Y-6659D01*
X17851Y-6650D01*
X17870Y-6640D01*
X18058Y-6640D02*
X18076Y-6640D01*
X18095Y-6650D01*
X18105Y-6659D01*
X18114Y-6678D01*
X18123Y-6715D01*
X18123Y-6762D01*
X18114Y-6800D01*
X18105Y-6818D01*
X18095Y-6828D01*
X18076Y-6837D01*
X18058Y-6837D01*
X18039Y-6828D01*
X18029Y-6818D01*
X18020Y-6800D01*
X18011Y-6762D01*
X18011Y-6715D01*
X18020Y-6678D01*
X18029Y-6659D01*
X18039Y-6650D01*
X18058Y-6640D01*
X18208Y-6706D02*
X18208Y-6837D01*
X18208Y-6725D02*
X18217Y-6715D01*
X18236Y-6706D01*
X18264Y-6706D01*
X18283Y-6715D01*
X18292Y-6734D01*
X18292Y-6837D01*
X15693Y-9675D02*
X15683Y-9685D01*
X15655Y-9694D01*
X15637Y-9694D01*
X15608Y-9685D01*
X15590Y-9666D01*
X15580Y-9647D01*
X15571Y-9610D01*
X15571Y-9582D01*
X15580Y-9544D01*
X15590Y-9525D01*
X15608Y-9507D01*
X15637Y-9497D01*
X15655Y-9497D01*
X15683Y-9507D01*
X15693Y-9516D01*
X15880Y-9694D02*
X15768Y-9694D01*
X15824Y-9694D02*
X15824Y-9497D01*
X15805Y-9525D01*
X15787Y-9544D01*
X15768Y-9554D01*
X16068Y-9694D02*
X15956Y-9694D01*
X16012Y-9694D02*
X16012Y-9497D01*
X15993Y-9525D01*
X15974Y-9544D01*
X15956Y-9554D01*
X15599Y-9419D02*
X15486Y-9419D01*
X15543Y-9419D02*
X15543Y-9222D01*
X15524Y-9250D01*
X15505Y-9269D01*
X15486Y-9279D01*
X15721Y-9222D02*
X15740Y-9222D01*
X15759Y-9232D01*
X15768Y-9241D01*
X15777Y-9260D01*
X15787Y-9297D01*
X15787Y-9344D01*
X15777Y-9382D01*
X15768Y-9400D01*
X15759Y-9410D01*
X15740Y-9419D01*
X15721Y-9419D01*
X15702Y-9410D01*
X15693Y-9400D01*
X15683Y-9382D01*
X15674Y-9344D01*
X15674Y-9297D01*
X15683Y-9260D01*
X15693Y-9241D01*
X15702Y-9232D01*
X15721Y-9222D01*
X15909Y-9222D02*
X15927Y-9222D01*
X15946Y-9232D01*
X15956Y-9241D01*
X15965Y-9260D01*
X15974Y-9297D01*
X15974Y-9344D01*
X15965Y-9382D01*
X15956Y-9400D01*
X15946Y-9410D01*
X15927Y-9419D01*
X15909Y-9419D01*
X15890Y-9410D01*
X15880Y-9400D01*
X15871Y-9382D01*
X15862Y-9344D01*
X15862Y-9297D01*
X15871Y-9260D01*
X15880Y-9241D01*
X15890Y-9232D01*
X15909Y-9222D01*
X16059Y-9288D02*
X16059Y-9419D01*
X16059Y-9307D02*
X16068Y-9297D01*
X16087Y-9288D01*
X16115Y-9288D01*
X16134Y-9297D01*
X16143Y-9316D01*
X16143Y-9419D01*
X15717Y-7788D02*
X15651Y-7694D01*
X15604Y-7788D02*
X15604Y-7591D01*
X15679Y-7591D01*
X15698Y-7601D01*
X15707Y-7610D01*
X15717Y-7629D01*
X15717Y-7657D01*
X15707Y-7676D01*
X15698Y-7685D01*
X15679Y-7694D01*
X15604Y-7694D01*
X15904Y-7788D02*
X15792Y-7788D01*
X15848Y-7788D02*
X15848Y-7591D01*
X15829Y-7619D01*
X15811Y-7638D01*
X15792Y-7648D01*
X16073Y-7591D02*
X16036Y-7591D01*
X16017Y-7601D01*
X16008Y-7610D01*
X15989Y-7638D01*
X15980Y-7676D01*
X15980Y-7751D01*
X15989Y-7769D01*
X15998Y-7779D01*
X16017Y-7788D01*
X16055Y-7788D01*
X16073Y-7779D01*
X16083Y-7769D01*
X16092Y-7751D01*
X16092Y-7704D01*
X16083Y-7685D01*
X16073Y-7676D01*
X16055Y-7666D01*
X16017Y-7666D01*
X15998Y-7676D01*
X15989Y-7685D01*
X15980Y-7704D01*
X15707Y-7513D02*
X15595Y-7513D01*
X15651Y-7513D02*
X15651Y-7316D01*
X15632Y-7344D01*
X15614Y-7363D01*
X15595Y-7373D01*
X15829Y-7316D02*
X15848Y-7316D01*
X15867Y-7326D01*
X15876Y-7335D01*
X15886Y-7354D01*
X15895Y-7391D01*
X15895Y-7438D01*
X15886Y-7476D01*
X15876Y-7494D01*
X15867Y-7504D01*
X15848Y-7513D01*
X15829Y-7513D01*
X15811Y-7504D01*
X15801Y-7494D01*
X15792Y-7476D01*
X15783Y-7438D01*
X15783Y-7391D01*
X15792Y-7354D01*
X15801Y-7335D01*
X15811Y-7326D01*
X15829Y-7316D01*
X15980Y-7513D02*
X15980Y-7316D01*
X16092Y-7513D02*
X16008Y-7401D01*
X16092Y-7316D02*
X15980Y-7429D01*
X15717Y-8688D02*
X15651Y-8594D01*
X15604Y-8688D02*
X15604Y-8491D01*
X15679Y-8491D01*
X15698Y-8501D01*
X15707Y-8510D01*
X15717Y-8529D01*
X15717Y-8557D01*
X15707Y-8576D01*
X15698Y-8585D01*
X15679Y-8594D01*
X15604Y-8594D01*
X15904Y-8688D02*
X15792Y-8688D01*
X15848Y-8688D02*
X15848Y-8491D01*
X15829Y-8519D01*
X15811Y-8538D01*
X15792Y-8548D01*
X15998Y-8688D02*
X16036Y-8688D01*
X16055Y-8679D01*
X16064Y-8669D01*
X16083Y-8641D01*
X16092Y-8604D01*
X16092Y-8529D01*
X16083Y-8510D01*
X16073Y-8501D01*
X16055Y-8491D01*
X16017Y-8491D01*
X15998Y-8501D01*
X15989Y-8510D01*
X15980Y-8529D01*
X15980Y-8576D01*
X15989Y-8594D01*
X15998Y-8604D01*
X16017Y-8613D01*
X16055Y-8613D01*
X16073Y-8604D01*
X16083Y-8594D01*
X16092Y-8576D01*
X15801Y-8413D02*
X15689Y-8413D01*
X15745Y-8413D02*
X15745Y-8216D01*
X15726Y-8244D01*
X15707Y-8263D01*
X15689Y-8273D01*
X15886Y-8413D02*
X15886Y-8216D01*
X15998Y-8413D02*
X15914Y-8301D01*
X15998Y-8216D02*
X15886Y-8329D01*
X18731Y-15067D02*
X18665Y-14973D01*
X18618Y-15067D02*
X18618Y-14870D01*
X18693Y-14870D01*
X18712Y-14880D01*
X18721Y-14889D01*
X18731Y-14908D01*
X18731Y-14936D01*
X18721Y-14955D01*
X18712Y-14964D01*
X18693Y-14973D01*
X18618Y-14973D01*
X18918Y-15067D02*
X18806Y-15067D01*
X18862Y-15067D02*
X18862Y-14870D01*
X18843Y-14898D01*
X18825Y-14917D01*
X18806Y-14927D01*
X19031Y-14955D02*
X19012Y-14945D01*
X19003Y-14936D01*
X18994Y-14917D01*
X18994Y-14908D01*
X19003Y-14889D01*
X19012Y-14880D01*
X19031Y-14870D01*
X19069Y-14870D01*
X19087Y-14880D01*
X19097Y-14889D01*
X19106Y-14908D01*
X19106Y-14917D01*
X19097Y-14936D01*
X19087Y-14945D01*
X19069Y-14955D01*
X19031Y-14955D01*
X19012Y-14964D01*
X19003Y-14973D01*
X18994Y-14992D01*
X18994Y-15030D01*
X19003Y-15048D01*
X19012Y-15058D01*
X19031Y-15067D01*
X19069Y-15067D01*
X19087Y-15058D01*
X19097Y-15048D01*
X19106Y-15030D01*
X19106Y-14992D01*
X19097Y-14973D01*
X19087Y-14964D01*
X19069Y-14955D01*
X18815Y-15342D02*
X18703Y-15342D01*
X18759Y-15342D02*
X18759Y-15145D01*
X18740Y-15173D01*
X18721Y-15192D01*
X18703Y-15202D01*
X18900Y-15342D02*
X18900Y-15145D01*
X19012Y-15342D02*
X18928Y-15230D01*
X19012Y-15145D02*
X18900Y-15258D01*
X18214Y-13736D02*
X18120Y-13802D01*
X18214Y-13849D02*
X18017Y-13849D01*
X18017Y-13774D01*
X18027Y-13755D01*
X18036Y-13746D01*
X18055Y-13736D01*
X18083Y-13736D01*
X18102Y-13746D01*
X18111Y-13755D01*
X18120Y-13774D01*
X18120Y-13849D01*
X18214Y-13549D02*
X18214Y-13661D01*
X18214Y-13605D02*
X18017Y-13605D01*
X18045Y-13624D01*
X18064Y-13642D01*
X18074Y-13661D01*
X18017Y-13483D02*
X18017Y-13352D01*
X18214Y-13436D01*
X17939Y-13652D02*
X17939Y-13764D01*
X17939Y-13708D02*
X17742Y-13708D01*
X17770Y-13727D01*
X17789Y-13746D01*
X17799Y-13764D01*
X17939Y-13567D02*
X17742Y-13567D01*
X17939Y-13455D02*
X17827Y-13539D01*
X17742Y-13455D02*
X17855Y-13567D01*
G54D11*
X17906Y-11453D02*
X18020Y-11453D01*
X17963Y-11653D02*
X17963Y-11453D01*
X18087Y-11653D02*
X18087Y-11453D01*
X18163Y-11453D01*
X18182Y-11463D01*
X18192Y-11473D01*
X18201Y-11492D01*
X18201Y-11520D01*
X18192Y-11539D01*
X18182Y-11549D01*
X18163Y-11558D01*
X18087Y-11558D01*
X18277Y-11473D02*
X18287Y-11463D01*
X18306Y-11453D01*
X18354Y-11453D01*
X18373Y-11463D01*
X18382Y-11473D01*
X18392Y-11492D01*
X18392Y-11511D01*
X18382Y-11539D01*
X18268Y-11653D01*
X18392Y-11653D01*
X18515Y-11453D02*
X18534Y-11453D01*
X18554Y-11463D01*
X18563Y-11473D01*
X18573Y-11492D01*
X18582Y-11530D01*
X18582Y-11577D01*
X18573Y-11615D01*
X18563Y-11634D01*
X18554Y-11644D01*
X18534Y-11653D01*
X18515Y-11653D01*
X18496Y-11644D01*
X18487Y-11634D01*
X18477Y-11615D01*
X18468Y-11577D01*
X18468Y-11530D01*
X18477Y-11492D01*
X18487Y-11473D01*
X18496Y-11463D01*
X18515Y-11453D01*
G54D15*
X18042Y-10816D02*
X18037Y-10821D01*
X18023Y-10826D01*
X18013Y-10826D01*
X17999Y-10821D01*
X17989Y-10811D01*
X17984Y-10802D01*
X17980Y-10783D01*
X17980Y-10768D01*
X17984Y-10749D01*
X17989Y-10740D01*
X17999Y-10730D01*
X18013Y-10726D01*
X18023Y-10726D01*
X18037Y-10730D01*
X18042Y-10735D01*
X18104Y-10726D02*
X18123Y-10726D01*
X18132Y-10730D01*
X18142Y-10740D01*
X18146Y-10759D01*
X18146Y-10792D01*
X18142Y-10811D01*
X18132Y-10821D01*
X18123Y-10826D01*
X18104Y-10826D01*
X18094Y-10821D01*
X18084Y-10811D01*
X18080Y-10792D01*
X18080Y-10759D01*
X18084Y-10740D01*
X18094Y-10730D01*
X18104Y-10726D01*
X18189Y-10826D02*
X18189Y-10726D01*
X18246Y-10826D01*
X18246Y-10726D01*
X18294Y-10826D02*
X18294Y-10726D01*
X18351Y-10826D01*
X18351Y-10726D01*
X18375Y-10835D02*
X18451Y-10835D01*
X18527Y-10826D02*
X18470Y-10826D01*
X18499Y-10826D02*
X18499Y-10726D01*
X18489Y-10740D01*
X18480Y-10749D01*
X18470Y-10754D01*
G54D11*
X14838Y-15557D02*
X14838Y-15443D01*
X15038Y-15500D02*
X14838Y-15500D01*
X15038Y-15376D02*
X14838Y-15376D01*
X14838Y-15300D01*
X14848Y-15281D01*
X14858Y-15271D01*
X14877Y-15262D01*
X14905Y-15262D01*
X14924Y-15271D01*
X14934Y-15281D01*
X14943Y-15300D01*
X14943Y-15376D01*
X15038Y-15071D02*
X15038Y-15186D01*
X15038Y-15129D02*
X14838Y-15129D01*
X14867Y-15148D01*
X14886Y-15167D01*
X14896Y-15186D01*
X14838Y-14890D02*
X14838Y-14986D01*
X14934Y-14995D01*
X14924Y-14986D01*
X14915Y-14967D01*
X14915Y-14919D01*
X14924Y-14900D01*
X14934Y-14890D01*
X14953Y-14881D01*
X15000Y-14881D01*
X15019Y-14890D01*
X15029Y-14900D01*
X15038Y-14919D01*
X15038Y-14967D01*
X15029Y-14986D01*
X15019Y-14995D01*
G54D15*
X14201Y-15421D02*
X14206Y-15426D01*
X14211Y-15440D01*
X14211Y-15450D01*
X14206Y-15464D01*
X14196Y-15474D01*
X14187Y-15479D01*
X14168Y-15483D01*
X14153Y-15483D01*
X14134Y-15479D01*
X14125Y-15474D01*
X14115Y-15464D01*
X14111Y-15450D01*
X14111Y-15440D01*
X14115Y-15426D01*
X14120Y-15421D01*
X14111Y-15360D02*
X14111Y-15340D01*
X14115Y-15331D01*
X14125Y-15321D01*
X14144Y-15317D01*
X14177Y-15317D01*
X14196Y-15321D01*
X14206Y-15331D01*
X14211Y-15340D01*
X14211Y-15360D01*
X14206Y-15369D01*
X14196Y-15379D01*
X14177Y-15383D01*
X14144Y-15383D01*
X14125Y-15379D01*
X14115Y-15369D01*
X14111Y-15360D01*
X14211Y-15274D02*
X14111Y-15274D01*
X14211Y-15217D01*
X14111Y-15217D01*
X14211Y-15169D02*
X14111Y-15169D01*
X14211Y-15112D01*
X14111Y-15112D01*
X14220Y-15088D02*
X14220Y-15012D01*
X14211Y-14936D02*
X14211Y-14993D01*
X14211Y-14964D02*
X14111Y-14964D01*
X14125Y-14974D01*
X14134Y-14983D01*
X14139Y-14993D01*
G54D11*
X13492Y-8108D02*
X13606Y-8108D01*
X13549Y-8308D02*
X13549Y-8108D01*
X13673Y-8308D02*
X13673Y-8108D01*
X13749Y-8108D01*
X13768Y-8118D01*
X13778Y-8128D01*
X13787Y-8147D01*
X13787Y-8175D01*
X13778Y-8194D01*
X13768Y-8204D01*
X13749Y-8213D01*
X13673Y-8213D01*
X13978Y-8308D02*
X13863Y-8308D01*
X13920Y-8308D02*
X13920Y-8108D01*
X13901Y-8137D01*
X13882Y-8156D01*
X13863Y-8166D01*
X14054Y-8128D02*
X14063Y-8118D01*
X14082Y-8108D01*
X14130Y-8108D01*
X14149Y-8118D01*
X14159Y-8128D01*
X14168Y-8147D01*
X14168Y-8166D01*
X14159Y-8194D01*
X14044Y-8308D01*
X14168Y-8308D01*
G54D15*
X13628Y-7471D02*
X13623Y-7476D01*
X13609Y-7481D01*
X13599Y-7481D01*
X13585Y-7476D01*
X13575Y-7466D01*
X13570Y-7457D01*
X13566Y-7438D01*
X13566Y-7423D01*
X13570Y-7404D01*
X13575Y-7395D01*
X13585Y-7385D01*
X13599Y-7381D01*
X13609Y-7381D01*
X13623Y-7385D01*
X13628Y-7390D01*
X13690Y-7381D02*
X13709Y-7381D01*
X13718Y-7385D01*
X13728Y-7395D01*
X13732Y-7414D01*
X13732Y-7447D01*
X13728Y-7466D01*
X13718Y-7476D01*
X13709Y-7481D01*
X13690Y-7481D01*
X13680Y-7476D01*
X13670Y-7466D01*
X13666Y-7447D01*
X13666Y-7414D01*
X13670Y-7395D01*
X13680Y-7385D01*
X13690Y-7381D01*
X13775Y-7481D02*
X13775Y-7381D01*
X13832Y-7481D01*
X13832Y-7381D01*
X13880Y-7481D02*
X13880Y-7381D01*
X13937Y-7481D01*
X13937Y-7381D01*
X13961Y-7490D02*
X14037Y-7490D01*
X14113Y-7481D02*
X14056Y-7481D01*
X14085Y-7481D02*
X14085Y-7381D01*
X14075Y-7395D01*
X14066Y-7404D01*
X14056Y-7409D01*
G54D11*
X12127Y-14408D02*
X12241Y-14408D01*
X12184Y-14608D02*
X12184Y-14408D01*
X12308Y-14608D02*
X12308Y-14408D01*
X12384Y-14408D01*
X12403Y-14418D01*
X12413Y-14428D01*
X12422Y-14447D01*
X12422Y-14475D01*
X12413Y-14494D01*
X12403Y-14504D01*
X12384Y-14513D01*
X12308Y-14513D01*
X12489Y-14408D02*
X12622Y-14408D01*
X12537Y-14608D01*
G54D15*
X12168Y-13771D02*
X12163Y-13776D01*
X12149Y-13781D01*
X12139Y-13781D01*
X12125Y-13776D01*
X12115Y-13766D01*
X12110Y-13757D01*
X12106Y-13738D01*
X12106Y-13723D01*
X12110Y-13704D01*
X12115Y-13695D01*
X12125Y-13685D01*
X12139Y-13681D01*
X12149Y-13681D01*
X12163Y-13685D01*
X12168Y-13690D01*
X12230Y-13681D02*
X12249Y-13681D01*
X12258Y-13685D01*
X12268Y-13695D01*
X12272Y-13714D01*
X12272Y-13747D01*
X12268Y-13766D01*
X12258Y-13776D01*
X12249Y-13781D01*
X12230Y-13781D01*
X12220Y-13776D01*
X12210Y-13766D01*
X12206Y-13747D01*
X12206Y-13714D01*
X12210Y-13695D01*
X12220Y-13685D01*
X12230Y-13681D01*
X12315Y-13781D02*
X12315Y-13681D01*
X12372Y-13781D01*
X12372Y-13681D01*
X12420Y-13781D02*
X12420Y-13681D01*
X12477Y-13781D01*
X12477Y-13681D01*
X12501Y-13790D02*
X12577Y-13790D01*
X12653Y-13781D02*
X12596Y-13781D01*
X12625Y-13781D02*
X12625Y-13681D01*
X12615Y-13695D01*
X12606Y-13704D01*
X12596Y-13709D01*
G54D16*
X14053Y-15790D02*
X13659Y-15790D01*
X13659Y-15697D01*
X13678Y-15640D01*
X13715Y-15603D01*
X13753Y-15584D01*
X13828Y-15565D01*
X13884Y-15565D01*
X13959Y-15584D01*
X13997Y-15603D01*
X14034Y-15640D01*
X14053Y-15697D01*
X14053Y-15790D01*
X13659Y-15434D02*
X13659Y-15190D01*
X13809Y-15321D01*
X13809Y-15265D01*
X13828Y-15227D01*
X13847Y-15209D01*
X13884Y-15190D01*
X13978Y-15190D01*
X14015Y-15209D01*
X14034Y-15227D01*
X14053Y-15265D01*
X14053Y-15378D01*
X14034Y-15415D01*
X14015Y-15434D01*
X11927Y-16278D02*
X11533Y-16278D01*
X11533Y-16184D01*
X11552Y-16128D01*
X11589Y-16090D01*
X11627Y-16072D01*
X11702Y-16053D01*
X11758Y-16053D01*
X11833Y-16072D01*
X11871Y-16090D01*
X11908Y-16128D01*
X11927Y-16184D01*
X11927Y-16278D01*
X11927Y-15884D02*
X11533Y-15884D01*
X11533Y-15621D02*
X11533Y-15546D01*
X11552Y-15509D01*
X11589Y-15471D01*
X11664Y-15453D01*
X11796Y-15453D01*
X11871Y-15471D01*
X11908Y-15509D01*
X11927Y-15546D01*
X11927Y-15621D01*
X11908Y-15659D01*
X11871Y-15697D01*
X11796Y-15715D01*
X11664Y-15715D01*
X11589Y-15697D01*
X11552Y-15659D01*
X11533Y-15621D01*
X11927Y-15284D02*
X11533Y-15284D01*
X11533Y-15190D01*
X11552Y-15134D01*
X11589Y-15096D01*
X11627Y-15077D01*
X11702Y-15059D01*
X11758Y-15059D01*
X11833Y-15077D01*
X11871Y-15096D01*
X11908Y-15134D01*
X11927Y-15190D01*
X11927Y-15284D01*
X11721Y-14890D02*
X11721Y-14758D01*
X11927Y-14702D02*
X11927Y-14890D01*
X11533Y-14890D01*
X11533Y-14702D01*
X17089Y-9085D02*
X16695Y-9085D01*
X16695Y-8992D01*
X16714Y-8935D01*
X16751Y-8898D01*
X16789Y-8879D01*
X16864Y-8860D01*
X16920Y-8860D01*
X16995Y-8879D01*
X17033Y-8898D01*
X17070Y-8935D01*
X17089Y-8992D01*
X17089Y-9085D01*
X16695Y-8504D02*
X16695Y-8691D01*
X16883Y-8710D01*
X16864Y-8691D01*
X16845Y-8654D01*
X16845Y-8560D01*
X16864Y-8522D01*
X16883Y-8504D01*
X16920Y-8485D01*
X17014Y-8485D01*
X17051Y-8504D01*
X17070Y-8522D01*
X17089Y-8560D01*
X17089Y-8654D01*
X17070Y-8691D01*
X17051Y-8710D01*
X19215Y-9573D02*
X18821Y-9573D01*
X18821Y-9479D01*
X18840Y-9423D01*
X18877Y-9385D01*
X18915Y-9367D01*
X18990Y-9348D01*
X19046Y-9348D01*
X19121Y-9367D01*
X19159Y-9385D01*
X19196Y-9423D01*
X19215Y-9479D01*
X19215Y-9573D01*
X19215Y-9179D02*
X18821Y-9179D01*
X18821Y-8916D02*
X18821Y-8841D01*
X18840Y-8804D01*
X18877Y-8766D01*
X18952Y-8748D01*
X19084Y-8748D01*
X19159Y-8766D01*
X19196Y-8804D01*
X19215Y-8841D01*
X19215Y-8916D01*
X19196Y-8954D01*
X19159Y-8992D01*
X19084Y-9010D01*
X18952Y-9010D01*
X18877Y-8992D01*
X18840Y-8954D01*
X18821Y-8916D01*
X19215Y-8579D02*
X18821Y-8579D01*
X18821Y-8485D01*
X18840Y-8429D01*
X18877Y-8391D01*
X18915Y-8372D01*
X18990Y-8354D01*
X19046Y-8354D01*
X19121Y-8372D01*
X19159Y-8391D01*
X19196Y-8429D01*
X19215Y-8485D01*
X19215Y-8579D01*
X19009Y-8185D02*
X19009Y-8053D01*
X19215Y-7997D02*
X19215Y-8185D01*
X18821Y-8185D01*
X18821Y-7997D01*
X21301Y-7934D02*
X20907Y-7934D01*
X20907Y-7841D01*
X20926Y-7784D01*
X20963Y-7747D01*
X21001Y-7728D01*
X21076Y-7709D01*
X21132Y-7709D01*
X21207Y-7728D01*
X21245Y-7747D01*
X21282Y-7784D01*
X21301Y-7841D01*
X21301Y-7934D01*
X21038Y-7371D02*
X21301Y-7371D01*
X20888Y-7465D02*
X21170Y-7559D01*
X21170Y-7315D01*
X19175Y-8422D02*
X18781Y-8422D01*
X18781Y-8328D01*
X18800Y-8272D01*
X18837Y-8234D01*
X18875Y-8216D01*
X18950Y-8197D01*
X19006Y-8197D01*
X19081Y-8216D01*
X19119Y-8234D01*
X19156Y-8272D01*
X19175Y-8328D01*
X19175Y-8422D01*
X19175Y-8028D02*
X18781Y-8028D01*
X18781Y-7765D02*
X18781Y-7690D01*
X18800Y-7653D01*
X18837Y-7615D01*
X18912Y-7597D01*
X19044Y-7597D01*
X19119Y-7615D01*
X19156Y-7653D01*
X19175Y-7690D01*
X19175Y-7765D01*
X19156Y-7803D01*
X19119Y-7841D01*
X19044Y-7859D01*
X18912Y-7859D01*
X18837Y-7841D01*
X18800Y-7803D01*
X18781Y-7765D01*
X19175Y-7428D02*
X18781Y-7428D01*
X18781Y-7334D01*
X18800Y-7278D01*
X18837Y-7240D01*
X18875Y-7221D01*
X18950Y-7203D01*
X19006Y-7203D01*
X19081Y-7221D01*
X19119Y-7240D01*
X19156Y-7278D01*
X19175Y-7334D01*
X19175Y-7428D01*
X18969Y-7034D02*
X18969Y-6902D01*
X19175Y-6846D02*
X19175Y-7034D01*
X18781Y-7034D01*
X18781Y-6846D01*
G54D10*
X14471Y-16663D02*
X14471Y-16269D01*
X14621Y-16269D01*
X14659Y-16288D01*
X14677Y-16307D01*
X14696Y-16344D01*
X14696Y-16401D01*
X14677Y-16438D01*
X14659Y-16457D01*
X14621Y-16476D01*
X14471Y-16476D01*
X15071Y-16663D02*
X14846Y-16663D01*
X14958Y-16663D02*
X14958Y-16269D01*
X14921Y-16326D01*
X14883Y-16363D01*
X14846Y-16382D01*
X16093Y-16626D02*
X16074Y-16644D01*
X16018Y-16663D01*
X15980Y-16663D01*
X15924Y-16644D01*
X15886Y-16607D01*
X15868Y-16569D01*
X15849Y-16494D01*
X15849Y-16438D01*
X15868Y-16363D01*
X15886Y-16326D01*
X15924Y-16288D01*
X15980Y-16269D01*
X16018Y-16269D01*
X16074Y-16288D01*
X16093Y-16307D01*
X16336Y-16269D02*
X16411Y-16269D01*
X16449Y-16288D01*
X16486Y-16326D01*
X16505Y-16401D01*
X16505Y-16532D01*
X16486Y-16607D01*
X16449Y-16644D01*
X16411Y-16663D01*
X16336Y-16663D01*
X16299Y-16644D01*
X16261Y-16607D01*
X16243Y-16532D01*
X16243Y-16401D01*
X16261Y-16326D01*
X16299Y-16288D01*
X16336Y-16269D01*
X16674Y-16663D02*
X16674Y-16269D01*
X16899Y-16663D01*
X16899Y-16269D01*
X17086Y-16663D02*
X17086Y-16269D01*
X17311Y-16663D01*
X17311Y-16269D01*
X17405Y-16701D02*
X17705Y-16701D01*
X17986Y-16269D02*
X17799Y-16269D01*
X17780Y-16457D01*
X17799Y-16438D01*
X17836Y-16419D01*
X17930Y-16419D01*
X17967Y-16438D01*
X17986Y-16457D01*
X18005Y-16494D01*
X18005Y-16588D01*
X17986Y-16626D01*
X17967Y-16644D01*
X17930Y-16663D01*
X17836Y-16663D01*
X17799Y-16644D01*
X17780Y-16626D01*
G54D11*
X13107Y-11498D02*
X13221Y-11498D01*
X13164Y-11698D02*
X13164Y-11498D01*
X13288Y-11698D02*
X13288Y-11498D01*
X13364Y-11498D01*
X13383Y-11508D01*
X13393Y-11518D01*
X13402Y-11537D01*
X13402Y-11565D01*
X13393Y-11584D01*
X13383Y-11594D01*
X13364Y-11603D01*
X13288Y-11603D01*
X13593Y-11698D02*
X13479Y-11698D01*
X13536Y-11698D02*
X13536Y-11498D01*
X13517Y-11527D01*
X13498Y-11546D01*
X13479Y-11556D01*
G54D15*
X13148Y-10861D02*
X13143Y-10866D01*
X13129Y-10871D01*
X13119Y-10871D01*
X13105Y-10866D01*
X13095Y-10856D01*
X13090Y-10847D01*
X13086Y-10828D01*
X13086Y-10813D01*
X13090Y-10794D01*
X13095Y-10785D01*
X13105Y-10775D01*
X13119Y-10771D01*
X13129Y-10771D01*
X13143Y-10775D01*
X13148Y-10780D01*
X13210Y-10771D02*
X13229Y-10771D01*
X13238Y-10775D01*
X13248Y-10785D01*
X13252Y-10804D01*
X13252Y-10837D01*
X13248Y-10856D01*
X13238Y-10866D01*
X13229Y-10871D01*
X13210Y-10871D01*
X13200Y-10866D01*
X13190Y-10856D01*
X13186Y-10837D01*
X13186Y-10804D01*
X13190Y-10785D01*
X13200Y-10775D01*
X13210Y-10771D01*
X13295Y-10871D02*
X13295Y-10771D01*
X13352Y-10871D01*
X13352Y-10771D01*
X13400Y-10871D02*
X13400Y-10771D01*
X13457Y-10871D01*
X13457Y-10771D01*
X13481Y-10880D02*
X13557Y-10880D01*
X13633Y-10871D02*
X13576Y-10871D01*
X13605Y-10871D02*
X13605Y-10771D01*
X13595Y-10785D01*
X13586Y-10794D01*
X13576Y-10799D01*
X20522Y-11780D02*
X20522Y-11680D01*
X20560Y-11680D01*
X20570Y-11685D01*
X20575Y-11690D01*
X20579Y-11699D01*
X20579Y-11713D01*
X20575Y-11723D01*
X20570Y-11728D01*
X20560Y-11733D01*
X20522Y-11733D01*
X20641Y-11680D02*
X20660Y-11680D01*
X20670Y-11685D01*
X20679Y-11694D01*
X20684Y-11713D01*
X20684Y-11747D01*
X20679Y-11766D01*
X20670Y-11775D01*
X20660Y-11780D01*
X20641Y-11780D01*
X20632Y-11775D01*
X20622Y-11766D01*
X20617Y-11747D01*
X20617Y-11713D01*
X20622Y-11694D01*
X20632Y-11685D01*
X20641Y-11680D01*
X20713Y-11680D02*
X20770Y-11680D01*
X20741Y-11780D02*
X20741Y-11680D01*
X20851Y-11680D02*
X20803Y-11680D01*
X20798Y-11728D01*
X20803Y-11723D01*
X20813Y-11718D01*
X20837Y-11718D01*
X20846Y-11723D01*
X20851Y-11728D01*
X20856Y-11737D01*
X20856Y-11761D01*
X20851Y-11771D01*
X20846Y-11775D01*
X20837Y-11780D01*
X20813Y-11780D01*
X20803Y-11775D01*
X20798Y-11771D01*
X20475Y-10708D02*
X20470Y-10712D01*
X20456Y-10717D01*
X20446Y-10717D01*
X20432Y-10712D01*
X20422Y-10703D01*
X20417Y-10693D01*
X20413Y-10674D01*
X20413Y-10660D01*
X20417Y-10641D01*
X20422Y-10631D01*
X20432Y-10622D01*
X20446Y-10617D01*
X20456Y-10617D01*
X20470Y-10622D01*
X20475Y-10627D01*
X20537Y-10617D02*
X20556Y-10617D01*
X20565Y-10622D01*
X20575Y-10631D01*
X20579Y-10650D01*
X20579Y-10684D01*
X20575Y-10703D01*
X20565Y-10712D01*
X20556Y-10717D01*
X20537Y-10717D01*
X20527Y-10712D01*
X20517Y-10703D01*
X20513Y-10684D01*
X20513Y-10650D01*
X20517Y-10631D01*
X20527Y-10622D01*
X20537Y-10617D01*
X20622Y-10717D02*
X20622Y-10617D01*
X20679Y-10717D01*
X20679Y-10617D01*
X20727Y-10717D02*
X20727Y-10617D01*
X20784Y-10717D01*
X20784Y-10617D01*
X20808Y-10727D02*
X20884Y-10727D01*
X20960Y-10717D02*
X20903Y-10717D01*
X20932Y-10717D02*
X20932Y-10617D01*
X20922Y-10631D01*
X20913Y-10641D01*
X20903Y-10646D01*
X20548Y-10375D02*
X20548Y-10275D01*
X20586Y-10275D01*
X20596Y-10280D01*
X20601Y-10285D01*
X20605Y-10294D01*
X20605Y-10308D01*
X20601Y-10318D01*
X20596Y-10323D01*
X20586Y-10328D01*
X20548Y-10328D01*
X20667Y-10275D02*
X20686Y-10275D01*
X20696Y-10280D01*
X20705Y-10289D01*
X20710Y-10308D01*
X20710Y-10342D01*
X20705Y-10361D01*
X20696Y-10370D01*
X20686Y-10375D01*
X20667Y-10375D01*
X20658Y-10370D01*
X20648Y-10361D01*
X20643Y-10342D01*
X20643Y-10308D01*
X20648Y-10289D01*
X20658Y-10280D01*
X20667Y-10275D01*
X20739Y-10275D02*
X20796Y-10275D01*
X20767Y-10375D02*
X20767Y-10275D01*
X20872Y-10275D02*
X20853Y-10275D01*
X20843Y-10280D01*
X20839Y-10285D01*
X20829Y-10299D01*
X20824Y-10318D01*
X20824Y-10356D01*
X20829Y-10366D01*
X20834Y-10370D01*
X20843Y-10375D01*
X20863Y-10375D01*
X20872Y-10370D01*
X20877Y-10366D01*
X20882Y-10356D01*
X20882Y-10332D01*
X20877Y-10323D01*
X20872Y-10318D01*
X20863Y-10313D01*
X20843Y-10313D01*
X20834Y-10318D01*
X20829Y-10323D01*
X20824Y-10332D01*
X20501Y-9303D02*
X20496Y-9307D01*
X20482Y-9312D01*
X20472Y-9312D01*
X20458Y-9307D01*
X20448Y-9298D01*
X20443Y-9288D01*
X20439Y-9269D01*
X20439Y-9255D01*
X20443Y-9236D01*
X20448Y-9226D01*
X20458Y-9217D01*
X20472Y-9212D01*
X20482Y-9212D01*
X20496Y-9217D01*
X20501Y-9222D01*
X20563Y-9212D02*
X20582Y-9212D01*
X20591Y-9217D01*
X20601Y-9226D01*
X20605Y-9245D01*
X20605Y-9279D01*
X20601Y-9298D01*
X20591Y-9307D01*
X20582Y-9312D01*
X20563Y-9312D01*
X20553Y-9307D01*
X20543Y-9298D01*
X20539Y-9279D01*
X20539Y-9245D01*
X20543Y-9226D01*
X20553Y-9217D01*
X20563Y-9212D01*
X20648Y-9312D02*
X20648Y-9212D01*
X20705Y-9312D01*
X20705Y-9212D01*
X20753Y-9312D02*
X20753Y-9212D01*
X20810Y-9312D01*
X20810Y-9212D01*
X20834Y-9322D02*
X20910Y-9322D01*
X20986Y-9312D02*
X20929Y-9312D01*
X20958Y-9312D02*
X20958Y-9212D01*
X20948Y-9226D01*
X20939Y-9236D01*
X20929Y-9241D01*
X13935Y-10541D02*
X13935Y-10441D01*
X13973Y-10441D01*
X13983Y-10446D01*
X13988Y-10451D01*
X13992Y-10460D01*
X13992Y-10474D01*
X13988Y-10484D01*
X13983Y-10489D01*
X13973Y-10494D01*
X13935Y-10494D01*
X14054Y-10441D02*
X14073Y-10441D01*
X14083Y-10446D01*
X14092Y-10455D01*
X14097Y-10474D01*
X14097Y-10508D01*
X14092Y-10527D01*
X14083Y-10536D01*
X14073Y-10541D01*
X14054Y-10541D01*
X14045Y-10536D01*
X14035Y-10527D01*
X14030Y-10508D01*
X14030Y-10474D01*
X14035Y-10455D01*
X14045Y-10446D01*
X14054Y-10441D01*
X14126Y-10441D02*
X14183Y-10441D01*
X14154Y-10541D02*
X14154Y-10441D01*
X14207Y-10441D02*
X14269Y-10441D01*
X14235Y-10479D01*
X14250Y-10479D01*
X14259Y-10484D01*
X14264Y-10489D01*
X14269Y-10498D01*
X14269Y-10522D01*
X14264Y-10532D01*
X14259Y-10536D01*
X14250Y-10541D01*
X14221Y-10541D01*
X14211Y-10536D01*
X14207Y-10532D01*
X13888Y-9469D02*
X13883Y-9473D01*
X13869Y-9478D01*
X13859Y-9478D01*
X13845Y-9473D01*
X13835Y-9464D01*
X13830Y-9454D01*
X13826Y-9435D01*
X13826Y-9421D01*
X13830Y-9402D01*
X13835Y-9392D01*
X13845Y-9383D01*
X13859Y-9378D01*
X13869Y-9378D01*
X13883Y-9383D01*
X13888Y-9388D01*
X13950Y-9378D02*
X13969Y-9378D01*
X13978Y-9383D01*
X13988Y-9392D01*
X13992Y-9411D01*
X13992Y-9445D01*
X13988Y-9464D01*
X13978Y-9473D01*
X13969Y-9478D01*
X13950Y-9478D01*
X13940Y-9473D01*
X13930Y-9464D01*
X13926Y-9445D01*
X13926Y-9411D01*
X13930Y-9392D01*
X13940Y-9383D01*
X13950Y-9378D01*
X14035Y-9478D02*
X14035Y-9378D01*
X14092Y-9478D01*
X14092Y-9378D01*
X14140Y-9478D02*
X14140Y-9378D01*
X14197Y-9478D01*
X14197Y-9378D01*
X14221Y-9488D02*
X14297Y-9488D01*
X14373Y-9478D02*
X14316Y-9478D01*
X14345Y-9478D02*
X14345Y-9378D01*
X14335Y-9392D01*
X14326Y-9402D01*
X14316Y-9407D01*
X12655Y-10571D02*
X12655Y-10471D01*
X12693Y-10471D01*
X12703Y-10476D01*
X12708Y-10481D01*
X12712Y-10490D01*
X12712Y-10504D01*
X12708Y-10514D01*
X12703Y-10519D01*
X12693Y-10524D01*
X12655Y-10524D01*
X12774Y-10471D02*
X12793Y-10471D01*
X12803Y-10476D01*
X12812Y-10485D01*
X12817Y-10504D01*
X12817Y-10538D01*
X12812Y-10557D01*
X12803Y-10566D01*
X12793Y-10571D01*
X12774Y-10571D01*
X12765Y-10566D01*
X12755Y-10557D01*
X12750Y-10538D01*
X12750Y-10504D01*
X12755Y-10485D01*
X12765Y-10476D01*
X12774Y-10471D01*
X12846Y-10471D02*
X12903Y-10471D01*
X12874Y-10571D02*
X12874Y-10471D01*
X12979Y-10504D02*
X12979Y-10571D01*
X12955Y-10466D02*
X12931Y-10538D01*
X12993Y-10538D01*
X12608Y-9499D02*
X12603Y-9503D01*
X12589Y-9508D01*
X12579Y-9508D01*
X12565Y-9503D01*
X12555Y-9494D01*
X12550Y-9484D01*
X12546Y-9465D01*
X12546Y-9451D01*
X12550Y-9432D01*
X12555Y-9422D01*
X12565Y-9413D01*
X12579Y-9408D01*
X12589Y-9408D01*
X12603Y-9413D01*
X12608Y-9418D01*
X12670Y-9408D02*
X12689Y-9408D01*
X12698Y-9413D01*
X12708Y-9422D01*
X12712Y-9441D01*
X12712Y-9475D01*
X12708Y-9494D01*
X12698Y-9503D01*
X12689Y-9508D01*
X12670Y-9508D01*
X12660Y-9503D01*
X12650Y-9494D01*
X12646Y-9475D01*
X12646Y-9441D01*
X12650Y-9422D01*
X12660Y-9413D01*
X12670Y-9408D01*
X12755Y-9508D02*
X12755Y-9408D01*
X12812Y-9508D01*
X12812Y-9408D01*
X12860Y-9508D02*
X12860Y-9408D01*
X12917Y-9508D01*
X12917Y-9408D01*
X12941Y-9518D02*
X13017Y-9518D01*
X13093Y-9508D02*
X13036Y-9508D01*
X13065Y-9508D02*
X13065Y-9408D01*
X13055Y-9422D01*
X13046Y-9432D01*
X13036Y-9437D01*
X13025Y-13671D02*
X13025Y-13571D01*
X13063Y-13571D01*
X13073Y-13576D01*
X13078Y-13581D01*
X13082Y-13590D01*
X13082Y-13604D01*
X13078Y-13614D01*
X13073Y-13619D01*
X13063Y-13624D01*
X13025Y-13624D01*
X13144Y-13571D02*
X13163Y-13571D01*
X13173Y-13576D01*
X13182Y-13585D01*
X13187Y-13604D01*
X13187Y-13638D01*
X13182Y-13657D01*
X13173Y-13666D01*
X13163Y-13671D01*
X13144Y-13671D01*
X13135Y-13666D01*
X13125Y-13657D01*
X13120Y-13638D01*
X13120Y-13604D01*
X13125Y-13585D01*
X13135Y-13576D01*
X13144Y-13571D01*
X13216Y-13571D02*
X13273Y-13571D01*
X13244Y-13671D02*
X13244Y-13571D01*
X13359Y-13671D02*
X13301Y-13671D01*
X13330Y-13671D02*
X13330Y-13571D01*
X13320Y-13585D01*
X13311Y-13595D01*
X13301Y-13600D01*
X12978Y-12599D02*
X12973Y-12603D01*
X12959Y-12608D01*
X12949Y-12608D01*
X12935Y-12603D01*
X12925Y-12594D01*
X12920Y-12584D01*
X12916Y-12565D01*
X12916Y-12551D01*
X12920Y-12532D01*
X12925Y-12522D01*
X12935Y-12513D01*
X12949Y-12508D01*
X12959Y-12508D01*
X12973Y-12513D01*
X12978Y-12518D01*
X13040Y-12508D02*
X13059Y-12508D01*
X13068Y-12513D01*
X13078Y-12522D01*
X13082Y-12541D01*
X13082Y-12575D01*
X13078Y-12594D01*
X13068Y-12603D01*
X13059Y-12608D01*
X13040Y-12608D01*
X13030Y-12603D01*
X13020Y-12594D01*
X13016Y-12575D01*
X13016Y-12541D01*
X13020Y-12522D01*
X13030Y-12513D01*
X13040Y-12508D01*
X13125Y-12608D02*
X13125Y-12508D01*
X13182Y-12608D01*
X13182Y-12508D01*
X13230Y-12608D02*
X13230Y-12508D01*
X13287Y-12608D01*
X13287Y-12508D01*
X13311Y-12618D02*
X13387Y-12618D01*
X13463Y-12608D02*
X13406Y-12608D01*
X13435Y-12608D02*
X13435Y-12508D01*
X13425Y-12522D01*
X13416Y-12532D01*
X13406Y-12537D01*
X12995Y-12451D02*
X12995Y-12351D01*
X13033Y-12351D01*
X13043Y-12356D01*
X13048Y-12361D01*
X13052Y-12370D01*
X13052Y-12384D01*
X13048Y-12394D01*
X13043Y-12399D01*
X13033Y-12404D01*
X12995Y-12404D01*
X13114Y-12351D02*
X13133Y-12351D01*
X13143Y-12356D01*
X13152Y-12365D01*
X13157Y-12384D01*
X13157Y-12418D01*
X13152Y-12437D01*
X13143Y-12446D01*
X13133Y-12451D01*
X13114Y-12451D01*
X13105Y-12446D01*
X13095Y-12437D01*
X13090Y-12418D01*
X13090Y-12384D01*
X13095Y-12365D01*
X13105Y-12356D01*
X13114Y-12351D01*
X13186Y-12351D02*
X13243Y-12351D01*
X13214Y-12451D02*
X13214Y-12351D01*
X13271Y-12361D02*
X13276Y-12356D01*
X13286Y-12351D01*
X13310Y-12351D01*
X13319Y-12356D01*
X13324Y-12361D01*
X13329Y-12370D01*
X13329Y-12380D01*
X13324Y-12394D01*
X13267Y-12451D01*
X13329Y-12451D01*
X12948Y-11379D02*
X12943Y-11383D01*
X12929Y-11388D01*
X12919Y-11388D01*
X12905Y-11383D01*
X12895Y-11374D01*
X12890Y-11364D01*
X12886Y-11345D01*
X12886Y-11331D01*
X12890Y-11312D01*
X12895Y-11302D01*
X12905Y-11293D01*
X12919Y-11288D01*
X12929Y-11288D01*
X12943Y-11293D01*
X12948Y-11298D01*
X13010Y-11288D02*
X13029Y-11288D01*
X13038Y-11293D01*
X13048Y-11302D01*
X13052Y-11321D01*
X13052Y-11355D01*
X13048Y-11374D01*
X13038Y-11383D01*
X13029Y-11388D01*
X13010Y-11388D01*
X13000Y-11383D01*
X12990Y-11374D01*
X12986Y-11355D01*
X12986Y-11321D01*
X12990Y-11302D01*
X13000Y-11293D01*
X13010Y-11288D01*
X13095Y-11388D02*
X13095Y-11288D01*
X13152Y-11388D01*
X13152Y-11288D01*
X13200Y-11388D02*
X13200Y-11288D01*
X13257Y-11388D01*
X13257Y-11288D01*
X13281Y-11398D02*
X13357Y-11398D01*
X13433Y-11388D02*
X13376Y-11388D01*
X13405Y-11388D02*
X13405Y-11288D01*
X13395Y-11302D01*
X13386Y-11312D01*
X13376Y-11317D01*
%LPC*%
G54D17*
X16700Y-14300D03*
X16700Y-13800D03*
X16700Y-13300D03*
X16700Y-12800D03*
X16700Y-12300D03*
X16700Y-11800D03*
X16700Y-11300D03*
X14500Y-11300D03*
X14500Y-11800D03*
X14500Y-12300D03*
X14500Y-12800D03*
X14500Y-13300D03*
X14500Y-13800D03*
X14500Y-14300D03*
G54D18*
X15603Y-6629D03*
X16353Y-6629D03*
G54D19*
X20350Y-13235D03*
X20350Y-13985D03*
X19190Y-13235D03*
X19190Y-13985D03*
G54D18*
X14835Y-15210D03*
X15585Y-15210D03*
X14875Y-16180D03*
X15625Y-16180D03*
X18681Y-12347D03*
X17931Y-12347D03*
X20359Y-12321D03*
X19609Y-12321D03*
X17594Y-6608D03*
X18344Y-6608D03*
X16195Y-9490D03*
X15445Y-9490D03*
X16219Y-7584D03*
X15469Y-7584D03*
X16219Y-8484D03*
X15469Y-8484D03*
X18483Y-15113D03*
X19233Y-15113D03*
G54D19*
X18010Y-13235D03*
X18010Y-13985D03*
G54D20*
X18254Y-10825D03*
X14210Y-15210D03*
X13840Y-7480D03*
X12380Y-13780D03*
G54D21*
X12870Y-14752D03*
X12870Y-16248D03*
X17954Y-9543D03*
X17954Y-8047D03*
X20118Y-6896D03*
X20118Y-8392D03*
G54D22*
X14270Y-17405D03*
X15263Y-17395D03*
X16267Y-17395D03*
X17271Y-17395D03*
X18275Y-17395D03*
G54D20*
X13360Y-10870D03*
G54D22*
X20687Y-11189D03*
X20713Y-9784D03*
X14100Y-9950D03*
X12820Y-9980D03*
X13190Y-13080D03*
X13160Y-11860D03*
M02*
